<svg width="197" height="284" viewBox="0 0 197 284" fill="none" xmlns="http://www.w3.org/2000/svg">
<mask id="path-1-inside-1_213_14601" fill="white">
<path fill-rule="evenodd" clip-rule="evenodd" d="M33.2281 10.617L28.7881 1.3145C27.0363 2.88329 25.1433 8.9934 24.7374 11.0146C24.3315 13.0358 24.2844 20.0457 24.8774 22.0201C25.4704 23.9945 27.4603 26.4041 29.9575 26.2871C32.4548 26.1702 33.3691 25.4148 34.3591 24.0788C35.3294 25.1494 36.0161 25.7109 37.9488 25.9129C39.8814 26.115 43.0746 24.1713 43.3571 21.1547C43.6397 18.1382 43.547 14.1382 42.2183 10.196C40.8896 6.25386 39.5185 3.31477 36.7794 0.940296L33.2281 10.617ZM4.39135 27.2528L8.83135 36.5553L12.3826 26.8786C15.1217 29.2531 16.4928 32.1922 17.8215 36.1343C19.1502 40.0765 19.2429 44.0766 18.9603 47.0931C18.6778 50.1096 15.4846 52.0533 13.552 51.8513C11.6194 51.6492 10.9326 51.0877 9.96227 50.0172C8.97232 51.3531 8.05802 52.1085 5.56075 52.2255C3.06348 52.3424 1.07361 49.9329 0.480602 47.9584C-0.112402 45.984 -0.065244 38.9741 0.34065 36.9529C0.746544 34.9317 2.63952 28.8216 4.39135 27.2528ZM38.3658 54.2618L32.2827 45.9403C30.8511 47.8059 30.1202 54.1606 30.0949 56.222C30.0696 58.2834 31.3191 65.1812 32.2668 67.012C33.2146 68.8428 35.6156 70.843 38.0482 70.2664C40.4808 69.6899 41.2397 68.7785 41.9657 67.2826C43.1172 68.1553 43.8959 68.5802 45.8326 68.4215C47.7692 68.2628 50.5481 65.7623 50.2681 62.7455C49.9882 59.7288 49.1577 55.8148 47.1232 52.1862C45.0886 48.5576 43.1978 45.9226 40.0671 44.0954L38.3658 54.2618ZM69.9332 88.6972L60.628 84.2629C60.2541 86.5846 62.6288 92.5241 63.5855 94.3502C64.5422 96.1763 68.9176 101.653 70.6211 102.814C72.3246 103.975 75.3875 104.595 77.2545 102.933C79.1214 101.27 79.3565 100.108 79.2849 98.4464C80.7127 98.6676 81.5998 98.6717 83.2288 97.6123C84.8578 96.5529 86.1158 93.0327 84.4367 90.5108C82.7577 87.9888 80.1681 84.9388 76.6544 82.7117C73.1407 80.4846 70.2253 79.0637 66.6023 78.9425L69.9332 88.6972ZM58.7883 113.174L65.1462 121.287L66.5066 111.069C69.6967 112.791 71.6746 115.361 73.8293 118.92C75.984 122.478 76.9449 126.362 77.3256 129.368C77.7062 132.374 75.0126 134.966 73.0823 135.189C71.152 135.412 70.3595 135.014 69.1794 134.18C68.5039 135.699 67.7759 136.636 65.364 137.293C62.952 137.951 60.4854 136.032 59.477 134.234C58.4685 132.436 56.9891 125.584 56.9455 123.523C56.9018 121.462 57.4198 115.086 58.7883 113.174ZM88.3332 151.283L86.7578 141.096C84.6287 142.095 81.0576 147.402 80.0872 149.221C79.1169 151.039 77.0546 157.739 77.0544 159.801C77.0542 161.862 78.2665 164.743 80.6918 165.349C83.1171 165.956 84.2101 165.495 85.5427 164.501C86.1639 165.805 86.66 166.541 88.4528 167.29C90.2456 168.04 93.863 167.097 95.0016 164.29C96.1402 161.482 97.2024 157.625 97.0643 153.467C96.9261 149.309 96.4587 146.1 94.5188 143.037L88.3332 151.283ZM47.9843 151.645L49.3139 161.867L55.6962 153.772C57.5619 156.881 57.9518 160.1 57.9898 164.26C58.0277 168.42 56.8729 172.251 55.6669 175.03C54.461 177.81 50.822 178.665 49.0478 177.872C47.2736 177.08 46.7953 176.333 46.2057 175.013C44.8496 175.976 43.7458 176.41 41.3359 175.745C38.9259 175.08 37.7833 172.171 37.8331 170.11C37.883 168.049 40.1061 161.401 41.12 159.606C42.1338 157.811 45.8317 152.592 47.9843 151.645ZM63.9429 192.85L58.6065 184.031C57.0181 185.765 55.7373 192.032 55.5329 194.083C55.3284 196.135 55.9733 203.115 56.7582 205.021C57.5432 206.928 59.7612 209.129 62.2347 208.766C64.7082 208.403 65.5435 207.561 66.3968 206.134C67.4681 207.104 68.2069 207.595 70.15 207.605C72.0932 207.616 75.0789 205.366 75.0624 202.337C75.0459 199.307 74.5589 195.335 72.8476 191.544C71.1363 187.752 69.4819 184.962 66.5218 182.87L63.9429 192.85ZM93.8837 222.646L83.7206 224.366C84.7492 226.481 90.1066 229.976 91.9392 230.92C93.7717 231.865 100.5 233.831 102.562 233.802C104.623 233.773 107.486 232.519 108.058 230.086C108.63 227.652 108.154 226.566 107.14 225.247C108.436 224.608 109.164 224.101 109.888 222.298C110.612 220.495 109.617 216.891 106.794 215.793C103.97 214.694 100.098 213.687 95.9426 213.884C91.7873 214.082 88.5849 214.595 85.5507 216.579L93.8837 222.646ZM156.657 229.585L146.446 230.998C147.411 233.142 152.66 236.798 154.463 237.797C156.266 238.796 162.932 240.965 164.993 240.999C167.055 241.032 169.954 239.866 170.599 237.45C171.245 235.035 170.802 233.935 169.829 232.587C171.143 231.986 171.886 231.502 172.664 229.721C173.442 227.941 172.558 224.309 169.768 223.125C166.979 221.942 163.139 220.818 158.98 220.89C154.82 220.962 151.604 221.378 148.511 223.269L156.657 229.585ZM180.651 268.554L170.847 265.373C170.779 267.724 173.91 273.302 175.097 274.988C176.284 276.673 181.337 281.531 183.178 282.46C185.019 283.388 188.136 283.603 189.77 281.71C191.404 279.818 191.485 278.635 191.197 276.997C192.641 277.03 193.521 276.918 194.998 275.655C196.475 274.392 197.262 270.737 195.268 268.457C193.273 266.176 190.307 263.49 186.533 261.741C182.758 259.992 179.682 258.964 176.075 259.318L180.651 268.554ZM113.084 253.745L122.921 250.667L113.845 245.782C116.583 243.406 119.687 242.465 123.777 241.708C127.868 240.951 131.841 241.425 134.787 242.132C137.733 242.839 139.205 246.275 138.732 248.16C138.258 250.044 137.605 250.645 136.408 251.454C137.59 252.623 138.208 253.635 137.971 256.123C137.733 258.612 135.066 260.241 133.027 260.548C130.989 260.856 124.056 259.817 122.113 259.129C120.169 258.441 114.389 255.702 113.084 253.745ZM39.942 228.689L50.1079 230.394L44.2231 221.931C47.7398 221.052 50.9334 221.616 54.9241 222.791C58.9147 223.966 62.2432 226.187 64.551 228.15C66.8587 230.113 66.6172 233.843 65.3423 235.31C64.0674 236.776 63.2134 237.016 61.7798 237.196C62.3054 238.774 62.3991 239.956 61.0612 242.068C59.7234 244.18 56.6081 244.426 54.651 243.778C52.6939 243.13 46.9812 239.067 45.5592 237.575C44.1373 236.082 40.2209 231.024 39.942 228.689ZM19.4909 88.0915L28.7961 92.5258L25.4653 82.771C29.0882 82.8922 32.0036 84.3132 35.5173 86.5403C39.031 88.7674 41.6206 91.8174 43.2997 94.3393C44.9787 96.8612 43.7207 100.381 42.0917 101.441C40.4627 102.5 39.5756 102.496 38.1478 102.275C38.2194 103.936 37.9844 105.099 36.1174 106.761C34.2504 108.424 31.1875 107.804 29.484 106.643C27.7805 105.482 23.4051 100.005 22.4484 98.1788C21.4917 96.3527 19.117 90.4132 19.4909 88.0915Z"/>
</mask>
<path fill-rule="evenodd" clip-rule="evenodd" d="M33.2281 10.617L28.7881 1.3145C27.0363 2.88329 25.1433 8.9934 24.7374 11.0146C24.3315 13.0358 24.2844 20.0457 24.8774 22.0201C25.4704 23.9945 27.4603 26.4041 29.9575 26.2871C32.4548 26.1702 33.3691 25.4148 34.3591 24.0788C35.3294 25.1494 36.0161 25.7109 37.9488 25.9129C39.8814 26.115 43.0746 24.1713 43.3571 21.1547C43.6397 18.1382 43.547 14.1382 42.2183 10.196C40.8896 6.25386 39.5185 3.31477 36.7794 0.940296L33.2281 10.617ZM4.39135 27.2528L8.83135 36.5553L12.3826 26.8786C15.1217 29.2531 16.4928 32.1922 17.8215 36.1343C19.1502 40.0765 19.2429 44.0766 18.9603 47.0931C18.6778 50.1096 15.4846 52.0533 13.552 51.8513C11.6194 51.6492 10.9326 51.0877 9.96227 50.0172C8.97232 51.3531 8.05802 52.1085 5.56075 52.2255C3.06348 52.3424 1.07361 49.9329 0.480602 47.9584C-0.112402 45.984 -0.065244 38.9741 0.34065 36.9529C0.746544 34.9317 2.63952 28.8216 4.39135 27.2528ZM38.3658 54.2618L32.2827 45.9403C30.8511 47.8059 30.1202 54.1606 30.0949 56.222C30.0696 58.2834 31.3191 65.1812 32.2668 67.012C33.2146 68.8428 35.6156 70.843 38.0482 70.2664C40.4808 69.6899 41.2397 68.7785 41.9657 67.2826C43.1172 68.1553 43.8959 68.5802 45.8326 68.4215C47.7692 68.2628 50.5481 65.7623 50.2681 62.7455C49.9882 59.7288 49.1577 55.8148 47.1232 52.1862C45.0886 48.5576 43.1978 45.9226 40.0671 44.0954L38.3658 54.2618ZM69.9332 88.6972L60.628 84.2629C60.2541 86.5846 62.6288 92.5241 63.5855 94.3502C64.5422 96.1763 68.9176 101.653 70.6211 102.814C72.3246 103.975 75.3875 104.595 77.2545 102.933C79.1214 101.27 79.3565 100.108 79.2849 98.4464C80.7127 98.6676 81.5998 98.6717 83.2288 97.6123C84.8578 96.5529 86.1158 93.0327 84.4367 90.5108C82.7577 87.9888 80.1681 84.9388 76.6544 82.7117C73.1407 80.4846 70.2253 79.0637 66.6023 78.9425L69.9332 88.6972ZM58.7883 113.174L65.1462 121.287L66.5066 111.069C69.6967 112.791 71.6746 115.361 73.8293 118.92C75.984 122.478 76.9449 126.362 77.3256 129.368C77.7062 132.374 75.0126 134.966 73.0823 135.189C71.152 135.412 70.3595 135.014 69.1794 134.18C68.5039 135.699 67.7759 136.636 65.364 137.293C62.952 137.951 60.4854 136.032 59.477 134.234C58.4685 132.436 56.9891 125.584 56.9455 123.523C56.9018 121.462 57.4198 115.086 58.7883 113.174ZM88.3332 151.283L86.7578 141.096C84.6287 142.095 81.0576 147.402 80.0872 149.221C79.1169 151.039 77.0546 157.739 77.0544 159.801C77.0542 161.862 78.2665 164.743 80.6918 165.349C83.1171 165.956 84.2101 165.495 85.5427 164.501C86.1639 165.805 86.66 166.541 88.4528 167.29C90.2456 168.04 93.863 167.097 95.0016 164.29C96.1402 161.482 97.2024 157.625 97.0643 153.467C96.9261 149.309 96.4587 146.1 94.5188 143.037L88.3332 151.283ZM47.9843 151.645L49.3139 161.867L55.6962 153.772C57.5619 156.881 57.9518 160.1 57.9898 164.26C58.0277 168.42 56.8729 172.251 55.6669 175.03C54.461 177.81 50.822 178.665 49.0478 177.872C47.2736 177.08 46.7953 176.333 46.2057 175.013C44.8496 175.976 43.7458 176.41 41.3359 175.745C38.9259 175.08 37.7833 172.171 37.8331 170.11C37.883 168.049 40.1061 161.401 41.12 159.606C42.1338 157.811 45.8317 152.592 47.9843 151.645ZM63.9429 192.85L58.6065 184.031C57.0181 185.765 55.7373 192.032 55.5329 194.083C55.3284 196.135 55.9733 203.115 56.7582 205.021C57.5432 206.928 59.7612 209.129 62.2347 208.766C64.7082 208.403 65.5435 207.561 66.3968 206.134C67.4681 207.104 68.2069 207.595 70.15 207.605C72.0932 207.616 75.0789 205.366 75.0624 202.337C75.0459 199.307 74.5589 195.335 72.8476 191.544C71.1363 187.752 69.4819 184.962 66.5218 182.87L63.9429 192.85ZM93.8837 222.646L83.7206 224.366C84.7492 226.481 90.1066 229.976 91.9392 230.92C93.7717 231.865 100.5 233.831 102.562 233.802C104.623 233.773 107.486 232.519 108.058 230.086C108.63 227.652 108.154 226.566 107.14 225.247C108.436 224.608 109.164 224.101 109.888 222.298C110.612 220.495 109.617 216.891 106.794 215.793C103.97 214.694 100.098 213.687 95.9426 213.884C91.7873 214.082 88.5849 214.595 85.5507 216.579L93.8837 222.646ZM156.657 229.585L146.446 230.998C147.411 233.142 152.66 236.798 154.463 237.797C156.266 238.796 162.932 240.965 164.993 240.999C167.055 241.032 169.954 239.866 170.599 237.45C171.245 235.035 170.802 233.935 169.829 232.587C171.143 231.986 171.886 231.502 172.664 229.721C173.442 227.941 172.558 224.309 169.768 223.125C166.979 221.942 163.139 220.818 158.98 220.89C154.82 220.962 151.604 221.378 148.511 223.269L156.657 229.585ZM180.651 268.554L170.847 265.373C170.779 267.724 173.91 273.302 175.097 274.988C176.284 276.673 181.337 281.531 183.178 282.46C185.019 283.388 188.136 283.603 189.77 281.71C191.404 279.818 191.485 278.635 191.197 276.997C192.641 277.03 193.521 276.918 194.998 275.655C196.475 274.392 197.262 270.737 195.268 268.457C193.273 266.176 190.307 263.49 186.533 261.741C182.758 259.992 179.682 258.964 176.075 259.318L180.651 268.554ZM113.084 253.745L122.921 250.667L113.845 245.782C116.583 243.406 119.687 242.465 123.777 241.708C127.868 240.951 131.841 241.425 134.787 242.132C137.733 242.839 139.205 246.275 138.732 248.16C138.258 250.044 137.605 250.645 136.408 251.454C137.59 252.623 138.208 253.635 137.971 256.123C137.733 258.612 135.066 260.241 133.027 260.548C130.989 260.856 124.056 259.817 122.113 259.129C120.169 258.441 114.389 255.702 113.084 253.745ZM39.942 228.689L50.1079 230.394L44.2231 221.931C47.7398 221.052 50.9334 221.616 54.9241 222.791C58.9147 223.966 62.2432 226.187 64.551 228.15C66.8587 230.113 66.6172 233.843 65.3423 235.31C64.0674 236.776 63.2134 237.016 61.7798 237.196C62.3054 238.774 62.3991 239.956 61.0612 242.068C59.7234 244.18 56.6081 244.426 54.651 243.778C52.6939 243.13 46.9812 239.067 45.5592 237.575C44.1373 236.082 40.2209 231.024 39.942 228.689ZM19.4909 88.0915L28.7961 92.5258L25.4653 82.771C29.0882 82.8922 32.0036 84.3132 35.5173 86.5403C39.031 88.7674 41.6206 91.8174 43.2997 94.3393C44.9787 96.8612 43.7207 100.381 42.0917 101.441C40.4627 102.5 39.5756 102.496 38.1478 102.275C38.2194 103.936 37.9844 105.099 36.1174 106.761C34.2504 108.424 31.1875 107.804 29.484 106.643C27.7805 105.482 23.4051 100.005 22.4484 98.1788C21.4917 96.3527 19.117 90.4132 19.4909 88.0915Z" fill="#FFC898"/>
<path d="M28.7881 1.3145L29.6906 0.883761L29.1156 -0.321068L28.121 0.569549L28.7881 1.3145ZM33.2281 10.617L32.3257 11.0477L33.3487 13.1911L34.1669 10.9615L33.2281 10.617ZM24.7374 11.0146L23.757 10.8177L23.757 10.8177L24.7374 11.0146ZM24.8774 22.0201L23.9196 22.3077L23.9196 22.3077L24.8774 22.0201ZM29.9575 26.2871L29.9108 25.2882L29.9575 26.2871ZM34.3591 24.0788L35.1 23.4073L34.2813 22.5041L33.5556 23.4835L34.3591 24.0788ZM37.9488 25.9129L38.0527 24.9184L37.9488 25.9129ZM43.3571 21.1547L42.3615 21.0615L42.3615 21.0615L43.3571 21.1547ZM36.7794 0.940296L37.4344 0.184691L36.3397 -0.764277L35.8406 0.595774L36.7794 0.940296ZM8.83135 36.5553L7.92887 36.9861L8.95189 39.1295L9.77013 36.8999L8.83135 36.5553ZM4.39135 27.2528L5.29383 26.8221L4.71878 25.6173L3.72424 26.5079L4.39135 27.2528ZM12.3826 26.8786L13.0376 26.123L11.9429 25.1741L11.4438 26.5341L12.3826 26.8786ZM17.8215 36.1343L16.8739 36.4537L17.8215 36.1343ZM18.9603 47.0931L17.9647 46.9998L18.9603 47.0931ZM13.552 51.8513L13.656 50.8567L13.656 50.8567L13.552 51.8513ZM9.96227 50.0172L10.7032 49.3456L9.88455 48.4424L9.15882 49.4218L9.96227 50.0172ZM0.480602 47.9584L1.43834 47.6708L1.43834 47.6708L0.480602 47.9584ZM0.34065 36.9529L-0.639776 36.756L0.34065 36.9529ZM32.2827 45.9403L33.09 45.3502L32.3021 44.2724L31.4894 45.3315L32.2827 45.9403ZM38.3658 54.2618L37.5585 54.8519L38.9601 56.7692L39.3521 54.4268L38.3658 54.2618ZM32.2668 67.012L31.3788 67.4717L31.3788 67.4717L32.2668 67.012ZM38.0482 70.2664L37.8176 69.2934L37.8176 69.2934L38.0482 70.2664ZM41.9657 67.2826L42.5697 66.4856L41.5982 65.7493L41.066 66.846L41.9657 67.2826ZM50.2681 62.7455L51.2639 62.6531L50.2681 62.7455ZM40.0671 44.0954L40.5711 43.2317L39.3199 42.5014L39.0808 43.9303L40.0671 44.0954ZM60.628 84.2629L61.0582 83.3602L59.853 82.7859L59.6407 84.1039L60.628 84.2629ZM69.9332 88.6972L69.503 89.6L71.647 90.6217L70.8796 88.3741L69.9332 88.6972ZM70.6211 102.814L71.1843 101.988L71.1843 101.988L70.6211 102.814ZM77.2545 102.933L77.9195 103.68L77.2545 102.933ZM79.2849 98.4464L79.438 97.4582L78.2334 97.2716L78.2858 98.4894L79.2849 98.4464ZM83.2288 97.6123L82.6836 96.774L82.6836 96.774L83.2288 97.6123ZM84.4367 90.5108L83.6043 91.0649L83.6043 91.0649L84.4367 90.5108ZM66.6023 78.9425L66.6358 77.943L65.1878 77.8946L65.656 79.2656L66.6023 78.9425ZM65.1462 121.287L64.3591 121.904L65.824 123.773L66.1374 121.419L65.1462 121.287ZM58.7883 113.174L59.5754 112.557L58.7519 111.506L57.975 112.592L58.7883 113.174ZM66.5066 111.069L66.9815 110.189L65.7065 109.501L65.5153 110.937L66.5066 111.069ZM77.3256 129.368L78.3176 129.242L77.3256 129.368ZM69.1794 134.18L69.7565 133.363L68.7609 132.66L68.2657 133.774L69.1794 134.18ZM59.477 134.234L58.6048 134.723L58.6048 134.723L59.477 134.234ZM56.9455 123.523L57.9453 123.502L57.9453 123.502L56.9455 123.523ZM86.7578 141.096L87.7461 140.943L87.542 139.624L86.3333 140.191L86.7578 141.096ZM88.3332 151.283L87.345 151.436L87.708 153.783L89.1332 151.883L88.3332 151.283ZM80.0872 149.221L79.2049 148.75L79.2049 148.75L80.0872 149.221ZM80.6918 165.349L80.9345 164.379L80.9345 164.379L80.6918 165.349ZM85.5427 164.501L86.4455 164.071L85.9214 162.97L84.9445 163.7L85.5427 164.501ZM88.4528 167.29L88.067 168.213L88.4528 167.29ZM97.0643 153.467L96.0648 153.5L97.0643 153.467ZM94.5188 143.037L95.3635 142.502L94.5882 141.278L93.7188 142.437L94.5188 143.037ZM49.3139 161.867L48.3222 161.996L48.6286 164.351L50.0991 162.486L49.3139 161.867ZM47.9843 151.645L48.976 151.516L48.8038 150.192L47.5817 150.73L47.9843 151.645ZM55.6962 153.772L56.5536 153.258L55.808 152.016L54.911 153.153L55.6962 153.772ZM57.9898 164.26L56.9898 164.269L57.9898 164.26ZM55.6669 175.03L56.5843 175.428L55.6669 175.03ZM49.0478 177.872L48.6399 178.785L49.0478 177.872ZM46.2057 175.013L47.1186 174.605L46.6212 173.492L45.627 174.198L46.2057 175.013ZM37.8331 170.11L36.8334 170.086L37.8331 170.11ZM58.6065 184.031L59.4621 183.513L58.7709 182.371L57.8692 183.355L58.6065 184.031ZM63.9429 192.85L63.0873 193.368L64.3169 195.399L64.9111 193.1L63.9429 192.85ZM55.5329 194.083L56.5279 194.183L56.528 194.183L55.5329 194.083ZM56.7582 205.021L57.6829 204.641L57.6829 204.641L56.7582 205.021ZM66.3968 206.134L67.0678 205.393L66.1641 204.575L65.5385 205.621L66.3968 206.134ZM70.15 207.605L70.1553 206.605L70.15 207.605ZM75.0624 202.337L74.0624 202.342L75.0624 202.337ZM72.8476 191.544L73.7591 191.132L72.8476 191.544ZM66.5218 182.87L67.0991 182.053L65.9161 181.217L65.5536 182.62L66.5218 182.87ZM83.7206 224.366L83.5536 223.38L82.2373 223.603L82.8213 224.804L83.7206 224.366ZM93.8837 222.646L94.0506 223.632L96.3923 223.235L94.4723 221.837L93.8837 222.646ZM91.9392 230.92L91.4811 231.809L91.4811 231.809L91.9392 230.92ZM102.562 233.802L102.548 232.802L102.547 232.802L102.562 233.802ZM108.058 230.086L109.031 230.314L108.058 230.086ZM107.14 225.247L106.697 224.351L105.604 224.891L106.347 225.857L107.14 225.247ZM109.888 222.298L110.816 222.67L109.888 222.298ZM95.9426 213.884L95.8952 212.886L95.8952 212.886L95.9426 213.884ZM85.5507 216.579L85.0036 215.742L83.7909 216.534L84.9621 217.387L85.5507 216.579ZM146.446 230.998L146.309 230.007L144.987 230.19L145.534 231.408L146.446 230.998ZM156.657 229.585L156.794 230.576L159.147 230.25L157.27 228.795L156.657 229.585ZM164.993 240.999L165.01 239.999L164.993 240.999ZM170.599 237.45L171.565 237.708L170.599 237.45ZM169.829 232.587L169.413 231.677L168.304 232.183L169.018 233.172L169.829 232.587ZM172.664 229.721L171.748 229.321L172.664 229.721ZM169.768 223.125L170.159 222.205L170.159 222.205L169.768 223.125ZM158.98 220.89L158.963 219.89L158.98 220.89ZM148.511 223.269L147.99 222.415L146.754 223.171L147.898 224.059L148.511 223.269ZM170.847 265.373L171.155 264.422L169.885 264.01L169.847 265.345L170.847 265.373ZM180.651 268.554L180.343 269.505L182.602 270.238L181.547 268.11L180.651 268.554ZM183.178 282.46L183.628 281.567L183.178 282.46ZM189.77 281.71L189.013 281.057L189.013 281.057L189.77 281.71ZM191.197 276.997L191.219 275.998L190.001 275.97L190.212 277.171L191.197 276.997ZM194.998 275.655L194.348 274.895L194.348 274.895L194.998 275.655ZM195.268 268.457L194.515 269.115L194.515 269.115L195.268 268.457ZM186.533 261.741L186.953 260.834L186.533 261.741ZM176.075 259.318L175.977 258.322L174.535 258.464L175.179 259.762L176.075 259.318ZM122.921 250.667L123.22 251.622L125.487 250.912L123.395 249.787L122.921 250.667ZM113.084 253.745L112.785 252.791L111.511 253.19L112.252 254.3L113.084 253.745ZM113.845 245.782L113.19 245.026L112.095 245.976L113.371 246.662L113.845 245.782ZM134.787 242.132L134.554 243.105L134.554 243.105L134.787 242.132ZM138.732 248.16L139.701 248.403L139.701 248.403L138.732 248.16ZM136.408 251.454L135.848 250.625L134.838 251.308L135.705 252.165L136.408 251.454ZM137.971 256.123L136.975 256.028L137.971 256.123ZM133.027 260.548L133.176 261.537L133.027 260.548ZM122.113 259.129L121.779 260.071L121.779 260.071L122.113 259.129ZM50.1079 230.394L49.9425 231.38L52.2848 231.773L50.9289 229.823L50.1079 230.394ZM39.942 228.689L40.1074 227.703L38.7908 227.482L38.9491 228.808L39.942 228.689ZM44.2231 221.931L43.9804 220.961L42.575 221.313L43.4021 222.502L44.2231 221.931ZM64.551 228.15L63.9031 228.911L63.9031 228.911L64.551 228.15ZM61.7798 237.196L61.6552 236.204L60.4457 236.356L60.8311 237.512L61.7798 237.196ZM54.651 243.778L54.3367 244.727L54.3367 244.727L54.651 243.778ZM28.7961 92.5258L28.366 93.4285L30.51 94.4502L29.7425 92.2026L28.7961 92.5258ZM19.4909 88.0915L19.9211 87.1888L18.7159 86.6144L18.5036 87.9325L19.4909 88.0915ZM25.4653 82.771L25.4987 81.7716L24.0508 81.7232L24.5189 83.0942L25.4653 82.771ZM42.0917 101.441L41.5465 100.603L41.5465 100.603L42.0917 101.441ZM38.1478 102.275L38.3009 101.287L37.0963 101.1L37.1488 102.318L38.1478 102.275ZM36.1174 106.761L36.7824 107.508L36.7824 107.508L36.1174 106.761ZM29.484 106.643L30.0472 105.817L29.484 106.643ZM27.8857 1.74525L32.3257 11.0477L34.1306 10.1863L29.6906 0.883761L27.8857 1.74525ZM25.7179 11.2115C25.9078 10.2659 26.4651 8.28584 27.1941 6.34679C27.5573 5.38076 27.9548 4.44703 28.3599 3.67007C28.7779 2.86856 29.1571 2.32645 29.4553 2.05946L28.121 0.569549C27.5433 1.08695 27.0289 1.8969 26.5865 2.74542C26.1313 3.61849 25.7018 4.63276 25.322 5.643C24.5651 7.6565 23.973 9.74213 23.757 10.8177L25.7179 11.2115ZM25.8351 21.7324C25.7208 21.3518 25.6177 20.6384 25.5455 19.6768C25.475 18.7398 25.4385 17.6395 25.4328 16.5297C25.4212 14.2762 25.5372 12.1111 25.7179 11.2115L23.757 10.8177C23.5318 11.9393 23.4212 14.2897 23.4328 16.54C23.4387 17.6822 23.4762 18.8309 23.5511 19.8267C23.6241 20.7979 23.7375 21.7012 23.9196 22.3077L25.8351 21.7324ZM29.9108 25.2882C29.0127 25.3303 28.1426 24.9216 27.3899 24.2108C26.6344 23.4973 26.0816 22.5532 25.8351 21.7324L23.9196 22.3077C24.2661 23.4614 25.0048 24.7093 26.0168 25.6649C27.0316 26.6233 28.4051 27.3609 30.0043 27.286L29.9108 25.2882ZM33.5556 23.4835C33.0918 24.1094 32.7172 24.4987 32.2366 24.7667C31.7539 25.0358 31.0692 25.234 29.9108 25.2882L30.0043 27.286C31.3431 27.2234 32.3642 26.9854 33.2105 26.5136C34.0588 26.0406 34.6364 25.3842 35.1625 24.6742L33.5556 23.4835ZM38.0527 24.9184C37.1687 24.8259 36.6588 24.6603 36.2818 24.4491C35.8966 24.2334 35.5726 23.9286 35.1 23.4073L33.6181 24.7504C34.1159 25.2996 34.6204 25.8109 35.3043 26.194C35.9965 26.5817 36.7962 26.7979 37.8448 26.9075L38.0527 24.9184ZM42.3615 21.0615C42.2521 22.2295 41.5731 23.2383 40.6571 23.952C39.7167 24.6847 38.6862 24.9846 38.0527 24.9184L37.8448 26.9075C39.144 27.0433 40.6764 26.4723 41.8864 25.5296C43.1208 24.5678 44.1796 23.0965 44.3528 21.248L42.3615 21.0615ZM41.2707 10.5154C42.5411 14.2848 42.6356 18.135 42.3615 21.0615L44.3528 21.248C44.6438 18.1414 44.5528 13.9915 43.1659 9.87662L41.2707 10.5154ZM36.1244 1.6959C38.6565 3.89097 39.9575 6.61949 41.2707 10.5154L43.1659 9.87662C41.8216 5.88822 40.3804 2.73857 37.4344 0.184691L36.1244 1.6959ZM34.1669 10.9615L37.7182 1.28482L35.8406 0.595774L32.2893 10.2725L34.1669 10.9615ZM9.73382 36.1246L5.29383 26.8221L3.48888 27.6836L7.92887 36.9861L9.73382 36.1246ZM11.4438 26.5341L7.89257 36.2108L9.77013 36.8999L13.3214 27.2232L11.4438 26.5341ZM18.7691 35.815C17.4248 31.8266 15.9837 28.6769 13.0376 26.123L11.7276 27.6342C14.2597 29.8293 15.5607 32.5578 16.8739 36.4537L18.7691 35.815ZM19.956 47.1863C20.247 44.0798 20.156 39.9299 18.7691 35.815L16.8739 36.4537C18.1444 40.2232 18.2388 44.0733 17.9647 46.9998L19.956 47.1863ZM13.448 52.8458C14.7472 52.9816 16.2797 52.4107 17.4896 51.468C18.724 50.5062 19.7828 49.0348 19.956 47.1863L17.9647 46.9998C17.8553 48.1679 17.1763 49.1766 16.2603 49.8903C15.3199 50.6231 14.2894 50.9229 13.656 50.8567L13.448 52.8458ZM9.22134 50.6888C9.7191 51.2379 10.2236 51.7492 10.9075 52.1323C11.5997 52.5201 12.3994 52.7362 13.448 52.8458L13.656 50.8567C12.772 50.7643 12.262 50.5987 11.885 50.3875C11.4998 50.1717 11.1758 49.867 10.7032 49.3456L9.22134 50.6888ZM5.60753 53.2244C6.94634 53.1617 7.96741 52.9237 8.81371 52.4519C9.66201 51.9789 10.2396 51.3225 10.7657 50.6125L9.15882 49.4218C8.69497 50.0478 8.32046 50.4371 7.8398 50.705C7.35715 50.9741 6.67243 51.1723 5.51397 51.2266L5.60753 53.2244ZM-0.477134 48.2461C-0.130642 49.3997 0.608013 50.6476 1.61999 51.6033C2.63481 52.5616 4.00834 53.2993 5.60753 53.2244L5.51397 51.2266C4.61589 51.2686 3.74585 50.86 2.99317 50.1492C2.23764 49.4357 1.68485 48.4916 1.43834 47.6708L-0.477134 48.2461ZM-0.639776 36.756C-0.865008 37.8776 -0.975538 40.2281 -0.963948 42.4784C-0.958065 43.6205 -0.920542 44.7692 -0.845706 45.765C-0.772718 46.7362 -0.659304 47.6395 -0.477133 48.2461L1.43834 47.6708C1.32401 47.2901 1.22094 46.5768 1.14867 45.6152C1.07825 44.6781 1.04174 43.5779 1.03603 42.4681C1.02442 40.2145 1.14041 38.0494 1.32108 37.1498L-0.639776 36.756ZM3.72424 26.5079C3.14647 27.0253 2.63216 27.8352 2.18975 28.6837C1.73453 29.5568 1.30503 30.5711 0.925235 31.5813C0.168282 33.5948 -0.423779 35.6805 -0.639776 36.756L1.32108 37.1498C1.51097 36.2042 2.06835 34.2242 2.79731 32.2851C3.16048 31.3191 3.55806 30.3854 3.96316 29.6084C4.38107 28.8069 4.76032 28.2648 5.05847 27.9978L3.72424 26.5079ZM31.4754 46.5305L37.5585 54.8519L39.1731 53.6716L33.09 45.3502L31.4754 46.5305ZM31.0948 56.2343C31.1066 55.2699 31.2884 53.2209 31.6464 51.1806C31.8247 50.164 32.0428 49.1729 32.2973 48.3345C32.5599 47.4695 32.8324 46.8666 33.076 46.5491L31.4894 45.3315C31.0172 45.9468 30.6615 46.8379 30.3835 47.7536C30.0976 48.6957 29.863 49.7719 29.6765 50.835C29.3047 52.9537 29.1084 55.1128 29.095 56.2098L31.0948 56.2343ZM33.1549 66.5523C32.9722 66.1993 32.739 65.5173 32.4902 64.5856C32.2478 63.6777 32.0085 62.6032 31.7978 61.5136C31.3698 59.301 31.0836 57.1518 31.0948 56.2343L29.095 56.2098C29.0809 57.3537 29.4068 59.684 29.8342 61.8934C30.0511 63.0148 30.3003 64.1368 30.5579 65.1016C30.8092 66.0425 31.0876 66.9093 31.3788 67.4717L33.1549 66.5523ZM37.8176 69.2934C36.9427 69.5007 36.0122 69.2599 35.1411 68.7005C34.2667 68.139 33.5489 67.3133 33.1549 66.5523L31.3788 67.4717C31.9325 68.5415 32.8891 69.6313 34.0603 70.3834C35.2348 71.1376 36.721 71.6087 38.2788 71.2395L37.8176 69.2934ZM41.066 66.846C40.7259 67.5469 40.4297 67.9987 40.0069 68.3509C39.5823 68.7046 38.946 69.0259 37.8176 69.2934L38.2788 71.2395C39.583 70.9304 40.5425 70.5078 41.287 69.8876C42.0332 69.266 42.4795 68.5142 42.8653 67.7191L41.066 66.846ZM45.7509 67.4248C44.865 67.4974 44.3332 67.4289 43.9237 67.2911C43.5053 67.1502 43.1305 66.9106 42.5697 66.4856L41.3616 68.0795C41.9523 68.5272 42.5426 68.9364 43.2856 69.1865C44.0375 69.4396 44.8634 69.5042 45.9142 69.4181L45.7509 67.4248ZM49.2724 62.8379C49.3808 64.0061 48.9 65.1229 48.1317 65.9936C47.3429 66.8876 46.3857 67.3728 45.7509 67.4248L45.9142 69.4181C47.2161 69.3114 48.6166 68.467 49.6314 67.3169C50.6668 66.1435 51.4354 64.5018 51.2639 62.6531L49.2724 62.8379ZM46.2509 52.6753C48.1963 56.1449 49.0008 59.9112 49.2724 62.8379L51.2639 62.6531C50.9756 59.5463 50.1191 55.4847 47.9954 51.6971L46.2509 52.6753ZM39.563 44.959C42.4572 46.6482 44.2402 49.0892 46.2509 52.6753L47.9954 51.6971C45.937 48.026 43.9385 45.197 40.5711 43.2317L39.563 44.959ZM39.3521 54.4268L41.0533 44.2604L39.0808 43.9303L37.3795 54.0967L39.3521 54.4268ZM60.1978 85.1657L69.503 89.6L70.3634 87.7945L61.0582 83.3602L60.1978 85.1657ZM64.4713 93.8862C64.0237 93.0318 63.2106 91.1424 62.5566 89.1767C62.2308 88.1975 61.9521 87.2216 61.7779 86.3629C61.5981 85.477 61.5517 84.8171 61.6153 84.422L59.6407 84.1039C59.5174 84.8696 59.6275 85.8227 59.8178 86.7606C60.0136 87.7255 60.3182 88.784 60.6589 89.8081C61.338 91.8492 62.1906 93.8425 62.6997 94.8143L64.4713 93.8862ZM71.1843 101.988C70.8559 101.764 70.3268 101.275 69.6654 100.573C69.0209 99.8891 68.3 99.0571 67.5971 98.1983C66.1697 96.4544 64.8971 94.6989 64.4713 93.8862L62.6997 94.8143C63.2306 95.8276 64.6241 97.7237 66.0494 99.4651C66.7729 100.349 67.525 101.218 68.2099 101.945C68.8779 102.653 69.5346 103.284 70.0579 103.641L71.1843 101.988ZM76.5894 102.186C75.918 102.784 74.9847 103.014 73.9524 102.935C72.9162 102.856 71.8924 102.471 71.1843 101.988L70.0579 103.641C71.0533 104.319 72.4127 104.824 73.8005 104.93C75.1923 105.036 76.724 104.744 77.9195 103.68L76.5894 102.186ZM78.2858 98.4894C78.3194 99.2678 78.2734 99.806 78.0685 100.317C77.8628 100.83 77.4555 101.415 76.5894 102.186L77.9195 103.68C78.9204 102.788 79.5641 101.961 79.9248 101.061C80.2863 100.16 80.322 99.2862 80.284 98.4033L78.2858 98.4894ZM82.6836 96.774C81.9385 97.2585 81.438 97.4508 81.0121 97.524C80.577 97.5987 80.1334 97.5659 79.438 97.4582L79.1318 99.4346C79.8643 99.5481 80.5781 99.6279 81.3507 99.4951C82.1326 99.3608 82.8901 99.0254 83.774 98.4506L82.6836 96.774ZM83.6043 91.0649C84.2545 92.0415 84.3618 93.2527 84.0992 94.3838C83.8296 95.5452 83.2175 96.4267 82.6836 96.774L83.774 98.4506C84.869 97.7384 85.7005 96.3302 86.0474 94.8361C86.4013 93.3118 86.298 91.502 85.2691 89.9566L83.6043 91.0649ZM76.119 83.5563C79.4787 85.6858 81.9754 88.6183 83.6043 91.0649L85.2691 89.9566C83.54 87.3594 80.8574 84.1918 77.1897 81.8671L76.119 83.5563ZM66.5689 79.9419C69.9182 80.054 72.6465 81.3554 76.119 83.5563L77.1897 81.8671C73.6348 79.6139 70.5325 78.0734 66.6358 77.943L66.5689 79.9419ZM70.8796 88.3741L67.5487 78.6193L65.656 79.2656L68.9869 89.0204L70.8796 88.3741ZM65.9333 120.67L59.5754 112.557L58.0012 113.79L64.3591 121.904L65.9333 120.67ZM65.5153 110.937L64.1549 121.155L66.1374 121.419L67.4978 111.201L65.5153 110.937ZM74.6847 118.402C72.5047 114.801 70.4127 112.041 66.9815 110.189L66.0317 111.949C68.9808 113.541 70.8444 115.921 72.9739 119.438L74.6847 118.402ZM78.3176 129.242C77.9256 126.147 76.9338 122.116 74.6847 118.402L72.9739 119.438C75.0342 122.84 75.9642 126.578 76.3335 129.494L78.3176 129.242ZM73.1972 136.182C74.4948 136.032 75.8663 135.141 76.8421 133.958C77.8376 132.751 78.5509 131.084 78.3176 129.242L76.3335 129.494C76.4809 130.658 76.0377 131.79 75.299 132.686C74.5405 133.606 73.6 134.122 72.9673 134.196L73.1972 136.182ZM68.6024 134.997C69.2077 135.424 69.8114 135.814 70.5623 136.039C71.3223 136.267 72.1498 136.304 73.1972 136.182L72.9673 134.196C72.0844 134.298 71.5506 134.247 71.1367 134.123C70.7138 133.996 70.3312 133.769 69.7565 133.363L68.6024 134.997ZM65.627 138.258C66.9201 137.906 67.8649 137.451 68.5882 136.806C69.3133 136.16 69.7342 135.394 70.0932 134.586L68.2657 133.774C67.9492 134.486 67.6683 134.947 67.2575 135.313C66.845 135.681 66.2198 136.023 65.1009 136.328L65.627 138.258ZM58.6048 134.723C59.194 135.774 60.1865 136.831 61.3822 137.544C62.5813 138.258 64.0824 138.679 65.627 138.258L65.1009 136.328C64.2335 136.565 63.2954 136.355 62.4061 135.825C61.5134 135.293 60.7684 134.492 60.3492 133.745L58.6048 134.723ZM55.9457 123.544C55.9699 124.688 56.3735 127.006 56.8745 129.2C57.1288 130.313 57.4154 131.426 57.7052 132.382C57.9877 133.314 58.295 134.171 58.6048 134.723L60.3492 133.745C60.1547 133.398 59.8989 132.724 59.6191 131.801C59.3465 130.902 59.0714 129.836 58.8243 128.754C58.3226 126.557 57.9647 124.419 57.9453 123.502L55.9457 123.544ZM57.975 112.592C57.5237 113.222 57.198 114.125 56.9508 115.049C56.6965 116 56.498 117.084 56.3471 118.153C56.0465 120.283 55.9225 122.447 55.9457 123.544L57.9453 123.502C57.9248 122.537 58.038 120.483 58.3275 118.432C58.4718 117.41 58.6566 116.412 58.8829 115.566C59.1164 114.693 59.3686 114.081 59.6015 113.756L57.975 112.592ZM85.7696 141.249L87.345 151.436L89.3215 151.13L87.7461 140.943L85.7696 141.249ZM80.9695 149.691C81.4235 148.84 82.5271 147.104 83.7832 145.457C84.4089 144.636 85.0584 143.857 85.6699 143.229C86.3008 142.582 86.82 142.172 87.1824 142.002L86.3333 140.191C85.6311 140.52 84.9055 141.148 84.2376 141.833C83.5504 142.538 82.8472 143.386 82.1928 144.244C80.8884 145.955 79.7213 147.782 79.2049 148.75L80.9695 149.691ZM78.0544 159.801C78.0545 159.403 78.161 158.691 78.3685 157.749C78.5707 156.831 78.8523 155.767 79.1662 154.703C79.8035 152.541 80.5376 150.501 80.9695 149.691L79.2049 148.75C78.6665 149.759 77.8843 151.978 77.2479 154.137C76.9248 155.232 76.6302 156.343 76.4154 157.319C76.2058 158.27 76.0545 159.167 76.0544 159.801L78.0544 159.801ZM80.9345 164.379C80.0623 164.161 79.3466 163.519 78.8303 162.622C78.3121 161.721 78.0543 160.658 78.0544 159.801L76.0544 159.801C76.0543 161.005 76.4026 162.413 77.0968 163.619C77.7929 164.829 78.8961 165.931 80.4492 166.319L80.9345 164.379ZM84.9445 163.7C84.3201 164.166 83.8495 164.431 83.312 164.549C82.7723 164.668 82.0596 164.661 80.9345 164.379L80.4492 166.319C81.7494 166.645 82.7958 166.71 83.7421 166.502C84.6906 166.293 85.4326 165.831 86.1408 165.302L84.9445 163.7ZM88.8385 166.368C88.0185 166.025 87.5778 165.72 87.2775 165.409C86.9707 165.091 86.7481 164.706 86.4455 164.071L84.6398 164.931C84.9585 165.6 85.2945 166.235 85.8393 166.799C86.3906 167.369 87.0943 167.806 88.067 168.213L88.8385 166.368ZM94.0749 163.914C93.634 165.001 92.6934 165.772 91.6108 166.192C90.4993 166.623 89.4262 166.613 88.8385 166.368L88.067 168.213C89.2722 168.717 90.9041 168.611 92.3341 168.056C93.7931 167.49 95.2305 166.386 95.9283 164.666L94.0749 163.914ZM96.0648 153.5C96.1969 157.476 95.1795 161.19 94.0749 163.914L95.9283 164.666C97.1009 161.774 98.2079 157.773 98.0637 153.434L96.0648 153.5ZM93.674 143.573C95.4674 146.403 95.9283 149.391 96.0648 153.5L98.0637 153.434C97.924 149.227 97.45 145.796 95.3635 142.502L93.674 143.573ZM89.1332 151.883L95.3187 143.638L93.7188 142.437L87.5333 150.683L89.1332 151.883ZM50.3055 161.738L48.976 151.516L46.9927 151.774L48.3222 161.996L50.3055 161.738ZM54.911 153.153L48.5286 161.247L50.0991 162.486L56.4815 154.392L54.911 153.153ZM58.9897 164.251C58.9513 160.042 58.5602 156.601 56.5536 153.258L54.8389 154.287C56.5635 157.16 56.9523 160.158 56.9898 164.269L58.9897 164.251ZM56.5843 175.428C57.8262 172.566 59.0293 168.593 58.9897 164.251L56.9898 164.269C57.0261 168.247 55.9195 171.936 54.7496 174.632L56.5843 175.428ZM48.6399 178.785C49.8326 179.318 51.4666 179.251 52.9095 178.731C54.3817 178.201 55.8454 177.131 56.5843 175.428L54.7496 174.632C54.2826 175.708 53.3238 176.456 52.2314 176.85C51.1098 177.254 50.0372 177.219 49.4556 176.959L48.6399 178.785ZM45.2928 175.422C45.5952 176.098 45.9159 176.741 46.4469 177.318C46.9843 177.901 47.6772 178.355 48.6399 178.785L49.4556 176.959C48.6441 176.597 48.2109 176.281 47.9182 175.963C47.6191 175.638 47.4058 175.248 47.1186 174.605L45.2928 175.422ZM41.0699 176.709C42.3619 177.065 43.4064 177.156 44.3574 176.971C45.3107 176.785 46.0637 176.34 46.7844 175.829L45.627 174.198C44.9916 174.649 44.5147 174.902 43.9745 175.008C43.4322 175.114 42.7198 175.089 41.6018 174.781L41.0699 176.709ZM36.8334 170.086C36.8043 171.29 37.1186 172.706 37.7835 173.929C38.4503 175.155 39.5266 176.283 41.0699 176.709L41.6018 174.781C40.7351 174.542 40.0351 173.883 39.5406 172.973C39.0442 172.06 38.8121 170.991 38.8328 170.134L36.8334 170.086ZM40.2492 159.114C39.6866 160.11 38.8512 162.31 38.163 164.453C37.8137 165.54 37.4924 166.644 37.2541 167.613C37.0216 168.559 36.8488 169.453 36.8334 170.086L38.8328 170.134C38.8425 169.737 38.9662 169.027 39.1963 168.091C39.4205 167.178 39.7277 166.121 40.0671 165.064C40.7564 162.919 41.5394 160.897 41.9907 160.098L40.2492 159.114ZM47.5817 150.73C46.8718 151.042 46.1312 151.652 45.4471 152.321C44.7431 153.009 44.0197 153.84 43.3448 154.682C41.9996 156.361 40.7888 158.159 40.2492 159.114L41.9907 160.098C42.465 159.258 43.61 157.549 44.9055 155.933C45.5508 155.127 46.2189 154.363 46.8454 153.751C47.4916 153.119 48.0206 152.721 48.3869 152.56L47.5817 150.73ZM57.751 184.549L63.0873 193.368L64.7984 192.332L59.4621 183.513L57.751 184.549ZM56.528 194.183C56.6236 193.223 56.9828 191.197 57.5169 189.196C57.783 188.199 58.0864 187.23 58.4129 186.417C58.7497 185.578 59.0736 185.002 59.3439 184.706L57.8692 183.355C57.3453 183.927 56.9134 184.784 56.5569 185.672C56.1901 186.586 55.8627 187.638 55.5845 188.68C55.0299 190.759 54.6466 192.893 54.5378 193.984L56.528 194.183ZM57.6829 204.641C57.5316 204.273 57.3586 203.573 57.1918 202.624C57.0292 201.698 56.8843 200.607 56.7691 199.503C56.5352 197.262 56.4369 195.096 56.5279 194.183L54.5378 193.984C54.4244 195.123 54.5463 197.472 54.7799 199.711C54.8985 200.847 55.0492 201.986 55.2219 202.97C55.3904 203.929 55.5924 204.817 55.8336 205.402L57.6829 204.641ZM62.0896 207.777C61.2 207.907 60.2939 207.587 59.4747 206.953C58.6525 206.318 58.0092 205.433 57.6829 204.641L55.8336 205.402C56.2922 206.516 57.1504 207.685 58.2518 208.536C59.3562 209.389 60.7958 209.988 62.3798 209.756L62.0896 207.777ZM65.5385 205.621C65.1387 206.29 64.8044 206.714 64.3526 207.028C63.8988 207.344 63.237 207.609 62.0896 207.777L62.3798 209.756C63.7059 209.561 64.6985 209.224 65.4941 208.671C66.2916 208.116 66.8016 207.406 67.2551 206.648L65.5385 205.621ZM70.1553 206.605C69.2665 206.601 68.7427 206.486 68.3467 206.313C67.9421 206.136 67.5896 205.865 67.0678 205.393L65.7258 206.876C66.2753 207.373 66.8278 207.832 67.5462 208.146C68.2732 208.463 69.0903 208.6 70.1447 208.605L70.1553 206.605ZM74.0624 202.342C74.0688 203.515 73.4927 204.586 72.6516 205.387C71.788 206.209 70.7922 206.609 70.1553 206.605L70.1447 208.605C71.4509 208.612 72.9196 207.893 74.0305 206.835C75.164 205.756 76.0725 204.188 76.0624 202.331L74.0624 202.342ZM71.9361 191.955C73.5724 195.581 74.0464 199.403 74.0624 202.342L76.0624 202.331C76.0454 199.211 75.5453 195.09 73.7591 191.132L71.9361 191.955ZM65.9446 183.686C68.681 185.621 70.2449 188.208 71.9361 191.955L73.7591 191.132C72.0277 187.296 70.2828 184.304 67.0991 182.053L65.9446 183.686ZM64.9111 193.1L67.49 183.12L65.5536 182.62L62.9747 192.6L64.9111 193.1ZM83.8875 225.352L94.0506 223.632L93.7168 221.66L83.5536 223.38L83.8875 225.352ZM92.3972 230.031C91.5398 229.59 89.7884 228.511 88.1233 227.279C87.2938 226.665 86.5048 226.026 85.8686 225.424C85.2123 224.802 84.7949 224.289 84.6198 223.929L82.8213 224.804C83.1605 225.501 83.7985 226.218 84.4933 226.876C85.2082 227.553 86.0659 228.244 86.9334 228.886C88.6624 230.166 90.5059 231.307 91.4811 231.809L92.3972 230.031ZM102.547 232.802C102.15 232.808 101.436 232.711 100.491 232.517C99.5707 232.328 98.5026 232.062 97.4337 231.763C95.2633 231.157 93.2129 230.452 92.3972 230.031L91.4811 231.809C92.498 232.333 94.7282 233.084 96.8955 233.689C97.9955 233.997 99.1106 234.275 100.089 234.476C101.043 234.672 101.943 234.811 102.576 234.802L102.547 232.802ZM107.084 229.857C106.878 230.732 106.247 231.457 105.357 231.986C104.464 232.517 103.404 232.79 102.548 232.802L102.576 234.802C103.78 234.785 105.183 234.416 106.379 233.705C107.579 232.992 108.665 231.873 109.031 230.314L107.084 229.857ZM106.347 225.857C106.822 226.475 107.094 226.941 107.22 227.477C107.346 228.015 107.349 228.728 107.084 229.857L109.031 230.314C109.338 229.01 109.389 227.962 109.167 227.019C108.944 226.074 108.471 225.338 107.933 224.638L106.347 225.857ZM108.96 221.925C108.629 222.75 108.33 223.195 108.023 223.5C107.71 223.811 107.328 224.039 106.697 224.351L107.583 226.144C108.247 225.816 108.877 225.471 109.433 224.918C109.996 224.359 110.423 223.649 110.816 222.67L108.96 221.925ZM106.431 216.724C107.525 217.15 108.309 218.079 108.744 219.156C109.191 220.261 109.197 221.334 108.96 221.925L110.816 222.67C111.302 221.458 111.173 219.828 110.598 218.406C110.012 216.955 108.887 215.534 107.156 214.861L106.431 216.724ZM95.9901 214.883C99.9634 214.695 103.692 215.659 106.431 216.724L107.156 214.861C104.249 213.729 100.233 212.679 95.8952 212.886L95.9901 214.883ZM86.0979 217.416C88.9029 215.582 91.8835 215.078 95.9901 214.883L95.8952 212.886C91.6911 213.085 88.267 213.608 85.0036 215.742L86.0979 217.416ZM94.4723 221.837L86.1393 215.77L84.9621 217.387L93.2951 223.454L94.4723 221.837ZM146.583 231.988L156.794 230.576L156.52 228.595L146.309 230.007L146.583 231.988ZM154.948 236.922C154.104 236.455 152.386 235.324 150.759 234.042C149.948 233.403 149.179 232.741 148.561 232.119C147.924 231.478 147.523 230.953 147.358 230.588L145.534 231.408C145.852 232.115 146.468 232.851 147.143 233.529C147.837 234.228 148.673 234.944 149.521 235.612C151.211 236.944 153.019 238.14 153.978 238.672L154.948 236.922ZM165.01 239.999C164.612 239.992 163.901 239.874 162.963 239.652C162.048 239.435 160.989 239.136 159.93 238.806C157.778 238.134 155.75 237.367 154.948 236.922L153.978 238.672C154.979 239.226 157.185 240.044 159.333 240.715C160.424 241.055 161.53 241.367 162.501 241.598C163.449 241.823 164.344 241.988 164.977 241.998L165.01 239.999ZM169.633 237.192C169.401 238.061 168.748 238.766 167.843 239.268C166.934 239.772 165.866 240.013 165.01 239.999L164.977 241.998C166.182 242.018 167.595 241.692 168.812 241.017C170.033 240.34 171.152 239.255 171.565 237.708L169.633 237.192ZM169.018 233.172C169.474 233.804 169.731 234.278 169.841 234.818C169.951 235.359 169.933 236.072 169.633 237.192L171.565 237.708C171.911 236.414 171.994 235.368 171.801 234.419C171.607 233.467 171.157 232.718 170.639 232.001L169.018 233.172ZM171.748 229.321C171.392 230.135 171.08 230.571 170.764 230.866C170.442 231.168 170.053 231.385 169.413 231.677L170.244 233.496C170.918 233.188 171.558 232.862 172.131 232.327C172.71 231.785 173.158 231.088 173.58 230.122L171.748 229.321ZM169.378 224.046C170.458 224.504 171.213 225.457 171.616 226.546C172.029 227.664 172.003 228.737 171.748 229.321L173.58 230.122C174.104 228.925 174.024 227.291 173.492 225.853C172.949 224.385 171.868 222.93 170.159 222.205L169.378 224.046ZM158.997 221.89C162.974 221.821 166.672 222.898 169.378 224.046L170.159 222.205C167.287 220.986 163.304 219.815 158.963 219.89L158.997 221.89ZM149.033 224.122C151.892 222.374 154.886 221.961 158.997 221.89L158.963 219.89C154.754 219.963 151.316 220.382 147.99 222.415L149.033 224.122ZM157.27 228.795L149.124 222.478L147.898 224.059L156.044 230.375L157.27 228.795ZM170.538 266.324L180.343 269.505L180.96 267.602L171.155 264.422L170.538 266.324ZM175.914 274.412C175.359 273.623 174.306 271.856 173.401 269.993C172.95 269.065 172.546 268.133 172.261 267.305C171.967 266.45 171.835 265.802 171.846 265.402L169.847 265.345C169.825 266.12 170.059 267.05 170.37 267.955C170.69 268.886 171.13 269.896 171.602 270.867C172.542 272.802 173.647 274.666 174.279 275.563L175.914 274.412ZM183.628 281.567C183.274 281.388 182.685 280.972 181.938 280.362C181.209 279.769 180.386 279.038 179.577 278.278C177.934 276.736 176.443 275.162 175.914 274.412L174.279 275.563C174.938 276.499 176.567 278.196 178.208 279.737C179.041 280.518 179.9 281.282 180.674 281.913C181.429 282.528 182.162 283.067 182.728 283.353L183.628 281.567ZM189.013 281.057C188.426 281.738 187.53 282.088 186.497 282.144C185.459 282.202 184.394 281.953 183.628 281.567L182.728 283.353C183.803 283.895 185.217 284.218 186.607 284.141C188 284.065 189.481 283.576 190.527 282.364L189.013 281.057ZM190.212 277.171C190.347 277.938 190.372 278.477 190.235 279.011C190.098 279.546 189.771 280.179 189.013 281.057L190.527 282.364C191.403 281.349 191.933 280.445 192.173 279.506C192.414 278.565 192.335 277.694 192.182 276.824L190.212 277.171ZM194.348 274.895C193.672 275.473 193.201 275.729 192.789 275.857C192.367 275.988 191.923 276.013 191.219 275.998L191.174 277.997C191.915 278.014 192.633 278 193.382 277.767C194.14 277.532 194.847 277.1 195.648 276.415L194.348 274.895ZM194.515 269.115C195.287 269.998 195.552 271.185 195.439 272.34C195.323 273.527 194.832 274.481 194.348 274.895L195.648 276.415C196.641 275.566 197.281 274.061 197.43 272.534C197.581 270.977 197.242 269.196 196.02 267.798L194.515 269.115ZM186.112 262.649C189.722 264.321 192.58 266.902 194.515 269.115L196.02 267.798C193.967 265.449 190.893 262.659 186.953 260.834L186.112 262.649ZM176.172 260.313C179.507 259.986 182.382 260.92 186.112 262.649L186.953 260.834C183.134 259.064 179.857 257.943 175.977 258.322L176.172 260.313ZM181.547 268.11L176.971 258.874L175.179 259.762L179.755 268.998L181.547 268.11ZM122.623 249.713L112.785 252.791L113.383 254.7L123.22 251.622L122.623 249.713ZM113.371 246.662L122.447 251.548L123.395 249.787L114.319 244.901L113.371 246.662ZM123.595 240.725C119.457 241.491 116.135 242.472 113.19 245.026L114.5 246.537C117.032 244.341 119.917 243.44 123.959 242.691L123.595 240.725ZM135.02 241.16C131.986 240.432 127.865 239.934 123.595 240.725L123.959 242.691C127.871 241.967 131.695 242.419 134.554 243.105L135.02 241.16ZM139.701 248.403C140.02 247.137 139.671 245.539 138.91 244.207C138.132 242.849 136.826 241.593 135.02 241.16L134.554 243.105C135.694 243.378 136.597 244.193 137.174 245.201C137.766 246.236 137.917 247.298 137.762 247.916L139.701 248.403ZM136.968 252.282C137.582 251.867 138.159 251.44 138.635 250.817C139.117 250.187 139.444 249.426 139.701 248.403L137.762 247.916C137.545 248.778 137.309 249.259 137.046 249.603C136.778 249.953 136.431 250.231 135.848 250.625L136.968 252.282ZM138.966 256.219C139.094 254.884 139.003 253.84 138.655 252.935C138.307 252.029 137.739 251.364 137.111 250.743L135.705 252.165C136.259 252.712 136.591 253.138 136.788 253.652C136.986 254.168 137.085 254.874 136.975 256.028L138.966 256.219ZM133.176 261.537C134.368 261.357 135.707 260.803 136.797 259.936C137.889 259.067 138.814 257.812 138.966 256.219L136.975 256.028C136.89 256.923 136.362 257.727 135.552 258.371C134.738 259.018 133.726 259.432 132.878 259.559L133.176 261.537ZM121.779 260.071C122.857 260.453 125.169 260.895 127.398 261.202C128.529 261.358 129.672 261.484 130.668 261.551C131.64 261.616 132.55 261.632 133.176 261.537L132.878 259.559C132.485 259.619 131.764 259.62 130.802 259.555C129.865 259.492 128.77 259.373 127.671 259.221C125.438 258.914 123.312 258.492 122.447 258.186L121.779 260.071ZM112.252 254.3C112.682 254.946 113.411 255.569 114.189 256.127C114.989 256.702 115.932 257.27 116.878 257.789C118.764 258.824 120.745 259.705 121.779 260.071L122.447 258.186C121.537 257.864 119.656 257.032 117.84 256.036C116.935 255.54 116.067 255.014 115.355 254.503C114.621 253.976 114.138 253.523 113.916 253.191L112.252 254.3ZM50.2733 229.408L40.1074 227.703L39.7767 229.676L49.9425 231.38L50.2733 229.408ZM43.4021 222.502L49.2869 230.965L50.9289 229.823L45.0441 221.36L43.4021 222.502ZM55.2065 221.832C51.1691 220.643 47.7628 220.015 43.9804 220.961L44.4658 222.901C47.7167 222.088 50.6978 222.589 54.6416 223.751L55.2065 221.832ZM65.1989 227.388C62.8223 225.366 59.3721 223.059 55.2065 221.832L54.6416 223.751C58.4574 224.874 61.6642 227.007 63.9031 228.911L65.1989 227.388ZM66.097 235.966C66.954 234.98 67.3662 233.397 67.2889 231.865C67.21 230.303 66.613 228.591 65.1989 227.388L63.9031 228.911C64.7967 229.672 65.2329 230.807 65.2914 231.966C65.3515 233.157 65.0055 234.173 64.5876 234.654L66.097 235.966ZM61.9044 238.188C62.6398 238.096 63.348 237.976 64.0544 237.636C64.7692 237.292 65.4052 236.761 66.097 235.966L64.5876 234.654C64.0045 235.324 63.5761 235.647 63.1868 235.834C62.789 236.026 62.3534 236.116 61.6552 236.204L61.9044 238.188ZM61.906 242.603C62.6232 241.471 63.0145 240.498 63.114 239.534C63.2137 238.568 63.0079 237.718 62.7285 236.88L60.8311 237.512C61.0773 238.251 61.1811 238.781 61.1246 239.329C61.0679 239.879 60.8371 240.553 60.2165 241.533L61.906 242.603ZM54.3367 244.727C55.4803 245.106 56.9261 245.217 58.2895 244.937C59.6568 244.657 61.0493 243.955 61.906 242.603L60.2165 241.533C59.7353 242.292 58.9013 242.77 57.8872 242.978C56.8692 243.187 55.7788 243.098 54.9653 242.829L54.3367 244.727ZM44.8352 238.264C45.6242 239.093 47.4854 240.533 49.3346 241.815C50.2732 242.466 51.2353 243.094 52.0936 243.605C52.9308 244.103 53.7355 244.528 54.3367 244.727L54.9653 242.829C54.5879 242.704 53.9447 242.379 53.1158 241.886C52.3081 241.405 51.3863 240.804 50.4743 240.171C48.6224 238.887 46.9162 237.549 46.2833 236.885L44.8352 238.264ZM38.9491 228.808C39.0411 229.578 39.409 230.464 39.8498 231.314C40.3034 232.188 40.8873 233.121 41.4965 234.012C42.7106 235.788 44.0785 237.47 44.8352 238.264L46.2833 236.885C45.618 236.187 44.3167 234.594 43.1475 232.884C42.5649 232.032 42.0286 231.17 41.625 230.392C41.2086 229.59 40.9825 228.968 40.935 228.571L38.9491 228.808ZM29.2263 91.623L19.9211 87.1888L19.0607 88.9942L28.366 93.4285L29.2263 91.623ZM24.5189 83.0942L27.8498 92.8489L29.7425 92.2026L26.4116 82.4479L24.5189 83.0942ZM36.0526 85.6956C32.4977 83.4424 29.3954 81.902 25.4987 81.7716L25.4318 83.7705C28.7811 83.8825 31.5094 85.1839 34.9819 87.3849L36.0526 85.6956ZM44.1321 93.7851C42.4029 91.1879 39.7203 88.0203 36.0526 85.6956L34.9819 87.3849C38.3417 89.5144 40.8384 92.4468 42.4673 94.8935L44.1321 93.7851ZM42.6369 102.279C43.7319 101.567 44.5634 100.159 44.9103 98.6647C45.2642 97.1403 45.1609 95.3305 44.1321 93.7851L42.4673 94.8935C43.1174 95.87 43.2247 97.0813 42.9621 98.2124C42.6925 99.3737 42.0805 100.255 41.5465 100.603L42.6369 102.279ZM37.9948 103.263C38.7272 103.377 39.441 103.456 40.2137 103.324C40.9955 103.189 41.753 102.854 42.6369 102.279L41.5465 100.603C40.8014 101.087 40.3009 101.279 39.875 101.353C39.4399 101.427 38.9963 101.394 38.3009 101.287L37.9948 103.263ZM36.7824 107.508C37.7833 106.617 38.427 105.789 38.7877 104.89C39.1492 103.988 39.1849 103.115 39.1469 102.232L37.1488 102.318C37.1823 103.096 37.1363 103.635 36.9314 104.145C36.7257 104.658 36.3184 105.243 35.4523 106.015L36.7824 107.508ZM28.9208 107.469C29.9162 108.148 31.2756 108.652 32.6635 108.758C34.0552 108.864 35.5869 108.573 36.7824 107.508L35.4523 106.015C34.7809 106.612 33.8476 106.842 32.8153 106.764C31.7791 106.685 30.7554 106.299 30.0472 105.817L28.9208 107.469ZM21.5626 98.6429C22.0935 99.6562 23.487 101.552 24.9123 103.294C25.6358 104.177 26.3879 105.046 27.0728 105.773C27.7408 106.482 28.3975 107.113 28.9208 107.469L30.0472 105.817C29.7188 105.593 29.1897 105.103 28.5283 104.401C27.8838 103.718 27.1629 102.886 26.46 102.027C25.0326 100.283 23.76 98.5275 23.3342 97.7147L21.5626 98.6429ZM18.5036 87.9325C18.3803 88.6982 18.4904 89.6513 18.6807 90.5891C18.8765 91.5541 19.1811 92.6126 19.5218 93.6367C20.2009 95.6777 21.0535 97.6711 21.5626 98.6429L23.3342 97.7147C22.8866 96.8604 22.0735 94.9709 21.4195 93.0053C21.0937 92.026 20.815 91.0502 20.6408 90.1915C20.4611 89.3056 20.4146 88.6456 20.4782 88.2505L18.5036 87.9325Z" fill="#FFC898" mask="url(#path-1-inside-1_213_14601)"/>
</svg>
