<svg width="169" height="64" viewBox="0 0 169 64" fill="none" xmlns="http://www.w3.org/2000/svg">
<path fill-rule="evenodd" clip-rule="evenodd" d="M158.34 16.1586C158.735 14.7456 159.26 14.2923 160.78 14.1637C162.299 14.0352 164.45 13.9249 165.321 14.606C166.193 15.2871 167.565 15.9947 167.565 15.9947C167.565 15.9947 164.911 19.0229 163.841 19.3009L163.709 19.3354C162.613 19.6228 160.731 20.1165 159.523 18.9052C159.354 18.7355 159.216 18.602 159.103 18.4927C158.833 18.2318 158.705 18.1081 158.634 17.9576C158.57 17.822 158.551 17.6645 158.516 17.3652C158.484 17.1011 158.44 16.7264 158.34 16.1586ZM160.3 12.0064C158.78 12.1397 158.186 11.7828 157.555 10.4583C157.556 9.88171 157.536 9.50497 157.521 9.23937C157.505 8.93841 157.497 8.78013 157.537 8.63546C157.581 8.47503 157.686 8.33132 157.907 8.02835L157.907 8.02818L157.907 8.02806C158 7.90096 158.113 7.74583 158.251 7.5497C159.233 6.14967 161.173 6.31409 162.301 6.4098L162.437 6.42121C163.539 6.51204 166.672 9.04151 166.672 9.04151C166.672 9.04151 165.441 9.97347 164.699 10.7936C163.957 11.6138 161.819 11.873 160.3 12.0064ZM155.719 7.90882C157.188 6.1885 158.159 5.54551 159.966 4.57083C159.352 3.2214 154.331 2.04263 152.806 2.6176C151.28 3.19257 151.118 4.95107 151.047 5.76293C150.979 6.53477 151.793 7.86043 152.733 8.14001C154.042 8.54024 154.727 8.60211 155.719 7.90882ZM161.266 21.3592C159.33 20.6743 158.272 20.1884 156.555 18.7147C155.469 18.1824 154.801 18.349 153.569 18.9459C152.684 19.3668 152.083 20.802 152.269 21.5542C152.465 22.3454 152.896 24.0579 154.492 24.3913C156.087 24.7246 160.866 22.7871 161.266 21.3592ZM154.951 11.0383C156.025 11.9581 156.179 13.9522 155.298 15.5249C154.923 16.1936 154.112 16.6793 153.154 17.2527C151.859 18.028 150.296 18.9637 149.182 20.729C148.512 21.7902 147.276 22.0218 145.742 21.6391C144.207 21.2563 143.919 18.6703 145.117 16.8146C145.873 14.7982 145.741 13.7091 144.731 11.8295C143.344 9.97918 143.426 7.91863 144.345 6.84446C145.265 5.77028 146.728 5.95973 147.835 6.57429C149.598 8.40058 151.65 9.35646 153.155 10.0579C153.943 10.425 154.582 10.7224 154.951 11.0383ZM112.785 43.0476C111.283 42.7832 110.66 43.0874 109.916 44.3522C109.868 44.9268 109.815 45.3003 109.777 45.5637C109.735 45.8621 109.713 46.0191 109.74 46.1667C109.771 46.3304 109.863 46.4827 110.057 46.8038C110.138 46.9385 110.237 47.1028 110.358 47.3102C111.215 48.79 113.162 48.794 114.294 48.7964L114.431 48.7968C115.537 48.8017 118.877 46.5529 118.877 46.5529C118.877 46.5529 117.731 45.5179 117.063 44.6365C116.394 43.7552 114.287 43.3119 112.785 43.0476ZM110.615 38.6407C110.886 40.0826 111.37 40.5796 112.873 40.8392C114.376 41.0989 116.508 41.3949 117.436 40.7917C118.363 40.1886 119.792 39.6025 119.792 39.6025C119.792 39.6025 117.409 36.356 116.367 35.9863L116.239 35.9405C115.172 35.5594 113.339 34.9046 112.031 36.0068C111.848 36.1612 111.699 36.2823 111.577 36.3814C111.286 36.618 111.148 36.7302 111.063 36.8739C110.988 37.0034 110.955 37.1586 110.894 37.4535L110.894 37.4538C110.84 37.7143 110.764 38.0837 110.615 38.6407ZM114.452 33.5657C112.455 34.0458 111.352 34.4192 109.492 35.7066C108.356 36.1232 107.709 35.8882 106.546 35.1665C105.709 34.656 105.26 33.1661 105.524 32.4373C105.8 31.6708 106.407 30.0122 108.028 29.8464C109.65 29.6806 114.202 32.1039 114.452 33.5657ZM107.537 46.3672C108.82 48.2308 109.719 48.9711 111.415 50.1282C110.664 51.4065 105.548 52.0575 104.091 51.3273C102.633 50.597 102.655 48.8311 102.668 48.0162C102.68 47.2415 103.628 46.0076 104.591 45.8271C105.935 45.565 106.623 45.5746 107.537 46.3672ZM107.137 42.9619C108.392 41.6667 108.752 39.6995 107.949 38.5356C107.673 38.1358 107.132 37.685 106.464 37.1287C105.188 36.0655 103.448 34.6168 102.211 32.4005C101.298 31.5232 99.9324 30.9661 98.7685 31.7693C97.6046 32.5726 96.9986 34.5437 97.8669 36.6874C98.3622 38.7626 98.2114 39.8492 96.9653 41.6054C95.3322 43.093 94.95 45.6668 96.3353 46.4291C97.7205 47.1914 98.9745 47.2836 99.8936 46.429C101.423 45.0073 103.173 44.5024 104.623 44.084C105.696 43.7746 106.604 43.5125 107.137 42.9619ZM52.4588 12.1883C50.9506 12.4156 50.4568 12.9021 50.1542 14.3378C50.2907 14.8954 50.3592 15.2656 50.4076 15.527L50.4081 15.5296L50.4082 15.5304C50.463 15.8268 50.4918 15.9827 50.5649 16.1138C50.646 16.2594 50.7817 16.3745 51.0678 16.6173C51.1877 16.719 51.334 16.8433 51.5139 17.0016C52.7979 18.1316 54.6442 17.5163 55.7188 17.1582L55.8481 17.1152C56.8983 16.768 59.3496 13.5734 59.3496 13.5734C59.3496 13.5734 57.9339 12.9567 57.0199 12.3338C56.1058 11.7109 53.967 11.961 52.4588 12.1883ZM48.9994 8.7008C49.7158 9.98131 50.332 10.2988 51.8395 10.0668C53.347 9.83475 55.4632 9.43683 56.1504 8.57005C56.8376 7.70327 58.0055 6.69309 58.0055 6.69309C58.0055 6.69309 54.7144 4.37307 53.6084 4.35425L53.4722 4.3517C52.3396 4.32972 50.3939 4.29196 49.5045 5.75302C49.3805 5.95682 49.2781 6.11847 49.1941 6.25102L49.193 6.25274C48.9922 6.56968 48.897 6.71994 48.8629 6.88299C48.8321 7.02997 48.851 7.18735 48.8869 7.4866L48.8871 7.48783L48.8873 7.48966C48.919 7.75361 48.9638 8.12753 48.9994 8.7008ZM51.0225 2.66872C49.2826 3.75905 48.3557 4.46392 47.0014 6.27631C46.0569 7.03273 45.3691 7.01562 44.0367 6.70152C43.0812 6.48371 42.1817 5.21396 42.1994 4.43931C42.218 3.62452 42.2653 1.85918 43.7499 1.18607C45.2346 0.512969 50.3212 1.36221 51.0225 2.66872ZM48.5401 17.0048C50.3493 18.3635 51.4369 18.7794 53.4131 19.3367C53.1073 20.7877 48.4644 23.0324 46.8504 22.8037C45.2364 22.575 44.6949 20.8941 44.448 20.1174C44.2133 19.379 44.7197 17.9076 45.5754 17.43C46.7658 16.7541 47.421 16.5443 48.5401 17.0048ZM47.0776 13.9036C47.8545 12.2768 47.5707 10.2971 46.4387 9.44922C46.0499 9.158 45.3937 8.90285 44.5836 8.58797L44.5833 8.5878C43.035 7.98595 40.9252 7.16575 39.0473 5.45816C37.9023 4.91704 36.4306 4.82325 35.5828 5.95505C34.7349 7.08686 34.7875 9.14836 36.2926 10.9044C37.4223 12.7142 37.6251 13.7924 37.0025 15.8538C35.9274 17.7836 36.3839 20.3453 37.9397 20.6273C39.4955 20.9093 40.7136 20.5977 41.3131 19.4951C42.3104 17.6609 43.8092 16.6254 45.0509 15.7674C45.9694 15.1328 46.7473 14.5953 47.0776 13.9036ZM18.3988 55.441C16.9225 55.0576 16.2773 55.3111 15.4351 56.5126C15.3412 57.0815 15.2586 57.4496 15.2003 57.7092C15.1343 58.0032 15.0996 58.1579 15.1153 58.3072C15.1328 58.4729 15.2122 58.6321 15.38 58.9677C15.4503 59.1084 15.5361 59.2801 15.6393 59.4963C16.3763 61.0399 18.3159 61.1992 19.4448 61.2919L19.5806 61.3031C20.6828 61.3963 24.1918 59.4212 24.1918 59.4212C24.1918 59.4212 23.1321 58.298 22.5361 57.3662C21.9402 56.4343 19.875 55.8243 18.3988 55.441ZM16.5871 50.875C16.743 52.334 17.185 52.868 18.6625 53.2467C20.1399 53.6254 22.2424 54.0906 23.2148 53.5634C24.1872 53.0362 25.6581 52.5659 25.6581 52.5659C25.6581 52.5659 23.5426 49.1397 22.5329 48.688L22.4086 48.6321C21.3757 48.1671 19.6011 47.3682 18.2094 48.3625C18.0145 48.5018 17.8563 48.6106 17.7267 48.6997C17.4175 48.9123 17.2709 49.0131 17.1755 49.1497C17.0895 49.2727 17.0451 49.4249 16.9606 49.7142L16.9604 49.7146C16.8859 49.9699 16.7801 50.332 16.5871 50.875ZM20.8168 46.1223C18.7885 46.4416 17.6593 46.7258 15.7019 47.8606C14.5362 48.1853 13.9104 47.8994 12.8084 47.0872C12.0153 46.5117 11.6868 44.9906 12.0073 44.2852C12.3444 43.5432 13.0813 41.9383 14.711 41.9024C16.3407 41.8665 20.685 44.6453 20.8168 46.1223ZM12.9033 58.3313C14.0334 60.2914 14.8703 61.1011 16.4687 62.3898C15.6176 63.604 10.4662 63.8448 9.07174 63.0006C7.67728 62.1563 7.83941 60.3978 7.91744 59.5866C7.99164 58.8153 9.03523 57.661 10.0098 57.5579C11.37 57.4039 12.055 57.4683 12.9033 58.3313ZM12.7763 54.905C14.1297 53.714 14.6463 51.7819 13.9383 50.5576C13.6951 50.137 13.1916 49.6445 12.5702 49.0366C11.3828 47.875 9.76469 46.2921 8.70838 43.9842C7.86787 43.0368 6.55133 42.3725 5.32707 43.0804C4.10281 43.7882 3.34146 45.7047 4.03595 47.9108C4.36408 50.0189 4.12705 51.0901 2.74485 52.7412C0.998238 54.0937 0.411907 56.6289 1.73193 57.4993C3.05192 58.3697 4.29457 58.5616 5.27895 57.7831C6.91652 56.4879 8.70152 56.1242 10.1804 55.8229C11.2744 55.6001 12.2008 55.4113 12.7763 54.905Z" fill="black"/>
<path d="M158.34 16.1586L157.858 16.0238L157.828 16.1334L157.847 16.2456L158.34 16.1586ZM165.321 14.606L165.629 14.212L165.629 14.212L165.321 14.606ZM167.565 15.9947L167.942 16.3243L168.363 15.8434L167.795 15.5503L167.565 15.9947ZM163.841 19.3009L163.715 18.817L163.714 18.8172L163.841 19.3009ZM163.709 19.3354L163.582 18.8517L163.582 18.8518L163.709 19.3354ZM159.523 18.9052L159.169 19.2582L159.169 19.2582L159.523 18.9052ZM159.103 18.4927L159.451 18.1333L159.451 18.1333L159.103 18.4927ZM158.634 17.9576L159.086 17.7431L159.086 17.7431L158.634 17.9576ZM158.516 17.3652L158.019 17.4239L158.019 17.4239L158.516 17.3652ZM157.555 10.4583L157.055 10.4568L157.054 10.5707L157.103 10.6735L157.555 10.4583ZM160.3 12.0064L160.256 11.5083L160.256 11.5083L160.3 12.0064ZM157.521 9.23937L157.022 9.26651L157.521 9.23937ZM157.537 8.63546L158.019 8.76952L158.019 8.76951L157.537 8.63546ZM157.907 8.02835L157.521 7.71008L157.512 7.72167L157.503 7.73381L157.907 8.02835ZM157.907 8.02818L158.293 8.34649L158.298 8.34036L157.907 8.02818ZM157.907 8.02806L158.298 8.34024L158.305 8.33157L158.311 8.32261L157.907 8.02806ZM158.251 7.5497L158.66 7.83695L158.66 7.83694L158.251 7.5497ZM162.301 6.4098L162.259 6.90801L162.259 6.90804L162.301 6.4098ZM162.437 6.42121L162.395 6.91945L162.396 6.91952L162.437 6.42121ZM166.672 9.04151L166.974 9.44018L167.484 9.0542L166.987 8.65247L166.672 9.04151ZM164.699 10.7936L165.07 11.1291L165.07 11.1291L164.699 10.7936ZM159.966 4.57083L160.204 5.01091L160.615 4.78899L160.421 4.36355L159.966 4.57083ZM155.719 7.90882L156.005 8.31862L156.058 8.28208L156.099 8.23357L155.719 7.90882ZM152.806 2.6176L152.629 2.14973L152.806 2.6176ZM151.047 5.76293L151.545 5.8069L151.545 5.80689L151.047 5.76293ZM152.733 8.14001L152.879 7.66185L152.875 7.66079L152.733 8.14001ZM156.555 18.7147L156.881 18.3353L156.833 18.2938L156.775 18.2657L156.555 18.7147ZM161.266 21.3592L161.748 21.4939L161.874 21.0437L161.433 20.8878L161.266 21.3592ZM153.569 18.9459L153.784 19.3975L153.787 19.3959L153.569 18.9459ZM152.269 21.5542L151.784 21.6743L151.784 21.6743L152.269 21.5542ZM154.492 24.3913L154.389 24.8807L154.389 24.8807L154.492 24.3913ZM155.298 15.5249L154.862 15.2805L154.862 15.2805L155.298 15.5249ZM154.951 11.0383L155.276 10.6585L155.276 10.6585L154.951 11.0383ZM153.154 17.2527L153.411 17.6817L153.411 17.6817L153.154 17.2527ZM149.182 20.729L149.604 20.996L149.182 20.729ZM145.742 21.6391L145.863 21.1539L145.863 21.1539L145.742 21.6391ZM145.117 16.8146L145.537 17.0859L145.567 17.0406L145.585 16.9901L145.117 16.8146ZM144.731 11.8295L145.172 11.593L145.154 11.5597L145.131 11.5296L144.731 11.8295ZM144.345 6.84446L143.966 6.51925L143.966 6.51926L144.345 6.84446ZM147.835 6.57429L148.195 6.22706L148.143 6.17334L148.078 6.13711L147.835 6.57429ZM153.155 10.0579L152.944 10.5111L152.944 10.5111L153.155 10.0579ZM109.916 44.3522L109.485 44.0988L109.427 44.197L109.418 44.3104L109.916 44.3522ZM112.785 43.0476L112.698 43.54L112.785 43.0476ZM109.777 45.5637L110.273 45.6339L110.273 45.6339L109.777 45.5637ZM109.74 46.1667L110.232 46.0748L110.232 46.0748L109.74 46.1667ZM110.057 46.8038L109.629 47.0623L109.629 47.0623L110.057 46.8038ZM110.358 47.3102L109.925 47.5609L109.925 47.5609L110.358 47.3102ZM114.294 48.7964L114.296 48.2964L114.295 48.2964L114.294 48.7964ZM114.431 48.7968L114.433 48.2968L114.432 48.2968L114.431 48.7968ZM118.877 46.5529L119.156 46.9677L119.687 46.6105L119.212 46.1818L118.877 46.5529ZM117.063 44.6365L117.461 44.3344L117.461 44.3344L117.063 44.6365ZM112.873 40.8392L112.958 40.3465L112.958 40.3465L112.873 40.8392ZM110.615 38.6407L110.132 38.5114L110.102 38.6214L110.123 38.7333L110.615 38.6407ZM119.792 39.6025L119.981 40.065L120.573 39.8223L120.195 39.3067L119.792 39.6025ZM116.367 35.9863L116.199 36.4572L116.2 36.4575L116.367 35.9863ZM116.239 35.9405L116.07 36.4114L116.071 36.4115L116.239 35.9405ZM112.031 36.0068L112.353 36.3891L112.353 36.3891L112.031 36.0068ZM111.577 36.3814L111.262 35.9934L111.262 35.9934L111.577 36.3814ZM111.063 36.8739L111.495 37.1267L111.495 37.1267L111.063 36.8739ZM110.894 37.4535L111.374 37.593L111.38 37.5741L111.384 37.5549L110.894 37.4535ZM110.894 37.4538L110.414 37.3144L110.409 37.3332L110.405 37.3524L110.894 37.4538ZM109.492 35.7066L109.664 36.176L109.724 36.154L109.776 36.1177L109.492 35.7066ZM114.452 33.5657L114.569 34.0518L115.023 33.9425L114.944 33.4816L114.452 33.5657ZM106.546 35.1665L106.809 34.7416L106.806 34.7397L106.546 35.1665ZM105.524 32.4373L105.053 32.2675L105.053 32.2675L105.524 32.4373ZM108.028 29.8464L108.079 30.3438L108.028 29.8464ZM111.415 50.1282L111.846 50.3816L112.083 49.9786L111.697 49.7152L111.415 50.1282ZM107.537 46.3672L107.949 46.0837L107.913 46.0311L107.865 45.9893L107.537 46.3672ZM104.091 51.3273L103.867 51.7743L104.091 51.3273ZM102.668 48.0162L102.168 48.0082L102.168 48.0082L102.668 48.0162ZM104.591 45.8271L104.684 46.3186L104.687 46.3178L104.591 45.8271ZM107.949 38.5356L108.36 38.2516L108.36 38.2516L107.949 38.5356ZM107.137 42.9619L107.497 43.3097L107.497 43.3097L107.137 42.9619ZM106.464 37.1287L106.144 37.5129L106.144 37.5129L106.464 37.1287ZM102.211 32.4005L102.648 32.1568L102.611 32.0916L102.557 32.0398L102.211 32.4005ZM98.7685 31.7693L99.0525 32.1809L98.7685 31.7693ZM97.8669 36.6874L98.3533 36.5713L98.3445 36.5346L98.3303 36.4997L97.8669 36.6874ZM96.9653 41.6054L97.302 41.9751L97.3419 41.9388L97.3731 41.8948L96.9653 41.6054ZM96.3353 46.4291L96.5763 45.9911L96.5763 45.9911L96.3353 46.4291ZM99.8936 46.429L100.234 46.7952L100.234 46.7952L99.8936 46.429ZM104.623 44.084L104.485 43.6036L104.623 44.084ZM50.1542 14.3378L49.6649 14.2347L49.6414 14.3461L49.6685 14.4567L50.1542 14.3378ZM52.4588 12.1883L52.5333 12.6827L52.5333 12.6827L52.4588 12.1883ZM50.4076 15.527L49.9159 15.6179L49.9173 15.625L50.4076 15.527ZM50.4081 15.5296L50.9022 15.4532L50.9006 15.4423L50.8984 15.4316L50.4081 15.5296ZM50.4082 15.5304L49.9141 15.6068L49.9152 15.6141L49.9166 15.6213L50.4082 15.5304ZM50.5649 16.1138L51.0017 15.8704L51.0017 15.8704L50.5649 16.1138ZM51.0678 16.6173L50.7442 16.9985L50.7442 16.9985L51.0678 16.6173ZM51.5139 17.0016L51.1835 17.3769L51.1836 17.3769L51.5139 17.0016ZM55.7188 17.1582L55.5611 16.6837L55.5607 16.6838L55.7188 17.1582ZM55.8481 17.1152L55.6912 16.6405L55.6904 16.6407L55.8481 17.1152ZM59.3496 13.5734L59.7463 13.8777L60.1356 13.3704L59.5493 13.115L59.3496 13.5734ZM57.0199 12.3338L56.7383 12.747L56.7383 12.747L57.0199 12.3338ZM48.9994 8.7008L48.5004 8.73184L48.5075 8.84551L48.5631 8.94491L48.9994 8.7008ZM56.1504 8.57005L56.5422 8.88068L56.1504 8.57005ZM58.0055 6.69309L58.3326 7.07126L58.8163 6.65289L58.2936 6.28442L58.0055 6.69309ZM53.6084 4.35425L53.599 4.85416L53.5999 4.85417L53.6084 4.35425ZM53.4722 4.3517L53.4625 4.8516L53.4628 4.85161L53.4722 4.3517ZM49.5045 5.75302L49.0774 5.49305L49.0774 5.49306L49.5045 5.75302ZM49.1941 6.25102L49.6154 6.52032L49.6165 6.5186L49.1941 6.25102ZM49.193 6.25274L48.7717 5.98344L48.7706 5.98513L49.193 6.25274ZM48.8629 6.88299L48.3735 6.78058L48.3734 6.78065L48.8629 6.88299ZM48.8869 7.4866L48.3903 7.54623L48.3922 7.55876L48.8869 7.4866ZM48.8871 7.48783L49.3838 7.42914L49.3819 7.41567L48.8871 7.48783ZM48.8873 7.48966L48.3908 7.54832L48.3909 7.54915L48.8873 7.48966ZM47.0014 6.27631L47.3139 6.66658L47.3637 6.62671L47.4019 6.57561L47.0014 6.27631ZM51.0225 2.66872L51.288 3.09241L51.6842 2.84415L51.4631 2.43224L51.0225 2.66872ZM44.0367 6.70152L44.1514 6.21484L44.1478 6.21402L44.0367 6.70152ZM42.1994 4.43931L42.6993 4.45074L42.6993 4.45073L42.1994 4.43931ZM43.7499 1.18607L43.9564 1.64145L43.7499 1.18607ZM53.4131 19.3367L53.9024 19.4399L53.9988 18.9824L53.5488 18.8555L53.4131 19.3367ZM48.5401 17.0048L48.8404 16.605L48.7893 16.5667L48.7304 16.5424L48.5401 17.0048ZM46.8504 22.8037L46.9205 22.3086L46.9205 22.3086L46.8504 22.8037ZM44.448 20.1174L43.9715 20.2689L43.9715 20.2689L44.448 20.1174ZM45.5754 17.43L45.8191 17.8666L45.8223 17.8648L45.5754 17.43ZM46.4387 9.44922L46.7385 9.04903L46.7385 9.04903L46.4387 9.44922ZM47.0776 13.9036L47.5288 14.1191L47.5288 14.1191L47.0776 13.9036ZM44.5836 8.58797L44.3753 9.04248L44.3887 9.04864L44.4025 9.05399L44.5836 8.58797ZM44.5833 8.5878L44.7916 8.13329L44.7782 8.12713L44.7644 8.12178L44.5833 8.5878ZM39.0473 5.45816L39.3837 5.08823L39.3285 5.038L39.261 5.0061L39.0473 5.45816ZM35.5828 5.95505L35.1826 5.65528L35.1826 5.65528L35.5828 5.95505ZM36.2926 10.9044L36.7168 10.6397L36.6968 10.6077L36.6723 10.579L36.2926 10.9044ZM37.0025 15.8538L37.4393 16.0971L37.4655 16.05L37.4811 15.9983L37.0025 15.8538ZM41.3131 19.4951L41.7524 19.734L41.7524 19.734L41.3131 19.4951ZM45.0509 15.7674L45.3351 16.1788L45.3351 16.1788L45.0509 15.7674ZM15.4351 56.5126L15.0257 56.2256L14.9603 56.3188L14.9418 56.4312L15.4351 56.5126ZM15.2003 57.7092L14.7124 57.5996L14.7124 57.5997L15.2003 57.7092ZM15.1153 58.3072L14.618 58.3596L14.618 58.3597L15.1153 58.3072ZM15.38 58.9677L15.8273 58.7442L15.8273 58.7442L15.38 58.9677ZM15.6393 59.4963L15.1881 59.7117L15.1881 59.7117L15.6393 59.4963ZM19.4448 61.2919L19.4861 60.7936L19.4858 60.7936L19.4448 61.2919ZM19.5806 61.3031L19.6227 60.8049L19.6219 60.8049L19.5806 61.3031ZM24.1918 59.4212L24.4371 59.8569L24.9944 59.5432L24.5555 59.0781L24.1918 59.4212ZM22.5361 57.3662L22.1149 57.6356L22.5361 57.3662ZM18.6625 53.2467L18.7866 52.7623L18.7866 52.7623L18.6625 53.2467ZM16.5871 50.875L16.116 50.7076L16.0779 50.8149L16.09 50.9281L16.5871 50.875ZM23.2148 53.5634L23.4532 54.003L23.2148 53.5634ZM25.6581 52.5659L25.8103 53.0422L26.4195 52.8474L26.0835 52.3032L25.6581 52.5659ZM22.5329 48.688L22.328 49.1441L22.3287 49.1444L22.5329 48.688ZM22.4086 48.6321L22.2033 49.0881L22.2037 49.0882L22.4086 48.6321ZM18.2094 48.3625L18.5001 48.7693L18.5001 48.7693L18.2094 48.3625ZM17.7267 48.6997L18.01 49.1117L18.01 49.1117L17.7267 48.6997ZM17.1755 49.1497L17.5854 49.436L17.1755 49.1497ZM16.9606 49.7142L17.4288 49.8895L17.4353 49.8722L17.4405 49.8544L16.9606 49.7142ZM16.9604 49.7146L16.4922 49.5393L16.4857 49.5567L16.4805 49.5744L16.9604 49.7146ZM15.7019 47.8606L15.8361 48.3423L15.8975 48.3252L15.9527 48.2932L15.7019 47.8606ZM20.8168 46.1223L20.8946 46.6162L21.3564 46.5435L21.3148 46.0778L20.8168 46.1223ZM12.8084 47.0872L13.1051 46.6847L13.1021 46.6826L12.8084 47.0872ZM12.0073 44.2852L12.4625 44.492L12.4625 44.492L12.0073 44.2852ZM14.711 41.9024L14.722 42.4023L14.711 41.9024ZM16.4687 62.3898L16.8782 62.6768L17.1465 62.294L16.7826 62.0005L16.4687 62.3898ZM12.9033 58.3313L13.3364 58.0815L13.3045 58.0263L13.2598 57.9808L12.9033 58.3313ZM7.91744 59.5866L7.41974 59.5387L7.41974 59.5387L7.91744 59.5866ZM10.0098 57.5579L10.0624 58.0552L10.0661 58.0547L10.0098 57.5579ZM13.9383 50.5576L13.5054 50.8079L13.5054 50.8079L13.9383 50.5576ZM12.7763 54.905L12.446 54.5296L12.7763 54.905ZM12.5702 49.0366L12.9199 48.6792L12.9199 48.6792L12.5702 49.0366ZM8.70838 43.9842L9.16302 43.7761L9.13195 43.7082L9.0824 43.6523L8.70838 43.9842ZM5.32707 43.0804L5.0768 42.6475L5.32707 43.0804ZM4.03595 47.9108L4.53 47.8339L4.52419 47.7967L4.51287 47.7607L4.03595 47.9108ZM2.74485 52.7412L3.05097 53.1366L3.09362 53.1036L3.12825 53.0622L2.74485 52.7412ZM1.73193 57.4993L2.00717 57.0819L2.00717 57.0818L1.73193 57.4993ZM5.27895 57.7831L4.96878 57.3909L5.27895 57.7831ZM10.1804 55.8229L10.2802 56.3129L10.2803 56.3129L10.1804 55.8229ZM160.737 13.6655C159.947 13.7324 159.31 13.8892 158.82 14.294C158.329 14.6994 158.064 15.2886 157.858 16.0238L158.821 16.2934C159.011 15.6155 159.206 15.2716 159.456 15.065C159.707 14.8578 160.092 14.7237 160.822 14.662L160.737 13.6655ZM165.629 14.212C165.333 13.9803 164.958 13.8373 164.574 13.7453C164.186 13.6521 163.755 13.6035 163.318 13.5819C162.446 13.5386 161.501 13.6009 160.737 13.6655L160.822 14.662C161.578 14.598 162.468 14.5409 163.269 14.5806C163.669 14.6005 164.034 14.644 164.341 14.7177C164.653 14.7926 164.874 14.8911 165.014 15L165.629 14.212ZM167.565 15.9947C167.795 15.5503 167.795 15.5503 167.795 15.5503C167.795 15.5503 167.795 15.5503 167.795 15.5503C167.795 15.5503 167.795 15.5503 167.795 15.5503C167.795 15.5503 167.794 15.5502 167.794 15.55C167.794 15.5498 167.793 15.5493 167.792 15.5487C167.789 15.5476 167.786 15.5457 167.781 15.5432C167.771 15.5382 167.757 15.5306 167.738 15.5207C167.7 15.5008 167.645 15.4713 167.575 15.4338C167.436 15.3586 167.242 15.2513 167.021 15.1232C166.575 14.8645 166.037 14.531 165.629 14.212L165.014 15C165.477 15.3621 166.062 15.723 166.52 15.9884C166.751 16.1223 166.954 16.2345 167.1 16.3133C167.172 16.3527 167.231 16.3839 167.272 16.4053C167.292 16.416 167.308 16.4243 167.319 16.43C167.324 16.4329 167.329 16.4351 167.331 16.4366C167.333 16.4374 167.334 16.438 167.335 16.4384C167.335 16.4386 167.336 16.4388 167.336 16.4389C167.336 16.439 167.336 16.439 167.336 16.4391C167.336 16.4391 167.336 16.4391 167.336 16.4391C167.336 16.4391 167.336 16.4391 167.565 15.9947ZM163.966 19.7849C164.351 19.6851 164.793 19.3761 165.189 19.0558C165.607 18.7176 166.053 18.2997 166.457 17.8984C166.862 17.4957 167.233 17.1027 167.502 16.811C167.636 16.665 167.746 16.5439 167.822 16.459C167.86 16.4166 167.889 16.3832 167.91 16.3603C167.92 16.3488 167.928 16.34 167.933 16.3339C167.936 16.3309 167.938 16.3286 167.939 16.327C167.94 16.3261 167.94 16.3255 167.941 16.3251C167.941 16.3249 167.941 16.3247 167.941 16.3246C167.941 16.3245 167.941 16.3244 167.941 16.3244C167.941 16.3243 167.942 16.3243 167.565 15.9947C167.189 15.6652 167.19 15.6651 167.19 15.6651C167.189 15.6651 167.189 15.6652 167.189 15.6652C167.189 15.6652 167.189 15.6653 167.189 15.6655C167.189 15.6658 167.189 15.6662 167.188 15.6669C167.187 15.6682 167.185 15.6702 167.183 15.6729C167.178 15.6783 167.171 15.6865 167.161 15.6973C167.142 15.7189 167.114 15.7508 167.077 15.7918C167.004 15.8736 166.897 15.9912 166.766 16.1334C166.504 16.4182 166.144 16.7997 165.752 17.1888C165.359 17.5792 164.941 17.9705 164.56 18.2783C164.157 18.604 163.866 18.7778 163.715 18.817L163.966 19.7849ZM163.835 19.8192L163.967 19.7847L163.714 18.8172L163.582 18.8517L163.835 19.8192ZM159.169 19.2582C159.901 19.9923 160.825 20.1911 161.663 20.1823C162.493 20.1736 163.295 19.9609 163.836 19.8191L163.582 18.8518C163.027 18.9973 162.34 19.1751 161.653 19.1824C160.974 19.1895 160.353 19.0295 159.877 18.5522L159.169 19.2582ZM158.755 18.852C158.868 18.9612 159.003 19.092 159.169 19.2582L159.877 18.5522C159.705 18.3791 159.564 18.2429 159.451 18.1333L158.755 18.852ZM158.182 18.1721C158.302 18.4243 158.515 18.6195 158.755 18.852L159.451 18.1333C159.152 17.8441 159.109 17.7919 159.086 17.7431L158.182 18.1721ZM158.019 17.4239C158.051 17.6901 158.074 17.945 158.182 18.1721L159.086 17.7431C159.065 17.6989 159.051 17.639 159.012 17.3066L158.019 17.4239ZM157.847 16.2456C157.945 16.7995 157.988 17.1632 158.019 17.4239L159.012 17.3066C158.981 17.0389 158.935 16.6533 158.832 16.0715L157.847 16.2456ZM157.103 10.6735C157.432 11.3626 157.793 11.8979 158.346 12.2133C158.899 12.5283 159.553 12.5738 160.343 12.5045L160.256 11.5083C159.527 11.5723 159.125 11.5059 158.842 11.3447C158.56 11.1839 158.309 10.8785 158.006 10.2431L157.103 10.6735ZM157.022 9.26651C157.036 9.52861 157.056 9.89433 157.055 10.4568L158.055 10.4598C158.056 9.86909 158.035 9.48134 158.021 9.21223L157.022 9.26651ZM157.055 8.50141C156.988 8.74362 157.008 8.99881 157.022 9.26651L158.021 9.21223C158.003 8.878 158.005 8.81664 158.019 8.76952L157.055 8.50141ZM157.503 7.73381C157.306 8.00382 157.13 8.23254 157.055 8.50141L158.019 8.76951C158.033 8.71752 158.066 8.65882 158.311 8.32288L157.503 7.73381ZM157.522 7.70992L157.521 7.71008L158.293 8.34661L158.293 8.34645L157.522 7.70992ZM157.517 7.71588L157.517 7.716L158.298 8.34036L158.298 8.34024L157.517 7.71588ZM157.841 7.26244C157.707 7.45461 157.596 7.60661 157.503 7.73351L158.311 8.32261C158.404 8.19531 158.52 8.03706 158.66 7.83695L157.841 7.26244ZM162.343 5.91158C161.786 5.86433 160.959 5.79202 160.141 5.92535C159.314 6.06007 158.437 6.41404 157.841 7.26246L158.66 7.83694C159.047 7.28533 159.631 7.02149 160.302 6.91235C160.98 6.80181 161.688 6.85956 162.259 6.90801L162.343 5.91158ZM162.479 5.92296L162.343 5.91155L162.259 6.90804L162.395 6.91945L162.479 5.92296ZM166.672 9.04151C166.987 8.65247 166.986 8.65244 166.986 8.6524C166.986 8.65237 166.986 8.65232 166.986 8.65226C166.986 8.65215 166.986 8.65201 166.986 8.65182C166.985 8.65145 166.985 8.65093 166.984 8.65026C166.982 8.64891 166.98 8.64696 166.977 8.64443C166.97 8.63938 166.961 8.632 166.949 8.62244C166.925 8.60333 166.89 8.57552 166.846 8.54022C166.756 8.46963 166.628 8.36903 166.47 8.24816C166.155 8.0067 165.723 7.68298 165.255 7.35559C164.788 7.02931 164.277 6.69382 163.807 6.43212C163.362 6.18432 162.874 5.95549 162.478 5.9229L162.396 6.91952C162.552 6.93234 162.868 7.05375 163.321 7.30578C163.748 7.54389 164.227 7.85781 164.682 8.17525C165.134 8.49158 165.554 8.8059 165.861 9.04156C166.015 9.15924 166.14 9.25696 166.226 9.32506C166.269 9.35911 166.302 9.38573 166.325 9.40371C166.336 9.41271 166.345 9.41954 166.35 9.42406C166.353 9.42632 166.355 9.42801 166.357 9.42909C166.357 9.42964 166.358 9.43003 166.358 9.43027C166.358 9.4304 166.358 9.43048 166.358 9.43052C166.358 9.43054 166.358 9.43055 166.358 9.43056C166.358 9.43056 166.358 9.43054 166.672 9.04151ZM165.07 11.1291C165.417 10.745 165.89 10.3246 166.285 9.99332C166.481 9.82935 166.654 9.69036 166.778 9.59253C166.84 9.54365 166.89 9.50516 166.923 9.47907C166.94 9.46603 166.953 9.4561 166.962 9.44953C166.966 9.44625 166.969 9.4438 166.971 9.44223C166.973 9.44145 166.973 9.44088 166.974 9.44054C166.974 9.44037 166.974 9.44025 166.974 9.44019C166.974 9.44016 166.974 9.44014 166.974 9.44014C166.974 9.44014 166.974 9.44015 166.974 9.44015C166.974 9.44016 166.974 9.44018 166.672 9.04151C166.371 8.64284 166.371 8.64286 166.371 8.64289C166.371 8.6429 166.371 8.64293 166.371 8.64296C166.37 8.64301 166.37 8.64308 166.37 8.64317C166.37 8.64333 166.37 8.64356 166.369 8.64384C166.369 8.64439 166.368 8.64518 166.366 8.64618C166.364 8.64819 166.36 8.65108 166.355 8.65482C166.345 8.6623 166.331 8.67319 166.313 8.68724C166.276 8.71532 166.224 8.75605 166.159 8.80735C166.029 8.9099 165.848 9.05516 165.643 9.2267C165.237 9.56645 164.723 10.0221 164.328 10.4581L165.07 11.1291ZM160.343 12.5045C161.107 12.4375 162.049 12.3372 162.901 12.1454C163.327 12.0494 163.744 11.9277 164.11 11.7695C164.472 11.6132 164.817 11.4082 165.07 11.1291L164.328 10.4581C164.21 10.5892 164.009 10.7241 163.714 10.8513C163.424 10.9765 163.072 11.0818 162.681 11.1698C161.898 11.346 161.012 11.4419 160.256 11.5083L160.343 12.5045ZM159.729 4.13075C157.885 5.12521 156.859 5.80366 155.339 7.58407L156.099 8.23357C157.517 6.57334 158.433 5.96581 160.204 5.01091L159.729 4.13075ZM152.982 3.08546C153.257 2.98195 153.765 2.93944 154.445 2.98913C155.106 3.03739 155.866 3.16734 156.603 3.35681C157.341 3.54667 158.039 3.79167 158.579 4.06246C158.849 4.19788 159.068 4.33417 159.231 4.46539C159.398 4.59999 159.479 4.70777 159.511 4.77811L160.421 4.36355C160.3 4.09654 160.089 3.87229 159.858 3.68639C159.623 3.4971 159.338 3.3244 159.027 3.16853C158.405 2.85674 157.636 2.58996 156.852 2.38832C156.066 2.18629 155.247 2.04501 154.518 1.99179C153.809 1.94 153.118 1.96576 152.629 2.14973L152.982 3.08546ZM151.545 5.80689C151.581 5.39805 151.636 4.82205 151.847 4.28383C152.053 3.75702 152.392 3.30801 152.982 3.08546L152.629 2.14973C151.695 2.50215 151.189 3.21988 150.916 3.91903C150.646 4.60678 150.584 5.31595 150.549 5.71897L151.545 5.80689ZM152.875 7.66079C152.559 7.5667 152.204 7.26797 151.926 6.85621C151.644 6.43784 151.525 6.02962 151.545 5.8069L150.549 5.71897C150.5 6.26808 150.755 6.90862 151.098 7.41593C151.445 7.92985 151.967 8.43373 152.59 8.61923L152.875 7.66079ZM155.432 7.49902C154.992 7.80668 154.663 7.91929 154.322 7.93502C153.956 7.95187 153.53 7.86091 152.879 7.66186L152.587 8.61816C153.245 8.81934 153.815 8.95943 154.368 8.93395C154.945 8.90735 155.454 8.70425 156.005 8.31862L155.432 7.49902ZM156.23 19.0941C158.007 20.6192 159.124 21.1317 161.099 21.8305L161.433 20.8878C159.537 20.2168 158.538 19.7575 156.881 18.3353L156.23 19.0941ZM153.787 19.3959C154.4 19.099 154.807 18.9435 155.171 18.9039C155.51 18.867 155.853 18.9275 156.335 19.1638L156.775 18.2657C156.171 17.9696 155.637 17.8473 155.063 17.9098C154.513 17.9696 153.97 18.1959 153.351 18.496L153.787 19.3959ZM152.755 21.4341C152.701 21.2171 152.755 20.7954 152.97 20.3386C153.181 19.8889 153.486 19.5391 153.784 19.3975L153.355 18.4944C152.767 18.7736 152.329 19.3518 152.065 19.9131C151.805 20.4671 151.651 21.1392 151.784 21.6743L152.755 21.4341ZM154.594 23.9018C153.976 23.7728 153.572 23.3813 153.287 22.8925C152.996 22.3932 152.853 21.8325 152.755 21.4341L151.784 21.6743C151.881 22.067 152.051 22.7582 152.424 23.3963C152.802 24.045 153.411 24.6764 154.389 24.8807L154.594 23.9018ZM160.785 21.2244C160.764 21.2988 160.701 21.4178 160.556 21.5765C160.415 21.7312 160.219 21.8997 159.973 22.0751C159.481 22.4258 158.83 22.7751 158.13 23.0764C157.431 23.377 156.7 23.6224 156.054 23.7718C155.39 23.9256 154.881 23.9619 154.594 23.9018L154.389 24.8807C154.9 24.9874 155.587 24.9064 156.28 24.7461C156.992 24.5813 157.78 24.3156 158.525 23.995C159.269 23.6751 159.987 23.2932 160.554 22.8894C160.837 22.6875 161.092 22.4729 161.295 22.2497C161.495 22.0305 161.669 21.7765 161.748 21.4939L160.785 21.2244ZM155.734 15.7693C156.223 14.8964 156.426 13.9061 156.356 12.9982C156.286 12.0949 155.94 11.2272 155.276 10.6585L154.625 11.4182C155.036 11.7693 155.304 12.3585 155.359 13.0754C155.414 13.7876 155.254 14.5807 154.862 15.2805L155.734 15.7693ZM153.411 17.6817C153.884 17.3986 154.35 17.12 154.745 16.8247C155.14 16.5288 155.498 16.1906 155.734 15.7693L154.862 15.2805C154.723 15.528 154.489 15.7669 154.145 16.0244C153.801 16.2824 153.382 16.5334 152.897 16.8237L153.411 17.6817ZM149.604 20.996C150.648 19.3428 152.112 18.4595 153.411 17.6817L152.897 16.8237C151.607 17.5964 149.944 18.5845 148.759 20.4621L149.604 20.996ZM145.621 22.1242C147.24 22.5282 148.763 22.3285 149.604 20.996L148.759 20.4621C148.26 21.252 147.312 21.5154 145.863 21.1539L145.621 22.1242ZM144.697 16.5434C144.035 17.5689 143.78 18.7968 143.908 19.8403C144.035 20.8664 144.566 21.8612 145.621 22.1242L145.863 21.1539C145.383 21.0342 145.003 20.5446 144.901 19.7181C144.801 18.909 145.001 17.916 145.537 17.0859L144.697 16.5434ZM144.291 12.0661C144.783 12.9831 145.032 13.6542 145.088 14.3132C145.144 14.9687 145.014 15.6655 144.649 16.6392L145.585 16.9901C145.976 15.9473 146.158 15.0914 146.084 14.2283C146.011 13.3687 145.689 12.5555 145.172 11.593L144.291 12.0661ZM143.966 6.51926C142.854 7.81799 142.844 10.1457 144.331 12.1295L145.131 11.5296C143.844 9.81263 143.998 8.01927 144.725 7.16967L143.966 6.51926ZM148.078 6.13711C146.896 5.48117 145.121 5.16982 143.966 6.51925L144.725 7.16967C145.409 6.37075 146.559 6.43829 147.592 7.01148L148.078 6.13711ZM153.366 9.60467C151.859 8.90234 149.886 7.97931 148.195 6.22706L147.475 6.92153C149.309 8.82185 151.44 9.81058 152.944 10.5111L153.366 9.60467ZM155.276 10.6585C154.842 10.2868 154.124 9.95767 153.366 9.60466L152.944 10.5111C153.762 10.8923 154.321 11.1579 154.625 11.4182L155.276 10.6585ZM110.347 44.6056C110.704 43.9989 110.98 43.7164 111.275 43.5806C111.571 43.4444 111.977 43.4131 112.698 43.54L112.871 42.5551C112.09 42.4177 111.434 42.4063 110.857 42.6723C110.279 42.9388 109.872 43.4407 109.485 44.0988L110.347 44.6056ZM110.273 45.6339C110.31 45.3671 110.365 44.9826 110.414 44.394L109.418 44.3104C109.371 44.8709 109.319 45.2336 109.282 45.4934L110.273 45.6339ZM110.232 46.0748C110.223 46.0267 110.225 45.9654 110.273 45.6339L109.282 45.4934C109.245 45.7588 109.203 46.0114 109.249 46.2586L110.232 46.0748ZM110.485 46.5454C110.27 46.1893 110.242 46.1279 110.232 46.0748L109.249 46.2585C109.3 46.5329 109.456 46.7761 109.629 47.0623L110.485 46.5454ZM110.79 47.0594C110.668 46.8479 110.566 46.6802 110.485 46.5453L109.629 47.0623C109.71 47.1968 109.807 47.3578 109.925 47.5609L110.79 47.0594ZM114.295 48.2964C113.722 48.2952 113.012 48.2915 112.346 48.1226C111.687 47.9559 111.128 47.6425 110.79 47.0594L109.925 47.5609C110.445 48.4577 111.288 48.8862 112.1 49.092C112.904 49.2957 113.734 49.2952 114.293 49.2964L114.295 48.2964ZM114.432 48.2968L114.296 48.2964L114.293 49.2964L114.429 49.2968L114.432 48.2968ZM118.877 46.5529C118.598 46.1381 118.598 46.1381 118.598 46.1381C118.598 46.1381 118.598 46.1381 118.598 46.1381C118.598 46.1382 118.597 46.1383 118.597 46.1384C118.597 46.1386 118.596 46.1389 118.596 46.1394C118.594 46.1404 118.592 46.1419 118.589 46.1439C118.583 46.1479 118.574 46.154 118.562 46.162C118.538 46.1779 118.502 46.2016 118.457 46.2317C118.365 46.2921 118.232 46.3787 118.069 46.4826C117.742 46.6908 117.297 46.9676 116.819 47.2436C116.339 47.5205 115.834 47.7918 115.387 47.992C114.915 48.2039 114.589 48.2975 114.433 48.2968L114.428 49.2968C114.825 49.2985 115.332 49.1128 115.796 48.9045C116.287 48.6844 116.825 48.3944 117.318 48.1098C117.813 47.8241 118.272 47.5391 118.607 47.3257C118.774 47.219 118.911 47.1299 119.006 47.0673C119.054 47.036 119.091 47.0113 119.116 46.9943C119.129 46.9858 119.139 46.9793 119.146 46.9748C119.149 46.9725 119.151 46.9708 119.153 46.9696C119.154 46.969 119.155 46.9686 119.155 46.9682C119.156 46.9681 119.156 46.9679 119.156 46.9678C119.156 46.9678 119.156 46.9677 119.156 46.9677C119.156 46.9677 119.156 46.9677 118.877 46.5529ZM116.664 44.9387C117.02 45.4072 117.493 45.9057 117.867 46.2793C118.057 46.4679 118.224 46.6283 118.345 46.7417C118.405 46.7985 118.454 46.8436 118.488 46.8747C118.505 46.8903 118.518 46.9023 118.527 46.9106C118.532 46.9148 118.535 46.918 118.538 46.9202C118.539 46.9213 118.54 46.9222 118.541 46.9228C118.541 46.9231 118.541 46.9234 118.541 46.9236C118.541 46.9237 118.542 46.9238 118.542 46.9238C118.542 46.9238 118.542 46.9239 118.542 46.9239C118.542 46.9239 118.542 46.9239 118.877 46.5529C119.212 46.1818 119.212 46.1819 119.212 46.1819L119.212 46.1819C119.212 46.1819 119.212 46.1819 119.212 46.1818C119.212 46.1818 119.212 46.1816 119.212 46.1814C119.211 46.181 119.211 46.1804 119.21 46.1796C119.208 46.1778 119.205 46.1751 119.201 46.1715C119.193 46.1642 119.181 46.1532 119.165 46.1387C119.133 46.1098 119.087 46.0671 119.03 46.0131C118.915 45.9049 118.754 45.7514 118.573 45.5711C118.208 45.2069 117.774 44.7471 117.461 44.3344L116.664 44.9387ZM112.698 43.54C113.446 43.6716 114.32 43.8439 115.085 44.0871C115.466 44.2086 115.808 44.3439 116.086 44.4938C116.369 44.6461 116.557 44.7978 116.664 44.9387L117.461 44.3344C117.234 44.0345 116.908 43.8004 116.56 43.6134C116.209 43.424 115.804 43.2667 115.388 43.1342C114.556 42.8694 113.626 42.6879 112.871 42.5551L112.698 43.54ZM112.958 40.3465C112.236 40.2219 111.864 40.055 111.632 39.8268C111.401 39.5993 111.236 39.2398 111.106 38.5481L110.123 38.7333C110.265 39.4835 110.477 40.0935 110.931 40.5398C111.385 40.9856 112.006 41.1969 112.787 41.3319L112.958 40.3465ZM117.163 40.3726C117.015 40.469 116.786 40.5481 116.469 40.5956C116.156 40.6425 115.789 40.6542 115.389 40.6394C114.587 40.6096 113.706 40.4758 112.958 40.3465L112.787 41.3319C113.542 41.4623 114.479 41.6063 115.351 41.6387C115.788 41.6549 116.222 41.6438 116.617 41.5846C117.007 41.5261 117.393 41.4161 117.708 41.2109L117.163 40.3726ZM119.792 39.6025C119.602 39.1399 119.602 39.1399 119.602 39.1399C119.602 39.1399 119.602 39.14 119.602 39.14C119.601 39.14 119.601 39.14 119.601 39.1401C119.601 39.1402 119.601 39.1403 119.6 39.1405C119.599 39.1409 119.598 39.1414 119.597 39.142C119.594 39.1433 119.589 39.1451 119.583 39.1475C119.572 39.1522 119.556 39.1591 119.534 39.168C119.492 39.1858 119.431 39.2118 119.355 39.2448C119.203 39.3107 118.991 39.4048 118.749 39.5183C118.27 39.743 117.656 40.0519 117.163 40.3726L117.708 41.2109C118.143 40.9284 118.707 40.6427 119.174 40.4236C119.405 40.3151 119.608 40.2251 119.753 40.1622C119.825 40.1308 119.883 40.1062 119.922 40.0897C119.942 40.0814 119.957 40.0751 119.967 40.0709C119.972 40.0689 119.976 40.0673 119.978 40.0663C119.979 40.0658 119.98 40.0655 119.981 40.0653C119.981 40.0652 119.981 40.0651 119.981 40.0651C119.981 40.065 119.981 40.065 119.981 40.065C119.981 40.065 119.981 40.065 119.981 40.065C119.981 40.065 119.981 40.065 119.792 39.6025ZM116.2 36.4575C116.347 36.5097 116.622 36.708 116.995 37.0674C117.347 37.4069 117.731 37.8329 118.088 38.256C118.445 38.6775 118.771 39.0887 119.007 39.3951C119.126 39.5481 119.221 39.6745 119.287 39.7624C119.32 39.8063 119.346 39.8406 119.363 39.8638C119.371 39.8753 119.378 39.8841 119.382 39.8899C119.384 39.8928 119.386 39.895 119.387 39.8964C119.388 39.8971 119.388 39.8976 119.388 39.8979C119.388 39.8981 119.388 39.8982 119.388 39.8982C119.388 39.8983 119.388 39.8983 119.388 39.8983C119.388 39.8983 119.388 39.8983 119.792 39.6025C120.195 39.3067 120.195 39.3066 120.195 39.3066C120.195 39.3065 120.194 39.3065 120.194 39.3064C120.194 39.3063 120.194 39.3061 120.194 39.3058C120.194 39.3054 120.193 39.3047 120.193 39.3038C120.191 39.3021 120.189 39.2996 120.187 39.2964C120.182 39.2899 120.175 39.2804 120.166 39.2681C120.148 39.2435 120.121 39.2077 120.087 39.1621C120.019 39.071 119.92 38.9409 119.799 38.7837C119.556 38.4698 119.221 38.0463 118.852 37.61C118.484 37.1752 118.076 36.7203 117.689 36.3472C117.322 35.9938 116.908 35.6477 116.534 35.515L116.2 36.4575ZM116.071 36.4115L116.199 36.4572L116.535 35.5153L116.406 35.4695L116.071 36.4115ZM112.353 36.3891C112.869 35.9549 113.501 35.8492 114.177 35.915C114.861 35.9817 115.53 36.2184 116.07 36.4114L116.407 35.4697C115.88 35.2815 115.099 35.0002 114.274 34.9197C113.44 34.8385 112.502 34.9565 111.709 35.6244L112.353 36.3891ZM111.892 36.7695C112.014 36.6702 112.166 36.5467 112.353 36.3891L111.709 35.6244C111.53 35.7757 111.384 35.8943 111.262 35.9934L111.892 36.7695ZM111.495 37.1267C111.522 37.0801 111.569 37.0318 111.892 36.7695L111.262 35.9934C111.002 36.2042 110.773 36.3803 110.632 36.6211L111.495 37.1267ZM111.384 37.5549C111.452 37.2273 111.47 37.1688 111.495 37.1267L110.632 36.6211C110.505 36.838 110.459 37.0898 110.405 37.3521L111.384 37.5549ZM111.374 37.5933L111.374 37.593L110.414 37.3141L110.414 37.3144L111.374 37.5933ZM111.098 38.77C111.25 38.1994 111.329 37.8192 111.384 37.5552L110.405 37.3524C110.351 37.6094 110.277 37.9681 110.132 38.5114L111.098 38.77ZM109.776 36.1177C111.572 34.8753 112.613 34.5222 114.569 34.0518L114.335 33.0795C112.298 33.5694 111.133 33.9631 109.207 35.2954L109.776 36.1177ZM106.282 35.5914C106.867 35.9541 107.383 36.2355 107.923 36.3521C108.488 36.4739 109.032 36.4077 109.664 36.176L109.32 35.2371C108.815 35.422 108.468 35.4466 108.134 35.3746C107.777 35.2975 107.388 35.1006 106.809 34.7416L106.282 35.5914ZM105.053 32.2675C104.866 32.7859 104.949 33.4703 105.15 34.0484C105.354 34.634 105.73 35.2546 106.285 35.5933L106.806 34.7397C106.525 34.5679 106.258 34.1884 106.094 33.7192C105.928 33.2424 105.918 32.8175 105.994 32.6072L105.053 32.2675ZM107.978 29.349C106.984 29.4506 106.312 30.0153 105.868 30.6212C105.432 31.2172 105.191 31.8869 105.053 32.2675L105.994 32.6072C106.133 32.2212 106.334 31.6784 106.675 31.212C107.009 30.7554 107.452 30.408 108.079 30.3438L107.978 29.349ZM114.944 33.4816C114.895 33.1924 114.749 32.9218 114.573 32.683C114.394 32.4398 114.162 32.1999 113.902 31.9697C113.38 31.5093 112.705 31.0548 111.999 30.6594C111.291 30.2631 110.535 29.917 109.844 29.6792C109.172 29.4478 108.497 29.2959 107.978 29.349L108.079 30.3438C108.371 30.3139 108.873 30.4028 109.518 30.6248C110.145 30.8404 110.847 31.1604 111.51 31.532C112.176 31.9043 112.787 32.3194 113.24 32.7193C113.466 32.9193 113.644 33.1072 113.768 33.2757C113.895 33.4486 113.946 33.5735 113.959 33.6497L114.944 33.4816ZM111.697 49.7152C110.035 48.5816 109.187 47.8822 107.949 46.0837L107.126 46.6507C108.453 48.5794 109.403 49.3607 111.134 50.5413L111.697 49.7152ZM103.867 51.7743C104.333 52.0079 105.018 52.1054 105.729 52.1275C106.459 52.1503 107.289 52.0949 108.091 51.9755C108.892 51.8564 109.684 51.6709 110.335 51.4254C110.661 51.3026 110.962 51.1605 111.216 50.9967C111.465 50.8358 111.698 50.6346 111.846 50.3816L110.984 49.8748C110.945 49.9415 110.854 50.0403 110.673 50.1568C110.497 50.2703 110.265 50.3831 109.982 50.4897C109.417 50.703 108.698 50.8742 107.944 50.9864C107.191 51.0983 106.422 51.1486 105.76 51.128C105.078 51.1068 104.577 51.0117 104.315 50.8802L103.867 51.7743ZM102.168 48.0082C102.161 48.4128 102.149 49.1245 102.346 49.8365C102.546 50.5604 102.973 51.3267 103.867 51.7743L104.315 50.8802C103.751 50.5976 103.46 50.1158 103.31 49.5704C103.156 49.0132 103.161 48.4346 103.168 48.0242L102.168 48.0082ZM104.499 45.3357C103.86 45.4554 103.289 45.9024 102.89 46.3775C102.496 46.8464 102.177 47.457 102.168 48.0082L103.168 48.0242C103.171 47.8007 103.331 47.407 103.656 47.0202C103.975 46.6396 104.359 46.3793 104.684 46.3185L104.499 45.3357ZM107.865 45.9893C107.356 45.5485 106.871 45.2936 106.3 45.2073C105.753 45.1246 105.171 45.2046 104.496 45.3364L104.687 46.3178C105.355 46.1875 105.789 46.1413 106.151 46.196C106.488 46.2471 106.804 46.3933 107.21 46.745L107.865 45.9893ZM107.537 38.8197C107.844 39.264 107.953 39.9022 107.823 40.6094C107.694 41.312 107.336 42.0378 106.778 42.614L107.497 43.3097C108.193 42.5908 108.642 41.6854 108.806 40.7897C108.97 39.8986 108.857 38.9712 108.36 38.2516L107.537 38.8197ZM106.144 37.5129C106.837 38.0905 107.31 38.4903 107.537 38.8197L108.36 38.2516C108.036 37.7812 107.426 37.2795 106.784 36.7445L106.144 37.5129ZM101.775 32.6442C103.062 34.9503 104.869 36.4511 106.144 37.5129L106.784 36.7445C105.506 35.68 103.835 34.2832 102.648 32.1568L101.775 32.6442ZM99.0525 32.1809C99.9181 31.5834 101.013 31.9428 101.865 32.7611L102.557 32.0398C101.583 31.1035 99.9466 30.3487 98.4845 31.3578L99.0525 32.1809ZM98.3303 36.4997C97.5247 34.5106 98.1319 32.8162 99.0525 32.1809L98.4845 31.3578C97.0773 32.329 96.4726 34.5769 97.4035 36.8751L98.3303 36.4997ZM97.3731 41.8948C98.0175 40.9866 98.4121 40.2056 98.5616 39.3524C98.7105 38.5026 98.6069 37.634 98.3533 36.5713L97.3806 36.8035C97.6222 37.8159 97.6908 38.5283 97.5766 39.1797C97.4631 39.8277 97.1592 40.4681 96.5575 41.3161L97.3731 41.8948ZM96.5763 45.9911C96.1431 45.7527 95.9009 45.1822 96.0138 44.357C96.1243 43.5493 96.5714 42.6405 97.302 41.9751L96.6286 41.2358C95.7261 42.0579 95.1656 43.1798 95.023 44.2215C94.8829 45.2457 95.1422 46.3433 96.0942 46.8672L96.5763 45.9911ZM99.5532 46.0628C98.869 46.6989 97.8846 46.711 96.5763 45.9911L96.0942 46.8672C97.5564 47.6718 99.08 47.8682 100.234 46.7952L99.5532 46.0628ZM104.485 43.6036C103.039 44.0206 101.179 44.5508 99.5532 46.0628L100.234 46.7952C101.666 45.4639 103.307 44.9842 104.762 44.5645L104.485 43.6036ZM106.778 42.614C106.581 42.8178 106.293 42.9889 105.895 43.1499C105.496 43.3113 105.028 43.447 104.485 43.6036L104.762 44.5645C105.291 44.4117 105.813 44.2616 106.27 44.0769C106.728 43.8919 107.161 43.6566 107.497 43.3097L106.778 42.614ZM50.6434 14.4409C50.7886 13.7522 50.961 13.3963 51.1972 13.1738C51.4341 12.9507 51.8094 12.7918 52.5333 12.6827L52.3843 11.6939C51.6 11.8121 50.9743 12.01 50.5116 12.4459C50.0482 12.8824 49.8224 13.4877 49.6649 14.2347L50.6434 14.4409ZM50.8992 15.4361C50.8503 15.1712 50.7797 14.7901 50.6398 14.2189L49.6685 14.4567C49.8017 15.0006 49.8682 15.36 49.9159 15.6179L50.8992 15.4361ZM50.8984 15.4316L50.8979 15.4289L49.9173 15.625L49.9178 15.6276L50.8984 15.4316ZM50.9024 15.4541L50.9022 15.4532L49.914 15.606L49.9141 15.6068L50.9024 15.4541ZM51.0017 15.8704C50.9779 15.8277 50.9607 15.7687 50.8999 15.4396L49.9166 15.6213C49.9653 15.885 50.0058 16.1377 50.1282 16.3573L51.0017 15.8704ZM51.3913 16.236C51.0741 15.9668 51.028 15.9176 51.0017 15.8704L50.1282 16.3573C50.2641 16.6011 50.4893 16.7821 50.7442 16.9985L51.3913 16.236ZM51.8442 16.6262C51.6607 16.4647 51.5114 16.338 51.3913 16.236L50.7442 16.9985C50.864 17.1001 51.0073 17.2218 51.1835 17.3769L51.8442 16.6262ZM55.5607 16.6838C55.0167 16.8651 54.3428 17.0874 53.6571 17.1394C52.98 17.1907 52.3501 17.0715 51.8442 16.6262L51.1836 17.3769C51.9617 18.0617 52.8969 18.1999 53.7327 18.1365C54.5597 18.0738 55.3463 17.8094 55.8769 17.6325L55.5607 16.6838ZM55.6904 16.6407L55.5611 16.6837L55.8765 17.6327L56.0058 17.5897L55.6904 16.6407ZM59.3496 13.5734C58.9529 13.269 58.953 13.269 58.953 13.269C58.9529 13.269 58.9529 13.269 58.9529 13.269C58.9529 13.2691 58.9528 13.2692 58.9527 13.2693C58.9524 13.2696 58.9521 13.2701 58.9515 13.2708C58.9505 13.2722 58.9488 13.2743 58.9466 13.2772C58.9422 13.2829 58.9355 13.2915 58.9267 13.3029C58.9091 13.3257 58.8828 13.3594 58.8489 13.4026C58.781 13.4891 58.6826 13.6134 58.5612 13.7638C58.318 14.065 57.9837 14.4692 57.618 14.883C57.2511 15.2982 56.8589 15.7159 56.4992 16.0478C56.1185 16.3991 55.8394 16.5915 55.6912 16.6405L56.0051 17.5899C56.382 17.4653 56.8031 17.1281 57.1774 16.7828C57.5727 16.418 57.9902 15.972 58.3674 15.5452C58.7458 15.1169 59.09 14.7007 59.3392 14.3921C59.464 14.2376 59.5653 14.1096 59.6356 14.02C59.6708 13.9752 59.6982 13.9399 59.717 13.9157C59.7263 13.9036 59.7335 13.8943 59.7385 13.8879C59.7409 13.8847 59.7428 13.8823 59.7441 13.8805C59.7448 13.8797 59.7453 13.879 59.7457 13.8786C59.7458 13.8783 59.746 13.8782 59.7461 13.878C59.7461 13.8779 59.7462 13.8779 59.7462 13.8778C59.7463 13.8778 59.7463 13.8777 59.3496 13.5734ZM56.7383 12.747C57.2243 13.0781 57.8314 13.4002 58.3055 13.6352C58.5449 13.7538 58.7549 13.8525 58.9054 13.9216C58.9807 13.9562 59.0412 13.9835 59.0832 14.0022C59.1042 14.0116 59.1205 14.0188 59.1318 14.0238C59.1375 14.0263 59.1418 14.0282 59.1449 14.0295C59.1464 14.0302 59.1476 14.0307 59.1484 14.0311C59.1488 14.0313 59.1492 14.0314 59.1494 14.0315C59.1496 14.0316 59.1497 14.0316 59.1498 14.0317C59.1498 14.0317 59.1498 14.0317 59.1499 14.0317C59.1499 14.0317 59.1499 14.0318 59.3496 13.5734C59.5493 13.115 59.5493 13.115 59.5493 13.115C59.5493 13.115 59.5494 13.115 59.5494 13.115C59.5494 13.115 59.5493 13.115 59.5493 13.115C59.5492 13.1149 59.549 13.1148 59.5488 13.1147C59.5482 13.1145 59.5474 13.1141 59.5462 13.1136C59.5438 13.1126 59.5401 13.111 59.5352 13.1088C59.5253 13.1044 59.5103 13.0978 59.4908 13.0891C59.4518 13.0717 59.3946 13.0459 59.3229 13.0129C59.1794 12.947 58.9784 12.8526 58.7496 12.7392C58.2873 12.5101 57.7295 12.2123 57.3014 11.9206L56.7383 12.747ZM52.5333 12.6827C53.284 12.5696 54.1679 12.4547 54.9699 12.4422C55.3705 12.4359 55.7373 12.4555 56.049 12.5091C56.3654 12.5634 56.5922 12.6474 56.7383 12.747L57.3014 11.9206C56.9904 11.7087 56.6071 11.5903 56.2183 11.5235C55.8247 11.4559 55.3912 11.4355 54.9543 11.4423C54.0813 11.4559 53.1418 11.5797 52.3843 11.6939L52.5333 12.6827ZM51.7634 9.57258C51.0399 9.68394 50.6342 9.64394 50.3417 9.50146C50.05 9.35937 49.7794 9.07097 49.4358 8.45668L48.5631 8.94491C48.9358 9.61114 49.3315 10.1217 49.9038 10.4005C50.4754 10.6789 51.1316 10.6816 51.9155 10.5609L51.7634 9.57258ZM55.7586 8.25942C55.6488 8.39793 55.4573 8.54562 55.1714 8.69173C54.8898 8.83562 54.5454 8.96358 54.1612 9.07685C53.3918 9.30364 52.5138 9.4571 51.7634 9.57258L51.9155 10.5609C52.6727 10.4444 53.6065 10.2829 54.4439 10.036C54.8631 9.91248 55.2708 9.76393 55.6265 9.58218C55.9777 9.40265 56.3084 9.17556 56.5422 8.88068L55.7586 8.25942ZM58.0055 6.69309C57.6784 6.31493 57.6784 6.31495 57.6784 6.31498C57.6783 6.315 57.6783 6.31503 57.6783 6.31506C57.6782 6.31512 57.6781 6.31519 57.678 6.31528C57.6778 6.31546 57.6775 6.3157 57.6772 6.31601C57.6765 6.31661 57.6755 6.31746 57.6743 6.31855C57.6717 6.32072 57.6681 6.32385 57.6635 6.32791C57.6542 6.33601 57.6407 6.34781 57.6235 6.36301C57.589 6.3934 57.5393 6.43745 57.4777 6.49289C57.3547 6.60368 57.1835 6.76043 56.9903 6.94494C56.6077 7.3104 56.124 7.79857 55.7586 8.25942L56.5422 8.88068C56.864 8.47475 57.3079 8.02444 57.681 7.66812C57.8657 7.49174 58.0294 7.34176 58.1469 7.23606C58.2055 7.18325 58.2525 7.14161 58.2845 7.11337C58.3005 7.09926 58.3128 7.0885 58.321 7.08139C58.3251 7.07783 58.3281 7.07518 58.3301 7.07348C58.331 7.07263 58.3317 7.07202 58.3322 7.07165C58.3324 7.07146 58.3325 7.07133 58.3326 7.07127C58.3326 7.07124 58.3327 7.07122 58.3327 7.07122L58.3326 7.07123C58.3326 7.07124 58.3326 7.07126 58.0055 6.69309ZM53.5999 4.85417C53.756 4.85683 54.0797 4.95737 54.5477 5.17938C54.9899 5.38914 55.4887 5.67117 55.9626 5.95834C56.4348 6.24452 56.8743 6.53083 57.1961 6.74598C57.3569 6.85342 57.4878 6.9428 57.5783 7.00514C57.6236 7.0363 57.6587 7.06068 57.6823 7.07717C57.6941 7.08541 57.7031 7.09167 57.709 7.09582C57.7119 7.09789 57.7141 7.09943 57.7155 7.10043C57.7163 7.10093 57.7168 7.10129 57.7171 7.10151C57.7173 7.10162 57.7174 7.1017 57.7174 7.10174C57.7174 7.10176 57.7175 7.10176 57.7175 7.10178C57.7175 7.10177 57.7174 7.10176 58.0055 6.69309C58.2936 6.28442 58.2936 6.28439 58.2935 6.28435C58.2935 6.28433 58.2934 6.28428 58.2933 6.28423C58.2932 6.28413 58.293 6.284 58.2928 6.28382C58.2923 6.28349 58.2916 6.28301 58.2907 6.28239C58.289 6.28116 58.2864 6.27937 58.2831 6.27706C58.2765 6.27242 58.2668 6.26565 58.2543 6.2569C58.2292 6.23939 58.1925 6.21391 58.1456 6.1816C58.0518 6.11698 57.917 6.02496 57.7519 5.91461C57.4221 5.69417 56.9696 5.39929 56.4808 5.10311C55.9937 4.80793 55.4623 4.50642 54.9763 4.27588C54.5162 4.0576 54.0138 3.86107 53.6169 3.85432L53.5999 4.85417ZM53.4628 4.85161L53.599 4.85416L53.6177 3.85433L53.4815 3.85179L53.4628 4.85161ZM49.9316 6.013C50.282 5.43734 50.8478 5.13601 51.5095 4.98344C52.1796 4.82892 52.8891 4.84048 53.4625 4.8516L53.4819 3.85179C52.9227 3.84094 52.0931 3.82263 51.2848 4.00901C50.4681 4.19733 49.6164 4.60764 49.0774 5.49305L49.9316 6.013ZM49.6165 6.5186C49.7006 6.38585 49.8051 6.22093 49.9316 6.01299L49.0774 5.49306C48.9559 5.69271 48.8556 5.85109 48.7717 5.98344L49.6165 6.5186ZM49.6143 6.52204L49.6154 6.52032L48.7728 5.98172L48.7717 5.98344L49.6143 6.52204ZM49.3522 6.9854C49.3633 6.93254 49.3927 6.87179 49.6154 6.52035L48.7706 5.98513C48.5917 6.26757 48.4306 6.50735 48.3735 6.78058L49.3522 6.9854ZM49.3834 7.42699C49.3435 7.09469 49.3423 7.03323 49.3523 6.98532L48.3734 6.78065C48.322 7.02671 48.3585 7.28001 48.3905 7.54621L49.3834 7.42699ZM49.3819 7.41567L49.3817 7.41445L48.3922 7.55876L48.3923 7.55998L49.3819 7.41567ZM49.3839 7.431L49.3837 7.42916L48.3906 7.54649L48.3908 7.54832L49.3839 7.431ZM49.4985 8.66976C49.4619 8.08242 49.4158 7.69757 49.3838 7.43017L48.3909 7.54915C48.4221 7.80966 48.4656 8.17264 48.5004 8.73184L49.4985 8.66976ZM47.4019 6.57561C48.709 4.82652 49.5835 4.16061 51.288 3.09241L50.757 2.24504C48.9818 3.35749 48.0025 4.10132 46.6009 5.97701L47.4019 6.57561ZM43.922 7.18818C44.5917 7.34606 45.1704 7.44868 45.72 7.38727C46.2939 7.32314 46.7886 7.08732 47.3139 6.66658L46.6889 5.88603C46.2697 6.22172 45.9482 6.35555 45.609 6.39345C45.2455 6.43407 44.8141 6.37108 44.1514 6.21486L43.922 7.18818ZM41.6995 4.42788C41.6869 4.97899 41.9829 5.60157 42.3579 6.08549C42.7377 6.5757 43.2916 7.0445 43.9256 7.18901L44.1478 6.21402C43.8263 6.14072 43.4527 5.86574 43.1483 5.47297C42.8391 5.0739 42.6941 4.67428 42.6993 4.45074L41.6995 4.42788ZM43.5435 0.730685C42.6335 1.14326 42.1763 1.89236 41.9485 2.60787C41.7244 3.31171 41.7088 4.02342 41.6995 4.4279L42.6993 4.45073C42.7086 4.04041 42.726 3.46205 42.9013 2.91125C43.073 2.37211 43.3817 1.90199 43.9564 1.64145L43.5435 0.730685ZM51.4631 2.43224C51.3243 2.17372 51.0996 1.96366 50.857 1.7932C50.61 1.61963 50.314 1.4659 49.9936 1.3306C49.3528 1.05998 48.5684 0.843837 47.7727 0.69371C46.9754 0.543292 46.1485 0.455693 45.4178 0.450057C44.7068 0.444568 44.0185 0.515311 43.5435 0.730685L43.9564 1.64145C44.2237 1.52028 44.7279 1.44476 45.4101 1.45003C46.0726 1.45514 46.8396 1.5353 47.5873 1.67637C48.3365 1.81773 49.048 2.0168 49.6046 2.25183C49.8829 2.36937 50.1109 2.49107 50.2821 2.61139C50.4577 2.73482 50.5454 2.8371 50.582 2.90521L51.4631 2.43224ZM53.5488 18.8555C51.6127 18.3095 50.5863 17.9162 48.8404 16.605L48.2398 17.4046C50.1122 18.8107 51.2611 19.2493 53.2774 19.818L53.5488 18.8555ZM46.7803 23.2988C47.2967 23.3719 47.9771 23.2464 48.6579 23.0413C49.3576 22.8305 50.1266 22.514 50.8494 22.1456C51.5708 21.7778 52.2628 21.3499 52.8018 20.9101C53.0712 20.6902 53.3121 20.4595 53.5004 20.2235C53.6853 19.9917 53.8419 19.727 53.9024 19.4399L52.9239 19.2336C52.9079 19.3092 52.8525 19.4321 52.7186 19.5999C52.5881 19.7635 52.4036 19.9443 52.1695 20.1354C51.7014 20.5174 51.0745 20.9084 50.3952 21.2546C49.7173 21.6002 49.0038 21.8927 48.3695 22.0838C47.7163 22.2806 47.2111 22.3498 46.9205 22.3086L46.7803 23.2988ZM43.9715 20.2689C44.094 20.6544 44.309 21.3331 44.7219 21.9456C45.1417 22.5682 45.791 23.1586 46.7803 23.2988L46.9205 22.3086C46.2958 22.2201 45.8674 21.8557 45.5511 21.3866C45.228 20.9073 45.0488 20.3571 44.9245 19.966L43.9715 20.2689ZM45.3317 16.9934C44.764 17.3102 44.3642 17.9158 44.1374 18.4931C43.9136 19.0629 43.8045 19.7435 43.9715 20.2689L44.9245 19.966C44.8568 19.7529 44.8835 19.3286 45.0682 18.8587C45.2498 18.3962 45.5311 18.0273 45.8191 17.8666L45.3317 16.9934ZM48.7304 16.5424C48.1079 16.2863 47.5669 16.199 46.9981 16.2988C46.4534 16.3943 45.9269 16.6554 45.3285 16.9952L45.8223 17.8648C46.4143 17.5286 46.8106 17.3469 47.1709 17.2837C47.5071 17.2248 47.8532 17.2628 48.3498 17.4672L48.7304 16.5424ZM46.139 9.8494C46.5711 10.1731 46.877 10.7436 46.9791 11.4553C47.0805 12.1624 46.9721 12.9643 46.6264 13.6882L47.5288 14.1191C47.96 13.2161 48.0982 12.2148 47.9689 11.3133C47.8403 10.4165 47.4383 9.57321 46.7385 9.04903L46.139 9.8494ZM44.4025 9.05399C45.2436 9.38094 45.8187 9.60954 46.139 9.84941L46.7385 9.04903C46.2811 8.70645 45.5438 8.42476 44.7648 8.12194L44.4025 9.05399ZM44.3749 9.04232L44.3753 9.04248L44.792 8.13345L44.7916 8.13329L44.3749 9.04232ZM38.7109 5.82809C40.665 7.60491 42.8558 8.45273 44.4021 9.05383L44.7644 8.12178C43.2142 7.51916 41.1855 6.72659 39.3837 5.08823L38.7109 5.82809ZM35.9829 6.25483C36.6135 5.41305 37.7657 5.40553 38.8337 5.91022L39.261 5.0061C38.0388 4.42855 36.2478 4.23344 35.1826 5.65528L35.9829 6.25483ZM36.6723 10.579C35.2756 8.94959 35.3123 7.15002 35.9829 6.25483L35.1826 5.65528C34.1575 7.0237 34.2993 9.34713 35.913 11.2298L36.6723 10.579ZM37.4811 15.9983C37.8031 14.9323 37.9287 14.0664 37.799 13.2099C37.6699 12.357 37.2953 11.5664 36.7168 10.6397L35.8685 11.1692C36.4197 12.0522 36.7113 12.7057 36.8103 13.3596C36.9088 14.01 36.8245 14.7138 36.5238 15.7092L37.4811 15.9983ZM38.0289 20.1353C37.5423 20.0471 37.1312 19.5833 36.9757 18.7651C36.8236 17.9642 36.9583 16.9604 37.4393 16.0971L36.5657 15.6104C35.9716 16.6769 35.797 17.9189 35.9933 18.9518C36.1863 19.9674 36.7813 20.9255 37.8505 21.1193L38.0289 20.1353ZM40.8739 19.2563C40.4276 20.077 39.4983 20.4016 38.0289 20.1353L37.8505 21.1193C39.4927 21.4169 40.9997 21.1184 41.7524 19.734L40.8739 19.2563ZM44.7667 15.3561C43.529 16.2112 41.9346 17.3055 40.8739 19.2563L41.7524 19.734C42.6863 18.0163 44.0893 17.0396 45.3351 16.1788L44.7667 15.3561ZM46.6264 13.6882C46.5042 13.9441 46.2859 14.1978 45.9596 14.4771C45.6326 14.7571 45.2317 15.0348 44.7667 15.3561L45.3351 16.1788C45.7886 15.8654 46.2359 15.5571 46.61 15.2367C46.9849 14.9157 47.3207 14.5548 47.5288 14.1191L46.6264 13.6882ZM15.8445 56.7996C16.2485 56.2232 16.5469 55.9637 16.8515 55.8518C17.1569 55.7397 17.5645 55.7409 18.2731 55.9249L18.5244 54.957C17.7567 54.7577 17.1036 54.694 16.5068 54.9131C15.9092 55.1325 15.4639 55.6005 15.0257 56.2256L15.8445 56.7996ZM15.6882 57.8187C15.7472 57.5557 15.8323 57.1768 15.9284 56.594L14.9418 56.4312C14.8502 56.9861 14.7699 57.3435 14.7124 57.5996L15.6882 57.8187ZM15.6125 58.2549C15.6074 58.2063 15.6149 58.1453 15.6882 57.8186L14.7124 57.5997C14.6538 57.8612 14.5917 58.1095 14.618 58.3596L15.6125 58.2549ZM15.8273 58.7442C15.6413 58.3721 15.6182 58.3086 15.6125 58.2548L14.618 58.3597C14.6473 58.6372 14.7832 58.892 14.9328 59.1913L15.8273 58.7442ZM16.0906 59.2809C15.9852 59.0603 15.8977 58.8851 15.8273 58.7442L14.9327 59.1913C15.0029 59.3318 15.087 59.4999 15.1881 59.7117L16.0906 59.2809ZM19.4858 60.7936C18.9142 60.7466 18.2072 60.6863 17.5562 60.4648C16.9133 60.2461 16.3809 59.8891 16.0906 59.2809L15.1881 59.7117C15.6347 60.6471 16.4406 61.1415 17.234 61.4115C18.0193 61.6787 18.8465 61.7444 19.4039 61.7902L19.4858 60.7936ZM19.6219 60.8049L19.4861 60.7936L19.4035 61.7902L19.5393 61.8014L19.6219 60.8049ZM24.1918 59.4212C23.9466 58.9855 23.9466 58.9855 23.9466 58.9855C23.9466 58.9855 23.9466 58.9855 23.9465 58.9855C23.9465 58.9855 23.9464 58.9856 23.9462 58.9857C23.9459 58.9859 23.9453 58.9862 23.9446 58.9866C23.943 58.9875 23.9407 58.9888 23.9376 58.9905C23.9313 58.9941 23.9217 58.9994 23.9091 59.0064C23.8839 59.0204 23.8465 59.0411 23.7984 59.0675C23.702 59.1204 23.5627 59.1961 23.3919 59.2867C23.05 59.4682 22.5838 59.7085 22.085 59.9455C21.5845 60.1832 21.0597 60.4133 20.5986 60.5773C20.1106 60.7508 19.7783 60.8181 19.6227 60.8049L19.5385 61.8014C19.934 61.8348 20.4537 61.6901 20.9336 61.5195C21.4404 61.3393 21.9996 61.0931 22.5141 60.8487C23.0303 60.6035 23.5103 60.356 23.8607 60.17C24.0361 60.0769 24.1795 59.999 24.2794 59.9442C24.3293 59.9168 24.3684 59.8952 24.3952 59.8803C24.4086 59.8729 24.4188 59.8671 24.4259 59.8632C24.4294 59.8612 24.4321 59.8597 24.434 59.8586C24.4349 59.8581 24.4357 59.8577 24.4362 59.8574C24.4364 59.8573 24.4366 59.8572 24.4368 59.8571C24.4369 59.857 24.4369 59.857 24.437 59.857C24.437 59.8569 24.4371 59.8569 24.1918 59.4212ZM22.1149 57.6356C22.4318 58.131 22.8636 58.6656 23.2073 59.0679C23.3809 59.271 23.5353 59.4443 23.6465 59.567C23.7022 59.6284 23.7471 59.6772 23.7783 59.7109C23.794 59.7278 23.8062 59.7409 23.8146 59.7499C23.8188 59.7544 23.8221 59.7579 23.8244 59.7603C23.8255 59.7615 23.8264 59.7625 23.827 59.7631C23.8273 59.7635 23.8276 59.7637 23.8278 59.7639C23.8279 59.764 23.8279 59.7641 23.828 59.7642C23.828 59.7642 23.8281 59.7642 23.8281 59.7643C23.8281 59.7643 23.8282 59.7643 24.1918 59.4212C24.5555 59.0781 24.5555 59.0781 24.5555 59.0781L24.5556 59.0781C24.5555 59.0781 24.5555 59.0781 24.5555 59.0781C24.5554 59.078 24.5553 59.0778 24.5551 59.0776C24.5547 59.0772 24.5541 59.0765 24.5532 59.0756C24.5514 59.0737 24.5486 59.0708 24.5449 59.0668C24.5376 59.0589 24.5264 59.047 24.5119 59.0313C24.4829 59 24.4404 58.9538 24.3874 58.8953C24.2813 58.7783 24.1335 58.6125 23.9676 58.4183C23.6325 58.0261 23.2365 57.5332 22.9574 57.0968L22.1149 57.6356ZM18.2731 55.9249C19.0079 56.1157 19.8659 56.3572 20.6084 56.6607C20.9792 56.8123 21.3089 56.9744 21.5744 57.1461C21.8441 57.3203 22.0197 57.4867 22.1149 57.6356L22.9574 57.0968C22.7546 56.7798 22.4486 56.5204 22.1173 56.3062C21.7819 56.0894 21.3912 55.9004 20.9867 55.735C20.1786 55.4047 19.2659 55.1495 18.5244 54.957L18.2731 55.9249ZM18.7866 52.7623C18.0775 52.5806 17.7201 52.3845 17.5071 52.1385C17.2946 51.8933 17.1591 51.5218 17.0843 50.8219L16.09 50.9281C16.171 51.6872 16.3344 52.3122 16.7513 52.7933C17.1676 53.2738 17.77 53.5341 18.5383 53.731L18.7866 52.7623ZM22.9765 53.1239C22.8211 53.2081 22.587 53.2687 22.2667 53.2908C21.9512 53.3125 21.5843 53.2949 21.1864 53.2482C20.3898 53.1546 19.522 52.9508 18.7866 52.7623L18.5383 53.731C19.2804 53.9212 20.2026 54.1395 21.0697 54.2414C21.5037 54.2924 21.937 54.3159 22.3354 54.2884C22.729 54.2613 23.1223 54.1823 23.4532 54.003L22.9765 53.1239ZM25.6581 52.5659C25.5058 52.0897 25.5058 52.0897 25.5057 52.0897C25.5057 52.0897 25.5056 52.0897 25.5056 52.0897C25.5055 52.0897 25.5054 52.0898 25.5053 52.0898C25.505 52.0899 25.5046 52.09 25.5042 52.0902C25.5033 52.0904 25.5021 52.0908 25.5005 52.0914C25.4974 52.0924 25.4928 52.0938 25.487 52.0957C25.4752 52.0995 25.4582 52.1051 25.4364 52.1123C25.3927 52.1267 25.3297 52.1477 25.2513 52.1745C25.0946 52.2281 24.8757 52.305 24.6255 52.3988C24.1301 52.5846 23.4935 52.8435 22.9765 53.1239L23.4532 54.003C23.9085 53.7561 24.4936 53.5163 24.9767 53.3351C25.2158 53.2455 25.4253 53.1719 25.5748 53.1207C25.6495 53.0952 25.709 53.0754 25.7496 53.062C25.7698 53.0553 25.7854 53.0502 25.7957 53.0469C25.8008 53.0452 25.8046 53.044 25.8071 53.0432C25.8083 53.0428 25.8092 53.0425 25.8098 53.0423C25.8101 53.0422 25.8102 53.0422 25.8103 53.0422C25.8104 53.0421 25.8104 53.0421 25.8104 53.0421L25.8104 53.0421C25.8104 53.0421 25.8103 53.0422 25.6581 52.5659ZM22.3287 49.1444C22.4712 49.2081 22.7295 49.4278 23.0727 49.8157C23.3969 50.1823 23.7448 50.6376 24.0679 51.0878C24.3898 51.5365 24.6815 51.9724 24.8929 52.2966C24.9986 52.4586 25.0839 52.5922 25.1426 52.6851C25.172 52.7315 25.1947 52.7677 25.21 52.7922C25.2176 52.8044 25.2234 52.8137 25.2272 52.8198C25.2291 52.8229 25.2305 52.8251 25.2314 52.8266C25.2319 52.8274 25.2322 52.8279 25.2324 52.8282C25.2325 52.8284 25.2326 52.8285 25.2326 52.8286C25.2326 52.8286 25.2326 52.8286 25.2326 52.8286C25.2326 52.8286 25.2326 52.8286 25.6581 52.5659C26.0835 52.3032 26.0835 52.3032 26.0834 52.3031C26.0834 52.3031 26.0834 52.303 26.0833 52.3029C26.0832 52.3028 26.0831 52.3026 26.083 52.3023C26.0826 52.3018 26.0822 52.3011 26.0816 52.3002C26.0805 52.2984 26.0789 52.2958 26.0768 52.2923C26.0725 52.2855 26.0663 52.2755 26.0581 52.2625C26.0419 52.2365 26.0182 52.1987 25.9878 52.1505C25.9269 52.0543 25.839 51.9167 25.7305 51.7504C25.5138 51.4181 25.2135 50.9692 24.8804 50.5049C24.5483 50.0421 24.178 49.5561 23.8217 49.1532C23.4842 48.7717 23.0994 48.3937 22.7371 48.2316L22.3287 49.1444ZM22.2037 49.0882L22.328 49.1441L22.7378 48.2319L22.6135 48.176L22.2037 49.0882ZM18.5001 48.7693C19.0484 48.3776 19.6871 48.3227 20.3555 48.4422C21.0325 48.5633 21.6804 48.8526 22.2033 49.0881L22.6139 48.1762C22.1039 47.9466 21.3481 47.6039 20.5316 47.4579C19.7066 47.3103 18.7621 47.3531 17.9188 47.9557L18.5001 48.7693ZM18.01 49.1117C18.1398 49.0224 18.3012 48.9115 18.5001 48.7693L17.9188 47.9557C17.7277 48.0922 17.5728 48.1987 17.4433 48.2877L18.01 49.1117ZM17.5854 49.436C17.6163 49.3918 17.6672 49.3474 18.01 49.1117L17.4434 48.2877C17.1678 48.4772 16.9256 48.6344 16.7656 48.8633L17.5854 49.436ZM17.4405 49.8544C17.5344 49.5331 17.5574 49.4761 17.5854 49.436L16.7656 48.8633C16.6216 49.0694 16.5558 49.3167 16.4806 49.5741L17.4405 49.8544ZM17.4287 49.8899L17.4288 49.8895L16.4923 49.5389L16.4922 49.5393L17.4287 49.8899ZM17.0583 51.0425C17.256 50.4861 17.3648 50.1134 17.4404 49.8548L16.4805 49.5744C16.4069 49.8264 16.3043 50.1779 16.116 50.7076L17.0583 51.0425ZM15.9527 48.2932C17.8417 47.198 18.9075 46.9291 20.8946 46.6162L20.7391 45.6284C18.6696 45.9542 17.4768 46.2536 15.4511 47.4281L15.9527 48.2932ZM12.5118 47.4897C13.0657 47.898 13.5576 48.2196 14.0872 48.379C14.6402 48.5455 15.1877 48.5229 15.8361 48.3423L15.5678 47.3789C15.0505 47.523 14.7022 47.5198 14.3754 47.4214C14.0251 47.316 13.6532 47.0887 13.1051 46.6847L12.5118 47.4897ZM11.5521 44.0784C11.324 44.5802 11.3517 45.269 11.5065 45.8613C11.6633 46.4613 11.9885 47.11 12.5148 47.4919L13.1021 46.6826C12.8352 46.4889 12.5996 46.0892 12.474 45.6085C12.3464 45.12 12.37 44.6956 12.4625 44.492L11.5521 44.0784ZM14.7 41.4025C13.7011 41.4245 12.9864 41.9338 12.4958 42.5024C12.0133 43.0616 11.7194 43.71 11.5521 44.0784L12.4625 44.492C12.6323 44.1184 12.8754 43.5933 13.253 43.1556C13.6226 42.7272 14.0912 42.4162 14.722 42.4023L14.7 41.4025ZM21.3148 46.0778C21.2888 45.7856 21.1646 45.5042 21.0085 45.2521C20.8495 44.9955 20.6376 44.7378 20.3961 44.4876C19.9131 43.987 19.2766 43.4801 18.6038 43.0296C17.9298 42.5781 17.2037 42.1728 16.5339 41.8806C15.8822 41.5963 15.2214 41.391 14.7 41.4025L14.722 42.4023C15.0154 42.3958 15.5088 42.5244 16.1341 42.7972C16.7414 43.0621 17.4152 43.437 18.0474 43.8604C18.6809 44.2847 19.257 44.7472 19.6766 45.182C19.8864 45.3994 20.0482 45.6008 20.1584 45.7787C20.2715 45.9612 20.3119 46.0897 20.3188 46.1667L21.3148 46.0778ZM16.7826 62.0005C15.2165 60.738 14.4271 59.9731 13.3364 58.0815L12.4701 58.5811C13.6397 60.6096 14.524 61.4642 16.1549 62.779L16.7826 62.0005ZM8.81279 63.4283C9.25898 63.6984 9.93404 63.8502 10.6407 63.929C11.3669 64.0099 12.1984 64.0209 13.0078 63.966C13.8157 63.9111 14.6202 63.7894 15.2886 63.5966C15.6227 63.5002 15.9349 63.3826 16.2007 63.2395C16.4618 63.099 16.7098 62.9171 16.8782 62.6768L16.0593 62.1028C16.0149 62.1661 15.9158 62.2573 15.7267 62.359C15.5425 62.4582 15.3017 62.5521 15.0114 62.6358C14.4309 62.8032 13.7008 62.9166 12.9401 62.9682C12.181 63.0198 11.41 63.0085 10.7515 62.9351C10.0735 62.8595 9.58173 62.7248 9.33069 62.5728L8.81279 63.4283ZM7.41974 59.5387C7.38101 59.9414 7.31221 60.65 7.45136 61.3754C7.59281 62.1129 7.95807 62.9108 8.81279 63.4283L9.33069 62.5728C8.79095 62.2461 8.54005 61.7427 8.43346 61.187C8.32456 60.6193 8.37585 60.043 8.41515 59.6344L7.41974 59.5387ZM9.95717 57.0607C9.3106 57.1291 8.70505 57.529 8.26981 57.9708C7.84015 58.4068 7.47253 58.99 7.41974 59.5387L8.41515 59.6344C8.43655 59.4119 8.62782 59.0322 8.98215 58.6726C9.33088 58.3186 9.73441 58.0898 10.0624 58.0551L9.95717 57.0607ZM13.2598 57.9808C12.788 57.5008 12.3248 57.208 11.7625 57.0764C11.224 56.9503 10.6372 56.9837 9.9535 57.0611L10.0661 58.0547C10.7426 57.9781 11.1783 57.9667 11.5345 58.0501C11.8668 58.1279 12.1702 58.2988 12.5467 58.6818L13.2598 57.9808ZM13.5054 50.8079C13.7757 51.2753 13.8329 51.92 13.6473 52.6147C13.4628 53.3048 13.0482 53.9997 12.446 54.5296L13.1066 55.2803C13.8578 54.6193 14.3782 53.7527 14.6133 52.8729C14.8473 51.9976 14.8088 51.0642 14.3711 50.3073L13.5054 50.8079ZM12.2206 49.394C12.8658 50.0252 13.3051 50.4614 13.5054 50.8079L14.3711 50.3073C14.085 49.8125 13.5174 49.2638 12.9199 48.6792L12.2206 49.394ZM8.25374 44.1922C9.35286 46.5937 11.0347 48.2339 12.2206 49.394L12.9199 48.6792C11.731 47.5162 10.1765 45.9904 9.16302 43.7761L8.25374 44.1922ZM5.57734 43.5132C6.48787 42.9868 7.55043 43.4324 8.33436 44.316L9.0824 43.6523C8.18532 42.6412 6.61479 41.7583 5.0768 42.6475L5.57734 43.5132ZM4.51287 47.7607C3.86846 45.7137 4.60903 44.0731 5.57734 43.5132L5.0768 42.6475C3.59659 43.5034 2.81446 45.6958 3.55902 48.061L4.51287 47.7607ZM3.12825 53.0622C3.84303 52.2083 4.29867 51.4613 4.51581 50.6227C4.73205 49.7876 4.69803 48.9135 4.53 47.8339L3.54189 47.9877C3.702 49.0162 3.71353 49.7318 3.54774 50.372C3.38285 51.0088 3.02887 51.623 2.36144 52.4203L3.12825 53.0622ZM2.00717 57.0818C1.59431 56.8096 1.39841 56.2216 1.5768 55.4081C1.75141 54.6118 2.26961 53.7416 3.05097 53.1366L2.43873 52.3459C1.47348 53.0933 0.825208 54.1669 0.600002 55.194C0.378584 56.2037 0.549524 57.3185 1.45669 57.9167L2.00717 57.0818ZM4.96878 57.3909C4.23605 57.9704 3.25386 57.9039 2.00717 57.0819L1.45668 57.9167C2.84998 58.8354 4.35309 59.1528 5.58911 58.1752L4.96878 57.3909ZM10.0806 55.333C8.60658 55.6333 6.71042 56.0134 4.96878 57.3909L5.58911 58.1752C7.12261 56.9624 8.79647 56.6152 10.2802 56.3129L10.0806 55.333ZM12.446 54.5296C12.233 54.717 11.9326 54.8645 11.5229 54.9932C11.1122 55.1223 10.6344 55.2202 10.0806 55.333L10.2803 56.3129C10.8204 56.2028 11.3528 56.0949 11.8227 55.9473C12.2935 55.7993 12.7441 55.5993 13.1066 55.2803L12.446 54.5296Z" fill="black"/>
</svg>
