<svg width="27" height="30" viewBox="0 0 27 30" fill="none" xmlns="http://www.w3.org/2000/svg">
<path fill-rule="evenodd" clip-rule="evenodd" d="M14.9254 24.0619C21.1519 24.0619 26.1994 18.6755 26.1994 12.031C26.1994 5.38645 21.1519 0 14.9254 0C8.69893 0 3.65137 5.38645 3.65137 12.031C3.65137 18.6755 8.69893 24.0619 14.9254 24.0619ZM14.9254 20.0516C19.0764 20.0516 22.4414 16.4607 22.4414 12.031C22.4414 7.60129 19.0764 4.01032 14.9254 4.01032C10.7744 4.01032 7.40938 7.60129 7.40938 12.031C7.40938 16.4607 10.7744 20.0516 14.9254 20.0516Z" fill="#FFC898"/>
<rect width="12.4955" height="3.88622" rx="1.94311" transform="matrix(0.68378 -0.729688 0.68378 0.729688 0.0996094 27.1643)" fill="#FFC898"/>
</svg>
