<svg width="135" height="195" viewBox="0 0 135 195" fill="none" xmlns="http://www.w3.org/2000/svg">
<path fill-rule="evenodd" clip-rule="evenodd" d="M133.311 4.63086C133.607 4.5308 133.966 4.66447 134.114 4.9294C134.262 5.19434 134.142 5.49023 133.846 5.59029L131.877 6.2568C132.001 6.9208 131.636 7.56515 130.914 7.83297L115.173 13.6703C115.243 14.4319 115.042 15.1753 114.602 15.8007L124.573 21.6584C125.189 22.0202 125.387 22.7071 125.016 23.1926C124.992 23.2244 124.966 23.2545 124.938 23.283L126.854 24.2839C127.013 24.3669 127.074 24.5366 126.99 24.663C126.907 24.7894 126.71 24.8246 126.551 24.7416L124.359 23.5966C123.999 23.6799 123.583 23.6247 123.228 23.4164L112.652 17.2032C110.55 17.9159 107.976 17.0948 106.769 15.2777C105.576 13.4814 106.146 11.3529 108.016 10.3548L109.56 0.589224C109.623 0.18737 109.943 -0.113904 110.363 -0.224874L110.385 -1.74781C110.387 -1.89925 110.534 -2.00986 110.712 -1.99486C110.89 -1.97986 111.033 -1.84492 111.031 -1.69348L111.01 -0.245199C111.717 -0.114246 112.214 0.471215 112.121 1.0627L110.734 9.8339C111.649 9.91407 112.545 10.2264 113.295 10.7331L129.132 4.86027C129.867 4.58781 130.748 4.78808 131.321 5.30474L133.311 4.63086ZM114.795 40.7792C114.564 40.5571 114.161 40.5337 113.895 40.727L112.33 41.8637C111.595 41.5185 110.649 41.5913 109.997 42.0981L97.55 51.7672C96.6737 51.4612 95.7307 51.3832 94.854 51.5373L93.0114 42.5568C92.8908 41.9692 92.2238 41.5347 91.5214 41.5862L91.0202 40.1476C90.9709 40.0061 90.7925 39.9162 90.6217 39.9468C90.451 39.9775 90.3525 40.1171 90.4019 40.2587L90.9275 41.7673C90.5764 41.9782 90.3853 42.3453 90.4672 42.7444L92.5181 52.7398C91.1383 54.1943 91.3681 56.4259 93.1141 57.8833C94.8802 59.3576 97.5603 59.5075 99.2565 58.2739L111.355 61.6946C111.734 61.8019 112.119 61.7439 112.409 61.5664L114.849 62.1305C115.017 62.1695 115.18 62.0833 115.213 61.9381C115.246 61.7929 115.136 61.6436 114.968 61.6047L112.818 61.1076C112.833 61.0726 112.847 61.0363 112.858 60.999C113.03 60.4285 112.635 59.8152 111.976 59.6289L100.566 56.4028C100.752 55.6776 100.674 54.8977 100.337 54.1689L112.708 44.5589C113.349 44.0606 113.515 43.2919 113.184 42.656L114.732 41.5315C114.998 41.3382 115.027 41.0014 114.795 40.7792ZM53.8467 41.8595C54.0413 41.5829 54.4363 41.4888 54.7289 41.6492C55.0215 41.8097 55.1009 42.164 54.9063 42.4406L53.8799 43.8995C54.3981 44.4579 54.4832 45.2985 54.0258 46.0002L45.9458 58.396C46.5125 59.0277 46.8571 59.7738 46.9369 60.532L58.7257 60.8589C59.3749 60.8769 59.933 61.3801 59.9722 61.9828C59.9747 62.0223 59.975 62.0613 59.9731 62.0996L62.1559 62.052C62.3202 62.0484 62.4697 62.1677 62.4898 62.3184C62.51 62.4691 62.3932 62.5942 62.2289 62.5978L59.7637 62.6515C59.5649 62.8987 59.242 63.052 58.8676 63.0416L46.3713 62.6951C45.2235 64.329 42.6781 64.8495 40.5214 63.842C38.3895 62.846 37.3982 60.7123 38.1749 58.9406L32.7737 49.6197C32.5625 49.2552 32.6158 48.8533 32.8706 48.562L31.8515 47.2057C31.7596 47.0835 31.8052 46.9255 31.9534 46.8529C32.1015 46.7802 32.296 46.8204 32.3879 46.9427L33.3615 48.2383C33.9969 48.0129 34.7639 48.2651 35.0749 48.8019L39.9288 57.1783C40.6906 56.8086 41.5952 56.6503 42.517 56.7325C42.5256 56.7185 42.5345 56.7046 42.5435 56.6907L50.6466 44.2594C51.1116 43.546 51.9956 43.1937 52.8094 43.3339L53.8467 41.8595ZM73.335 84.466C73.0108 84.368 72.6622 84.5491 72.5563 84.8705L72.0069 86.5374C71.1932 86.5734 70.4539 87.1215 70.2164 87.9427L66.1867 101.874C66.1785 101.902 66.1709 101.931 66.164 101.959C65.2658 102.07 64.4542 102.416 63.8396 102.941L56.7913 95.6486C56.3421 95.1839 55.5433 95.0959 55.007 95.4519L53.7043 94.3694C53.5827 94.2684 53.3876 94.27 53.2684 94.3729C53.1492 94.4757 53.1511 94.641 53.2726 94.742L54.6357 95.8746C54.4786 96.2156 54.5441 96.6236 54.849 96.939L62.6916 105.053C62.4725 106.971 64.0345 108.879 66.3456 109.421C68.6834 109.969 70.9438 108.923 71.555 107.065L83.5123 104.799C83.8662 104.732 84.124 104.513 84.2378 104.227L86.5581 103.66C86.7112 103.622 86.7843 103.474 86.7212 103.329C86.6581 103.184 86.4828 103.097 86.3296 103.134L84.2722 103.637C84.2628 103.599 84.2512 103.56 84.2372 103.522C84.0242 102.933 83.3543 102.549 82.7409 102.666L71.4601 104.803C71.1633 104.068 70.6189 103.401 69.8975 102.893L73.9269 88.9628C74.1606 88.1552 73.8388 87.3255 73.1864 86.8749L73.73 85.2253C73.836 84.9039 73.6591 84.564 73.335 84.466ZM31.0337 116.517C31.0797 116.185 31.3874 115.962 31.721 116.019C32.0546 116.077 32.2878 116.392 32.2418 116.724L32.0026 118.451C32.7192 118.817 33.1808 119.601 33.0966 120.431L31.6292 134.917C32.423 135.334 33.0723 135.934 33.492 136.633L44.1148 133.066C44.6958 132.871 45.4198 133.169 45.7319 133.733C45.7524 133.769 45.7705 133.807 45.7865 133.844L47.7037 133.08C47.8472 133.023 48.0342 133.088 48.1214 133.225C48.2087 133.363 48.1631 133.52 48.0197 133.577L45.856 134.44C45.7946 134.741 45.5802 134.993 45.2451 135.106L33.9848 138.887C33.7174 140.826 31.6973 142.161 29.3191 141.907C26.9682 141.656 25.1065 139.942 24.9807 137.993L15.8944 130.858C15.5402 130.579 15.4033 130.178 15.4959 129.817L13.9662 128.855C13.8291 128.769 13.7975 128.603 13.8956 128.485C13.9937 128.367 14.1843 128.341 14.3214 128.427L15.7831 129.346C16.2434 128.921 17.0392 128.909 17.561 129.319L25.7268 135.732C26.2333 135.128 26.9637 134.679 27.8204 134.454C27.8219 134.431 27.8238 134.408 27.8262 134.384L29.2956 119.879C29.3812 119.034 30.0047 118.399 30.792 118.262L31.0337 116.517ZM77.3992 161.164C77.0883 161.034 76.7127 161.175 76.5604 161.478L75.7652 163.059C74.9442 163.009 74.1241 163.466 73.7679 164.244L67.6881 177.517C67.6769 177.541 67.6664 177.565 67.6564 177.59C66.7392 177.605 65.8747 177.86 65.1817 178.312L59.1737 170.42C58.7904 169.917 58.0016 169.747 57.4117 170.04L56.2628 168.842C56.1553 168.73 55.9591 168.711 55.8245 168.8C55.69 168.888 55.668 169.051 55.7754 169.163L56.9777 170.416C56.7705 170.735 56.777 171.143 57.0372 171.485L63.7223 180.265C63.2232 182.125 64.5124 184.16 66.7519 184.933C69.0174 185.715 71.4375 184.923 72.3213 183.163L84.6444 182.184C85.0101 182.155 85.3014 181.967 85.4578 181.698L87.8684 181.383C88.0278 181.362 88.1229 181.224 88.0808 181.075C88.0386 180.926 87.8752 180.822 87.7157 180.843L85.579 181.123C85.5751 181.084 85.5691 181.045 85.5607 181.006C85.4328 180.405 84.8153 179.959 84.1813 180.01L72.5556 180.933C72.3649 180.181 71.9161 179.469 71.2663 178.895L77.3418 165.632C77.6922 164.867 77.4888 164.022 76.8994 163.513L77.6862 161.948C77.8386 161.645 77.7101 161.294 77.3992 161.164ZM24.7528 173.171C24.5216 172.949 24.1184 172.925 23.8522 173.118L22.2861 174.254C21.5517 173.908 20.6056 173.98 19.9527 174.486L7.49386 184.145C6.61788 183.838 5.67495 183.759 4.79809 183.913L2.96514 174.931C2.84519 174.344 2.1786 173.909 1.47612 173.96L0.97649 172.521C0.927311 172.379 0.748985 172.289 0.578193 172.32C0.407401 172.35 0.308813 172.49 0.357996 172.631L0.881965 174.14C0.530652 174.351 0.339079 174.718 0.420542 175.117L2.46061 185.113C1.07907 186.566 1.30637 188.798 3.05092 190.257C4.8156 191.732 7.49573 191.884 9.19338 190.652L21.2887 194.082C21.6684 194.19 22.0531 194.132 22.3438 193.955L24.7829 194.521C24.9512 194.56 25.1143 194.474 25.1472 194.328C25.18 194.183 25.0703 194.034 24.902 193.995L22.753 193.496C22.7684 193.461 22.7818 193.425 22.7931 193.388C22.9653 192.818 22.571 192.204 21.9123 192.017L10.505 188.782C10.6918 188.057 10.6143 187.277 10.2788 186.548L22.6613 176.948C23.3032 176.451 23.4692 175.682 23.1398 175.046L24.6892 173.923C24.9555 173.73 24.9839 173.393 24.7528 173.171Z" fill="#FFC898"/>
</svg>
