<svg width="256" height="142" viewBox="0 0 256 142" fill="none" xmlns="http://www.w3.org/2000/svg">
<path fill-rule="evenodd" clip-rule="evenodd" d="M255.478 28.8386C255.774 28.9389 255.978 29.2636 255.934 29.5637C255.89 29.8639 255.615 30.0259 255.319 29.9255L253.351 29.2573C253.045 29.8593 252.364 30.1492 251.628 29.9227L235.582 24.984C235.175 25.6313 234.563 26.0993 233.833 26.3279L238.186 37.0417C238.455 37.7035 238.195 38.3694 237.605 38.529C237.566 38.5395 237.527 38.5475 237.488 38.5532L238.401 40.5133C238.476 40.6758 238.422 40.8475 238.278 40.8969C238.135 40.9463 237.957 40.8546 237.882 40.6921L236.837 38.4499C236.501 38.2972 236.205 38.0006 236.05 37.6196L231.432 26.2556C229.33 25.5431 227.786 23.3258 227.933 21.1496C228.079 18.9982 229.825 17.6547 231.917 17.9999L239.081 11.1863C239.376 10.9059 239.813 10.8613 240.214 11.0287L241.157 9.83293C241.251 9.71402 241.435 9.71518 241.567 9.83552C241.699 9.95587 241.731 10.1498 241.637 10.2687L240.74 11.4059C241.221 11.9398 241.26 12.7069 240.826 13.1196L234.392 19.2394C235.069 19.859 235.59 20.6522 235.878 21.5106L252.021 26.4793C252.77 26.7098 253.348 27.4047 253.488 28.1629L255.478 28.8386ZM218.797 46.2746C218.748 45.9575 218.442 45.6938 218.113 45.6854L216.18 45.6363C215.807 44.9154 215.011 44.3978 214.185 44.4034L198.425 44.51C197.915 43.7343 197.214 43.0989 196.424 42.6881L200.423 34.4384C200.684 33.8986 200.419 33.148 199.83 32.7618L200.307 31.315C200.354 31.1726 200.267 30.9928 200.113 30.9133C199.959 30.8338 199.796 30.8848 199.749 31.0272L199.248 32.5444C198.842 32.4983 198.467 32.6735 198.289 33.0402L193.839 42.2221C191.859 42.5377 190.684 44.4489 191.184 46.6677C191.689 48.9121 193.726 50.6609 195.822 50.7131L203.346 60.7858C203.582 61.1019 203.923 61.2896 204.261 61.3253L205.855 63.2569C205.965 63.3901 206.147 63.4208 206.261 63.3254C206.375 63.23 206.379 63.0447 206.269 62.9115L204.865 61.2098C204.898 61.1913 204.931 61.1706 204.963 61.1478C205.446 60.7993 205.505 60.0722 205.096 59.5238L198 50.024C198.588 49.5614 199 48.8946 199.177 48.1116L214.841 48.0056C215.653 48.0001 216.252 47.4904 216.377 46.7849L218.289 46.8335C218.618 46.8419 218.845 46.5916 218.797 46.2746ZM169.756 10.0679C170.079 9.96666 170.45 10.1321 170.584 10.4374C170.719 10.7428 170.567 11.0723 170.244 11.1736L168.542 11.7075C168.614 12.4659 168.17 13.185 167.38 13.4638L153.428 18.3906C153.494 19.2366 153.313 20.0385 152.916 20.6889L162.075 28.1175C162.58 28.5265 162.717 29.2654 162.381 29.7677C162.359 29.8006 162.336 29.8317 162.311 29.8609L164.073 31.1506C164.205 31.2476 164.252 31.4332 164.176 31.5651C164.1 31.697 163.931 31.7253 163.799 31.6282L161.809 30.1718C161.501 30.2471 161.151 30.1724 160.861 29.9365L151.151 22.0621C149.246 22.6612 146.909 21.5265 145.81 19.4151C144.723 17.3279 145.234 15.0313 146.928 14.0972L148.308 3.41332C148.362 2.99555 148.649 2.70884 149.028 2.63254L149.044 0.93613C149.046 0.783227 149.178 0.685553 149.34 0.717973C149.501 0.750389 149.631 0.900624 149.63 1.05353L149.615 2.67417C150.256 2.88153 150.712 3.54818 150.632 4.16346L149.392 13.7647C150.221 13.9346 151.036 14.359 151.718 14.9849C151.733 14.979 151.748 14.9733 151.764 14.9678L165.756 10.027C166.559 9.74344 167.475 10.0014 168.036 10.6075L169.756 10.0679ZM159.317 55.742C159.119 55.4671 158.732 55.3989 158.453 55.5896L157.003 56.5787C156.335 56.1125 155.415 56.098 154.727 56.6055L143.056 65.214C143.032 65.2316 143.009 65.2496 142.986 65.2681C142.206 64.8097 141.351 64.5905 140.544 64.634L139.383 54.5586C139.309 53.9165 138.729 53.3609 138.086 53.3174L137.711 51.6659C137.675 51.5118 137.52 51.3943 137.362 51.4035C137.205 51.4127 137.106 51.5451 137.141 51.6991L137.535 53.4272C137.203 53.6024 137.006 53.9661 137.057 54.4019L138.348 65.6125C137.008 67.0016 137.088 69.4659 138.593 71.3018C140.115 73.159 142.546 73.7028 144.161 72.5993L155.031 78.0723C155.353 78.2343 155.69 78.2174 155.955 78.0594L158.142 79.02C158.286 79.0834 158.434 79.0103 158.472 78.8567C158.51 78.7032 158.424 78.5272 158.28 78.4638L156.341 77.612C156.357 77.576 156.371 77.5384 156.383 77.4993C156.572 76.9022 156.274 76.1904 155.716 75.9097L145.461 70.7463C145.672 69.9825 145.646 69.1215 145.382 68.2796L157.052 59.6718C157.729 59.1727 157.978 58.3183 157.734 57.5639L159.169 56.585C159.448 56.3943 159.514 56.0169 159.317 55.742ZM106.245 55.4613C106.484 55.2256 106.863 55.2357 107.093 55.484C107.324 55.7322 107.317 56.1245 107.078 56.3602L105.838 57.5854C106.184 58.312 106.074 59.2148 105.502 59.823L95.5286 70.4297C95.9048 71.2439 96.0554 72.115 95.9637 72.9249L106.566 76.5532C107.146 76.7516 107.539 77.4288 107.444 78.0658C107.438 78.1075 107.43 78.148 107.42 78.1872L109.406 78.7467C109.555 78.7886 109.664 78.954 109.65 79.1161C109.635 79.2783 109.503 79.3758 109.355 79.334L107.113 78.7026C106.881 78.9045 106.557 78.9743 106.223 78.8598L94.9842 75.0139C93.5927 76.3907 91.1775 76.2216 89.4439 74.5739C87.7303 72.9451 87.2944 70.4526 88.3798 68.8289L85.5061 57.6387C85.394 57.2025 85.5293 56.8009 85.8228 56.5699L85.1934 54.8761C85.137 54.7243 85.2127 54.5736 85.3624 54.5394C85.5121 54.5053 85.6792 54.6006 85.7356 54.7524L86.3371 56.3709C86.9606 56.3138 87.5998 56.7882 87.7648 57.4307L90.3474 67.4873C91.1169 67.3156 91.9698 67.4035 92.7863 67.7461C92.8017 67.7286 92.8174 67.7113 92.8334 67.6942L102.821 57.0728C103.402 56.4545 104.284 56.329 104.992 56.6994L106.245 55.4613ZM115.901 119.1C115.733 118.808 115.35 118.691 115.045 118.839L113.452 119.61C112.831 119.071 111.901 118.936 111.145 119.337L98.2476 126.176C98.224 126.188 98.2008 126.201 98.178 126.214C97.4407 125.669 96.5995 125.345 95.7746 125.282L95.8042 115.364C95.8061 114.731 95.2833 114.117 94.6365 113.991L94.4529 112.341C94.4358 112.187 94.2916 112.053 94.1309 112.041C93.9702 112.03 93.8538 112.145 93.871 112.3L94.0631 114.026C93.7049 114.153 93.4621 114.48 93.4608 114.91L93.4278 125.946C91.9007 127.119 91.6865 129.518 92.9942 131.494C94.3171 133.492 96.7199 134.335 98.4921 133.475L108.87 140.192C109.178 140.392 109.523 140.42 109.811 140.301L111.916 141.517C112.056 141.597 112.215 141.546 112.272 141.402C112.329 141.258 112.263 141.076 112.124 140.996L110.257 139.918C110.278 139.885 110.297 139.85 110.314 139.814C110.578 139.26 110.358 138.53 109.825 138.185L100.034 131.848C100.34 131.134 100.417 130.296 100.25 129.446L113.139 122.612C113.882 122.218 114.234 121.423 114.076 120.661L115.652 119.897C115.957 119.749 116.069 119.392 115.901 119.1ZM66.1237 96.0262C66.4525 96.0349 66.7581 96.2989 66.8064 96.6159C66.8547 96.933 66.6274 97.1829 66.2986 97.1743L64.3855 97.1238C64.2603 97.829 63.6613 98.338 62.8491 98.3427L47.1814 98.4332C47.0044 99.216 46.5916 99.8823 46.0024 100.344L53.0909 109.849C53.5001 110.398 53.44 111.125 52.9565 111.473C52.9249 111.496 52.8923 111.516 52.8588 111.535L54.2615 113.237C54.3713 113.371 54.3676 113.556 54.2533 113.651C54.1389 113.747 53.9571 113.716 53.8472 113.582L52.2552 111.65C51.9165 111.614 51.576 111.426 51.3401 111.109L43.8241 101.031C41.7271 100.977 39.692 99.2263 39.1884 96.9818C38.6906 94.7629 39.8672 92.8532 41.8477 92.5396L46.3072 83.3636C46.4852 82.9972 46.8605 82.8223 47.2674 82.8688L47.769 81.3525C47.8161 81.2101 47.9792 81.1593 48.1333 81.2389C48.2875 81.3186 48.3743 81.4985 48.3272 81.6408L47.849 83.0867C48.4376 83.4735 48.7022 84.2241 48.44 84.7637L44.4333 93.0081C45.2227 93.4196 45.9234 94.0555 46.4323 94.8316L62.1965 94.7404C63.0226 94.7357 63.8174 95.254 64.19 95.9752L66.1237 96.0262ZM28.1822 121.829C28.4711 121.94 28.6593 122.269 28.6027 122.565C28.546 122.86 28.266 123.01 27.9771 122.899L26.0159 122.145C25.6862 122.729 24.998 122.989 24.2775 122.736L8.29835 117.108C7.86115 117.731 7.22584 118.168 6.48122 118.361L10.4155 129.166C10.6609 129.84 10.3728 130.493 9.7721 130.624C9.73275 130.633 9.69305 130.639 9.65314 130.643L10.4899 132.625C10.5598 132.791 10.4978 132.959 10.3514 133.002C10.205 133.044 10.0296 132.944 9.95964 132.779L9.00141 130.509C8.66849 130.341 8.38126 130.03 8.24001 129.642L4.06671 118.181C1.97941 117.38 0.516677 115.113 0.755425 112.963C0.991437 110.837 2.80595 109.584 4.89818 110.02L12.3931 103.593C12.7028 103.327 13.1459 103.302 13.5434 103.485L14.5421 102.344C14.6423 102.229 14.8275 102.238 14.9558 102.363C15.0842 102.489 15.107 102.683 15.0069 102.797L14.0576 103.882C14.5203 104.433 14.5259 105.197 14.07 105.588L7.33855 111.361C7.99453 112.005 8.48706 112.815 8.74067 113.679L24.817 119.341C25.55 119.599 26.093 120.31 26.1992 121.067L28.1822 121.829Z" fill="#FFC898"/>
</svg>
