<svg width="388" height="388" viewBox="0 0 388 388" fill="none" xmlns="http://www.w3.org/2000/svg">
<ellipse cx="264" cy="234.641" rx="205" ry="152.5" fill="#83E474"/>
<path d="M45.8298 263.917C53.6628 256.13 66.3261 256.166 74.114 263.998C81.9018 271.831 81.8648 284.495 74.032 292.283L54.9627 311.242L40.8621 325.262L26.7605 311.242L7.69116 292.283L7.32984 291.914C-0.14071 284.101 -0.0558201 271.709 7.61011 263.998C15.2763 256.288 27.6664 256.133 35.5232 263.558L35.8943 263.917L40.8611 268.857L45.8298 263.917Z" fill="#FFC898"/>
<ellipse cx="160.764" cy="124.786" rx="139.451" ry="69.3845" transform="rotate(-26.7867 160.764 124.786)" fill="#BAE3AF"/>
<path d="M100.625 327.605C104.974 324.593 110.97 325.491 114.234 329.73C117.604 334.106 116.787 340.385 112.412 343.754L103.722 350.446L97.6209 355.144L91.5203 350.446L82.8298 343.754L82.4304 343.43C78.4077 339.994 77.7443 333.969 81.0086 329.73C84.273 325.491 90.2675 324.594 94.617 327.605L95.033 327.909L97.6209 329.903L100.21 327.909L100.625 327.605Z" fill="#FFC898"/>
</svg>
