<svg width="307" height="225" viewBox="0 0 307 225" fill="none" xmlns="http://www.w3.org/2000/svg">
<circle cx="112.5" cy="112.5" r="112.5" fill="#83E474"/>
<path d="M207.24 52.396C213.126 46.5677 222.624 46.6148 228.452 52.5015C234.281 58.3884 234.234 67.8858 228.347 73.7144L213.14 88.7701L202.586 99.2193L192.033 88.7701L176.826 73.7144L176.554 73.439C170.939 67.5904 170.983 58.2965 176.72 52.5015C182.457 46.7068 191.75 46.5701 197.655 52.1265L197.933 52.396L202.586 57.0034L207.24 52.396Z" fill="#FFC898"/>
<path d="M264.007 114.967C273.738 105.591 289.227 105.636 298.902 115.181C308.578 124.726 308.833 140.214 299.589 150.071L299.142 150.535L275.486 174.513L257.689 192.553L239.893 174.513L216.237 150.535L215.79 150.071C206.546 140.214 206.801 124.726 216.477 115.181C226.152 105.636 241.641 105.591 251.372 114.967L251.831 115.42L257.689 121.359L263.548 115.42L264.007 114.967Z" fill="#FFC898"/>
<path d="M265.625 15.4643C269.974 12.4528 275.97 13.3504 279.234 17.5893C282.604 21.9649 281.787 28.244 277.412 31.6137L268.722 38.3051L262.621 43.0033L256.52 38.3051L247.83 31.6137L247.43 31.2895C243.408 27.8535 242.744 21.8283 246.009 17.5893C249.273 13.3509 255.267 12.453 259.617 15.4643L260.033 15.768L262.621 17.7621L265.21 15.768L265.625 15.4643Z" fill="#FFC898"/>
</svg>
