<svg width="196" height="142" viewBox="0 0 196 142" fill="none" xmlns="http://www.w3.org/2000/svg">
<mask id="path-1-inside-1_213_15114" fill="white">
<path fill-rule="evenodd" clip-rule="evenodd" d="M10.1983 9.59073L0.150992 7.28802C0.291339 9.63542 3.90183 14.9157 5.23307 16.4898C6.56431 18.0639 12.0268 22.4572 13.9422 23.2197C15.8576 23.9821 18.982 23.9206 20.4423 21.8915C21.9027 19.8624 21.8791 18.6766 21.4476 17.0708C22.8894 16.9759 23.7561 16.7868 25.1154 15.3983C26.4748 14.0097 26.9365 10.3001 24.7488 8.20409C22.5611 6.10806 19.3697 3.6948 15.4555 2.28585C11.5413 0.876891 8.38661 0.124541 4.82411 0.794789L10.1983 9.59073ZM5.31039 42.5212L15.3577 44.824L9.98351 36.028C13.546 35.3578 16.7007 36.1101 20.6149 37.5191C24.5291 38.928 27.7205 41.3413 29.9082 43.4373C32.0959 45.5333 31.6342 49.2429 30.2748 50.6315C28.9155 52.0201 28.0488 52.2091 26.607 52.304C27.0385 53.9098 27.0621 55.0956 25.6017 57.1247C24.1414 59.1539 21.017 59.2154 19.1016 58.4529C17.1862 57.6905 11.7237 53.2971 10.3925 51.723C9.06123 50.1489 5.45074 44.8687 5.31039 42.5212ZM47.5842 32.6894L37.2845 32.2836C37.8563 34.5647 42.3807 39.0865 43.9799 40.3874C45.5792 41.6883 51.7597 44.9962 53.783 45.3914C55.8063 45.7867 58.8655 45.1487 59.9256 42.8846C60.9857 40.6204 60.7433 39.4595 60.0225 37.9611C61.4218 37.6013 62.2386 37.2553 63.3179 35.6394C64.3971 34.0235 64.1651 30.2925 61.6277 28.637C59.0903 26.9815 55.5078 25.1997 51.4006 24.5386C47.2934 23.8775 44.054 23.7213 40.6768 25.0385L47.5842 32.6894ZM94.1805 29.3586L84.9236 33.8929C86.5101 35.6287 92.6392 37.4595 94.6644 37.8448C96.6896 38.2302 103.7 38.206 105.668 37.593C107.636 36.98 110.025 34.9657 109.883 32.4697C109.741 29.9738 108.976 29.0672 107.63 28.0909C108.691 27.1097 109.245 26.4173 109.428 24.4827C109.61 22.5481 107.634 19.3749 104.615 19.123C101.595 18.8711 97.5966 19.0045 93.6682 20.3732C89.7397 21.7419 86.8147 23.1429 84.4682 25.9059L94.1805 29.3586ZM106.43 53.3012L116.738 53.3624L109.578 45.9467C112.909 44.5173 116.152 44.5651 120.279 45.0885C124.406 45.6119 128.046 47.2729 130.638 48.8426C133.229 50.4124 133.586 54.1335 132.561 55.7846C131.537 57.4357 130.732 57.8088 129.345 58.2152C130.116 59.6887 130.397 60.8408 129.413 63.1391C128.429 65.4374 125.393 66.1774 123.358 65.85C121.322 65.5226 115.035 62.4233 113.393 61.1766C111.751 59.9299 107.078 55.5619 106.43 53.3012ZM154.648 53.8382L145.688 48.7418C145.147 51.0303 147.085 57.1261 147.907 59.0167C148.729 60.9073 152.697 66.6867 154.312 67.968C155.927 69.2494 158.937 70.0896 160.919 68.5665C162.901 67.0434 163.22 65.901 163.269 64.2389C164.677 64.5629 165.561 64.6312 167.263 63.6926C168.964 62.7539 170.474 59.334 168.982 56.6972C167.49 54.0603 165.128 50.8307 161.785 48.3551C158.441 45.8794 155.637 44.2511 152.032 43.8679L154.648 53.8382ZM129.856 85.6741L138.69 90.9849L136.315 80.9545C139.91 81.4244 142.674 83.1198 145.957 85.6753C149.24 88.2308 151.523 91.5163 152.951 94.1884C154.379 96.8604 152.788 100.243 151.064 101.14C149.341 102.038 148.458 101.948 147.058 101.59C146.969 103.251 146.623 104.385 144.605 105.86C142.586 107.335 139.597 106.422 138.014 105.103C136.43 103.783 132.603 97.9094 131.827 95.9996C131.051 94.0897 129.26 87.9489 129.856 85.6741ZM172.055 98.779L161.83 97.479C162.201 99.8011 166.315 104.699 167.795 106.134C169.275 107.569 175.145 111.402 177.126 111.972C179.107 112.542 182.21 112.172 183.463 110.009C184.716 107.845 184.576 106.668 183.988 105.112C185.413 104.876 186.257 104.602 187.473 103.086C188.688 101.57 188.782 97.833 186.398 95.9631C184.014 94.0932 180.6 92.0067 176.566 90.9909C172.532 89.9751 169.318 89.5378 165.839 90.5563L172.055 98.779ZM214.006 93.8393L209.038 102.871C211.334 103.379 217.401 101.354 219.28 100.505C221.159 99.6562 226.881 95.6068 228.139 93.9737C229.397 92.3406 230.194 89.319 228.643 87.3585C227.092 85.3979 225.945 85.0957 224.282 85.0705C224.586 83.658 224.642 82.7726 223.679 81.0848C222.716 79.3969 219.275 77.9363 216.66 79.4658C214.045 80.9953 210.849 83.4031 208.421 86.7813C205.994 90.1595 204.405 92.9873 204.074 96.5971L214.006 93.8393ZM258.454 48.9727L253.215 57.8498C255.494 58.4274 261.62 56.5866 263.524 55.795C265.427 55.0033 271.269 51.1288 272.576 49.5345C273.883 47.9403 274.772 44.9441 273.28 42.9376C271.789 40.931 270.652 40.5942 268.991 40.5188C269.337 39.1161 269.42 38.2328 268.508 36.5166C267.597 34.8004 264.202 33.2364 261.541 34.6861C258.881 36.1358 255.614 38.4459 253.085 41.7491C250.557 45.0524 248.884 47.8308 248.443 51.4289L258.454 48.9727ZM303.895 54.3919L295.31 60.0969C297.11 61.6105 303.425 62.6247 305.484 62.7422C307.542 62.8596 314.489 61.9197 316.36 61.0548C318.231 60.1898 320.337 57.8806 319.869 55.4247C319.402 52.9687 318.526 52.1698 317.064 51.3777C317.987 50.2664 318.446 49.5074 318.374 47.5656C318.302 45.6238 315.929 42.7359 312.902 42.8807C309.876 43.0255 305.929 43.6802 302.213 45.5505C298.497 47.4208 295.78 49.1919 293.815 52.2379L303.895 54.3919ZM250.303 98.1244L254.005 88.5043L244.537 92.579C244.377 88.9575 245.569 85.9411 247.518 82.2658C249.467 78.5905 252.307 75.7729 254.692 73.9041C257.077 72.0352 260.684 73.0174 261.866 74.5596C263.048 76.1019 263.112 76.9866 263.002 78.4273C264.653 78.2275 265.83 78.372 267.632 80.105C269.434 81.8379 269.052 84.9395 268.027 86.7277C267.001 88.5158 261.878 93.3013 260.131 94.3963C258.385 95.4912 252.646 98.3178 250.303 98.1244ZM185.218 139.855L192.871 132.95L182.584 132.301C184.08 129 186.507 126.848 189.908 124.452C193.308 122.056 197.116 120.828 200.088 120.24C203.061 119.652 205.833 122.16 206.19 124.07C206.546 125.98 206.203 126.798 205.454 128.033C207.016 128.602 208.001 129.263 208.824 131.624C209.647 133.984 207.904 136.578 206.18 137.709C204.456 138.839 197.723 140.79 195.67 140.976C193.617 141.163 187.22 141.088 185.218 139.855ZM62.3578 68.5008L71.6147 63.9664L61.9024 60.5137C64.2489 57.7507 67.1739 56.3497 71.1023 54.981C75.0308 53.6123 79.0297 53.4789 82.0489 53.7308C85.0681 53.9827 87.0442 57.1559 86.8618 59.0905C86.6795 61.0251 86.1249 61.7175 85.0643 62.6987C86.4103 63.675 87.1749 64.5816 87.3172 67.0775C87.4596 69.5735 85.0704 71.5878 83.1021 72.2008C81.1338 72.8139 74.1238 72.838 72.0986 72.4526C70.0733 72.0673 63.9443 70.2366 62.3578 68.5008Z"/>
</mask>
<path fill-rule="evenodd" clip-rule="evenodd" d="M10.1983 9.59073L0.150992 7.28802C0.291339 9.63542 3.90183 14.9157 5.23307 16.4898C6.56431 18.0639 12.0268 22.4572 13.9422 23.2197C15.8576 23.9821 18.982 23.9206 20.4423 21.8915C21.9027 19.8624 21.8791 18.6766 21.4476 17.0708C22.8894 16.9759 23.7561 16.7868 25.1154 15.3983C26.4748 14.0097 26.9365 10.3001 24.7488 8.20409C22.5611 6.10806 19.3697 3.6948 15.4555 2.28585C11.5413 0.876891 8.38661 0.124541 4.82411 0.794789L10.1983 9.59073ZM5.31039 42.5212L15.3577 44.824L9.98351 36.028C13.546 35.3578 16.7007 36.1101 20.6149 37.5191C24.5291 38.928 27.7205 41.3413 29.9082 43.4373C32.0959 45.5333 31.6342 49.2429 30.2748 50.6315C28.9155 52.0201 28.0488 52.2091 26.607 52.304C27.0385 53.9098 27.0621 55.0956 25.6017 57.1247C24.1414 59.1539 21.017 59.2154 19.1016 58.4529C17.1862 57.6905 11.7237 53.2971 10.3925 51.723C9.06123 50.1489 5.45074 44.8687 5.31039 42.5212ZM47.5842 32.6894L37.2845 32.2836C37.8563 34.5647 42.3807 39.0865 43.9799 40.3874C45.5792 41.6883 51.7597 44.9962 53.783 45.3914C55.8063 45.7867 58.8655 45.1487 59.9256 42.8846C60.9857 40.6204 60.7433 39.4595 60.0225 37.9611C61.4218 37.6013 62.2386 37.2553 63.3179 35.6394C64.3971 34.0235 64.1651 30.2925 61.6277 28.637C59.0903 26.9815 55.5078 25.1997 51.4006 24.5386C47.2934 23.8775 44.054 23.7213 40.6768 25.0385L47.5842 32.6894ZM94.1805 29.3586L84.9236 33.8929C86.5101 35.6287 92.6392 37.4595 94.6644 37.8448C96.6896 38.2302 103.7 38.206 105.668 37.593C107.636 36.98 110.025 34.9657 109.883 32.4697C109.741 29.9738 108.976 29.0672 107.63 28.0909C108.691 27.1097 109.245 26.4173 109.428 24.4827C109.61 22.5481 107.634 19.3749 104.615 19.123C101.595 18.8711 97.5966 19.0045 93.6682 20.3732C89.7397 21.7419 86.8147 23.1429 84.4682 25.9059L94.1805 29.3586ZM106.43 53.3012L116.738 53.3624L109.578 45.9467C112.909 44.5173 116.152 44.5651 120.279 45.0885C124.406 45.6119 128.046 47.2729 130.638 48.8426C133.229 50.4124 133.586 54.1335 132.561 55.7846C131.537 57.4357 130.732 57.8088 129.345 58.2152C130.116 59.6887 130.397 60.8408 129.413 63.1391C128.429 65.4374 125.393 66.1774 123.358 65.85C121.322 65.5226 115.035 62.4233 113.393 61.1766C111.751 59.9299 107.078 55.5619 106.43 53.3012ZM154.648 53.8382L145.688 48.7418C145.147 51.0303 147.085 57.1261 147.907 59.0167C148.729 60.9073 152.697 66.6867 154.312 67.968C155.927 69.2494 158.937 70.0896 160.919 68.5665C162.901 67.0434 163.22 65.901 163.269 64.2389C164.677 64.5629 165.561 64.6312 167.263 63.6926C168.964 62.7539 170.474 59.334 168.982 56.6972C167.49 54.0603 165.128 50.8307 161.785 48.3551C158.441 45.8794 155.637 44.2511 152.032 43.8679L154.648 53.8382ZM129.856 85.6741L138.69 90.9849L136.315 80.9545C139.91 81.4244 142.674 83.1198 145.957 85.6753C149.24 88.2308 151.523 91.5163 152.951 94.1884C154.379 96.8604 152.788 100.243 151.064 101.14C149.341 102.038 148.458 101.948 147.058 101.59C146.969 103.251 146.623 104.385 144.605 105.86C142.586 107.335 139.597 106.422 138.014 105.103C136.43 103.783 132.603 97.9094 131.827 95.9996C131.051 94.0897 129.26 87.9489 129.856 85.6741ZM172.055 98.779L161.83 97.479C162.201 99.8011 166.315 104.699 167.795 106.134C169.275 107.569 175.145 111.402 177.126 111.972C179.107 112.542 182.21 112.172 183.463 110.009C184.716 107.845 184.576 106.668 183.988 105.112C185.413 104.876 186.257 104.602 187.473 103.086C188.688 101.57 188.782 97.833 186.398 95.9631C184.014 94.0932 180.6 92.0067 176.566 90.9909C172.532 89.9751 169.318 89.5378 165.839 90.5563L172.055 98.779ZM214.006 93.8393L209.038 102.871C211.334 103.379 217.401 101.354 219.28 100.505C221.159 99.6562 226.881 95.6068 228.139 93.9737C229.397 92.3406 230.194 89.319 228.643 87.3585C227.092 85.3979 225.945 85.0957 224.282 85.0705C224.586 83.658 224.642 82.7726 223.679 81.0848C222.716 79.3969 219.275 77.9363 216.66 79.4658C214.045 80.9953 210.849 83.4031 208.421 86.7813C205.994 90.1595 204.405 92.9873 204.074 96.5971L214.006 93.8393ZM258.454 48.9727L253.215 57.8498C255.494 58.4274 261.62 56.5866 263.524 55.795C265.427 55.0033 271.269 51.1288 272.576 49.5345C273.883 47.9403 274.772 44.9441 273.28 42.9376C271.789 40.931 270.652 40.5942 268.991 40.5188C269.337 39.1161 269.42 38.2328 268.508 36.5166C267.597 34.8004 264.202 33.2364 261.541 34.6861C258.881 36.1358 255.614 38.4459 253.085 41.7491C250.557 45.0524 248.884 47.8308 248.443 51.4289L258.454 48.9727ZM303.895 54.3919L295.31 60.0969C297.11 61.6105 303.425 62.6247 305.484 62.7422C307.542 62.8596 314.489 61.9197 316.36 61.0548C318.231 60.1898 320.337 57.8806 319.869 55.4247C319.402 52.9687 318.526 52.1698 317.064 51.3777C317.987 50.2664 318.446 49.5074 318.374 47.5656C318.302 45.6238 315.929 42.7359 312.902 42.8807C309.876 43.0255 305.929 43.6802 302.213 45.5505C298.497 47.4208 295.78 49.1919 293.815 52.2379L303.895 54.3919ZM250.303 98.1244L254.005 88.5043L244.537 92.579C244.377 88.9575 245.569 85.9411 247.518 82.2658C249.467 78.5905 252.307 75.7729 254.692 73.9041C257.077 72.0352 260.684 73.0174 261.866 74.5596C263.048 76.1019 263.112 76.9866 263.002 78.4273C264.653 78.2275 265.83 78.372 267.632 80.105C269.434 81.8379 269.052 84.9395 268.027 86.7277C267.001 88.5158 261.878 93.3013 260.131 94.3963C258.385 95.4912 252.646 98.3178 250.303 98.1244ZM185.218 139.855L192.871 132.95L182.584 132.301C184.08 129 186.507 126.848 189.908 124.452C193.308 122.056 197.116 120.828 200.088 120.24C203.061 119.652 205.833 122.16 206.19 124.07C206.546 125.98 206.203 126.798 205.454 128.033C207.016 128.602 208.001 129.263 208.824 131.624C209.647 133.984 207.904 136.578 206.18 137.709C204.456 138.839 197.723 140.79 195.67 140.976C193.617 141.163 187.22 141.088 185.218 139.855ZM62.3578 68.5008L71.6147 63.9664L61.9024 60.5137C64.2489 57.7507 67.1739 56.3497 71.1023 54.981C75.0308 53.6123 79.0297 53.4789 82.0489 53.7308C85.0681 53.9827 87.0442 57.1559 86.8618 59.0905C86.6795 61.0251 86.1249 61.7175 85.0643 62.6987C86.4103 63.675 87.1749 64.5816 87.3172 67.0775C87.4596 69.5735 85.0704 71.5878 83.1021 72.2008C81.1338 72.8139 74.1238 72.838 72.0986 72.4526C70.0733 72.0673 63.9443 70.2366 62.3578 68.5008Z" fill="#FFC898"/>
<path d="M0.150992 7.28802L0.374387 6.31329L-0.926902 6.01505L-0.847226 7.3477L0.150992 7.28802ZM10.1983 9.59073L9.97486 10.5655L12.2898 11.096L11.0516 9.06936L10.1983 9.59073ZM5.23307 16.4898L4.46952 17.1355L4.46952 17.1355L5.23307 16.4898ZM13.9422 23.2197L13.5724 24.1488L13.5724 24.1488L13.9422 23.2197ZM20.4423 21.8915L19.6307 21.3074L20.4423 21.8915ZM21.4476 17.0708L21.382 16.0729L20.1656 16.153L20.4819 17.3302L21.4476 17.0708ZM25.1154 15.3983L24.4009 14.6987L25.1154 15.3983ZM24.7488 8.20409L24.057 8.92616L24.057 8.92616L24.7488 8.20409ZM4.82411 0.794789L4.63921 -0.187969L3.21544 0.0798989L3.97077 1.31616L4.82411 0.794789ZM15.3577 44.824L15.1343 45.7987L17.4492 46.3293L16.211 44.3026L15.3577 44.824ZM5.31039 42.5212L5.53379 41.5465L4.2325 41.2483L4.31217 42.5809L5.31039 42.5212ZM9.98351 36.028L9.79861 35.0453L8.37484 35.3131L9.13018 36.5494L9.98351 36.028ZM20.6149 37.5191L20.2762 38.46L20.6149 37.5191ZM29.9082 43.4373L29.2164 44.1594L29.9082 43.4373ZM30.2748 50.6315L29.5603 49.932L29.5603 49.932L30.2748 50.6315ZM26.607 52.304L26.5414 51.3062L25.325 51.3862L25.6413 52.5635L26.607 52.304ZM19.1016 58.4529L19.4715 57.5238L19.4715 57.5238L19.1016 58.4529ZM10.3925 51.723L9.62892 52.3688L10.3925 51.723ZM37.2845 32.2836L37.3238 31.2844L35.9898 31.2319L36.3145 32.5268L37.2845 32.2836ZM47.5842 32.6894L47.5449 33.6886L49.918 33.7821L48.3265 32.0193L47.5842 32.6894ZM53.783 45.3914L53.5913 46.3729L53.5913 46.3729L53.783 45.3914ZM59.9256 42.8846L59.02 42.4605L59.02 42.4605L59.9256 42.8846ZM60.0225 37.9611L59.7735 36.9926L58.5929 37.2961L59.1213 38.3946L60.0225 37.9611ZM61.6277 28.637L62.1741 27.7995L61.6277 28.637ZM40.6768 25.0385L40.3134 24.1068L38.9637 24.6333L39.9345 25.7086L40.6768 25.0385ZM84.9236 33.8929L84.4837 32.9949L83.2848 33.5822L84.1855 34.5676L84.9236 33.8929ZM94.1805 29.3586L94.6204 30.2567L96.7533 29.2119L94.5155 28.4164L94.1805 29.3586ZM105.668 37.593L105.371 36.6382L105.371 36.6382L105.668 37.593ZM109.883 32.4697L110.881 32.4128L109.883 32.4697ZM107.63 28.0909L106.951 27.3568L106.056 28.1846L107.043 28.9004L107.63 28.0909ZM109.428 24.4827L108.432 24.3889L108.432 24.3889L109.428 24.4827ZM104.615 19.123L104.532 20.1195L104.532 20.1195L104.615 19.123ZM84.4682 25.9059L83.706 25.2586L82.7682 26.3629L84.1332 26.8482L84.4682 25.9059ZM116.738 53.3624L116.732 54.3624L119.107 54.3764L117.457 52.6678L116.738 53.3624ZM106.43 53.3012L106.436 52.3013L105.101 52.2933L105.469 53.5767L106.43 53.3012ZM109.578 45.9467L109.184 45.0277L107.853 45.599L108.859 46.6413L109.578 45.9467ZM130.638 48.8426L131.156 47.9873L130.638 48.8426ZM129.345 58.2152L129.064 57.2556L127.894 57.5984L128.459 58.6786L129.345 58.2152ZM123.358 65.85L123.199 66.8373L123.199 66.8373L123.358 65.85ZM113.393 61.1766L113.998 60.3801L113.997 60.3801L113.393 61.1766ZM145.688 48.7418L146.182 47.8725L145.022 47.2125L144.715 48.5117L145.688 48.7418ZM154.648 53.8382L154.153 54.7074L156.218 55.8817L155.615 53.5844L154.648 53.8382ZM147.907 59.0167L146.99 59.4154L146.99 59.4154L147.907 59.0167ZM160.919 68.5665L160.31 67.7735L160.31 67.7735L160.919 68.5665ZM163.269 64.2389L163.493 63.2644L162.305 62.991L162.269 64.2095L163.269 64.2389ZM167.263 63.6926L167.746 64.5681L167.263 63.6926ZM161.785 48.3551L161.19 49.1587L161.785 48.3551ZM152.032 43.8679L152.138 42.8735L150.697 42.7203L151.065 44.1216L152.032 43.8679ZM138.69 90.9849L138.175 91.842L140.21 93.0656L139.663 90.7545L138.69 90.9849ZM129.856 85.6741L130.371 84.8171L129.227 84.1292L128.889 85.4207L129.856 85.6741ZM136.315 80.9545L136.445 79.9629L135.008 79.7751L135.342 81.1849L136.315 80.9545ZM145.957 85.6753L145.343 86.4644L145.957 85.6753ZM152.951 94.1884L153.833 93.717L152.951 94.1884ZM151.064 101.14L151.526 102.027L151.064 101.14ZM147.058 101.59L147.306 100.621L146.125 100.32L146.06 101.537L147.058 101.59ZM138.014 105.103L137.374 105.871L138.014 105.103ZM161.83 97.479L161.956 96.487L160.631 96.3187L160.842 97.6369L161.83 97.479ZM172.055 98.779L171.929 99.771L174.285 100.07L172.853 98.1759L172.055 98.779ZM167.795 106.134L168.491 105.416L168.491 105.416L167.795 106.134ZM177.126 111.972L177.402 111.011L177.402 111.011L177.126 111.972ZM183.988 105.112L183.824 104.126L182.621 104.326L183.052 105.466L183.988 105.112ZM187.473 103.086L186.693 102.46L187.473 103.086ZM186.398 95.9631L185.781 96.75L186.398 95.9631ZM176.566 90.9909L176.81 90.0212L176.566 90.9909ZM165.839 90.5563L165.558 89.5966L164.168 90.0037L165.041 91.1594L165.839 90.5563ZM209.038 102.871L208.162 102.389L207.518 103.559L208.822 103.847L209.038 102.871ZM214.006 93.8393L214.882 94.3212L216.027 92.2403L213.738 92.8757L214.006 93.8393ZM219.28 100.505L219.692 101.416L219.692 101.416L219.28 100.505ZM228.139 93.9737L227.347 93.3634L227.347 93.3634L228.139 93.9737ZM228.643 87.3585L229.427 86.738L228.643 87.3585ZM224.282 85.0705L223.305 84.8602L223.048 86.0519L224.267 86.0704L224.282 85.0705ZM223.679 81.0848L224.548 80.5893L223.679 81.0848ZM208.421 86.7813L207.609 86.1978L207.609 86.1978L208.421 86.7813ZM204.074 96.5971L203.078 96.5056L202.945 97.9482L204.341 97.5606L204.074 96.5971ZM253.215 57.8498L252.354 57.3416L251.675 58.4913L252.969 58.8192L253.215 57.8498ZM258.454 48.9727L259.315 49.4809L260.522 47.4356L258.215 48.0015L258.454 48.9727ZM272.576 49.5345L271.803 48.9006L272.576 49.5345ZM273.28 42.9376L274.083 42.3411L273.28 42.9376ZM268.991 40.5188L268.02 40.279L267.728 41.4624L268.945 41.5177L268.991 40.5188ZM268.508 36.5166L267.625 36.9856L268.508 36.5166ZM261.541 34.6861L261.063 33.808L261.063 33.808L261.541 34.6861ZM253.085 41.7491L252.291 41.1412L253.085 41.7491ZM248.443 51.4289L247.45 51.3073L247.274 52.7453L248.681 52.4001L248.443 51.4289ZM295.31 60.0969L294.757 59.264L293.645 60.0029L294.666 60.8622L295.31 60.0969ZM303.895 54.3919L304.448 55.2248L306.427 53.9103L304.104 53.414L303.895 54.3919ZM316.36 61.0548L315.94 60.147L316.36 61.0548ZM319.869 55.4247L318.887 55.6116L318.887 55.6116L319.869 55.4247ZM317.064 51.3777L316.295 50.7387L315.516 51.6763L316.587 52.257L317.064 51.3777ZM318.374 47.5656L317.375 47.6026L317.375 47.6027L318.374 47.5656ZM312.902 42.8807L312.95 43.8796L312.95 43.8796L312.902 42.8807ZM302.213 45.5505L301.763 44.6572L302.213 45.5505ZM293.815 52.2379L292.975 51.6957L292.189 52.913L293.606 53.2158L293.815 52.2379ZM254.005 88.5043L254.938 88.8635L255.791 86.6469L253.609 87.5858L254.005 88.5043ZM250.303 98.1244L249.369 97.7652L248.89 99.0112L250.221 99.121L250.303 98.1244ZM244.537 92.579L243.538 92.6229L243.601 94.0703L244.932 93.4976L244.537 92.579ZM254.692 73.9041L255.309 74.6911L255.309 74.6911L254.692 73.9041ZM261.866 74.5596L262.659 73.9513L262.659 73.9513L261.866 74.5596ZM263.002 78.4273L262.005 78.351L261.912 79.5665L263.122 79.42L263.002 78.4273ZM267.632 80.105L266.939 80.8258L267.632 80.105ZM268.027 86.7277L268.894 87.2253L268.027 86.7277ZM260.131 94.3963L260.663 95.2436L260.663 95.2435L260.131 94.3963ZM192.871 132.95L193.541 133.693L195.304 132.102L192.934 131.952L192.871 132.95ZM185.218 139.855L184.548 139.113L183.557 140.007L184.694 140.707L185.218 139.855ZM182.584 132.301L181.673 131.889L181.075 133.208L182.521 133.299L182.584 132.301ZM200.088 120.24L200.283 121.221L200.283 121.221L200.088 120.24ZM205.454 128.033L204.599 127.514L203.966 128.556L205.112 128.973L205.454 128.033ZM206.18 137.709L206.728 138.545L206.728 138.545L206.18 137.709ZM71.6147 63.9664L72.0546 64.8645L74.1874 63.8197L71.9496 63.0242L71.6147 63.9664ZM62.3578 68.5008L61.9179 67.6027L60.719 68.19L61.6197 69.1754L62.3578 68.5008ZM61.9024 60.5137L61.1401 59.8664L60.2023 60.9707L61.5674 61.456L61.9024 60.5137ZM86.8618 59.0905L85.8662 58.9967L85.8662 58.9967L86.8618 59.0905ZM85.0643 62.6987L84.3852 61.9646L83.4904 62.7924L84.4771 63.5082L85.0643 62.6987ZM87.3172 67.0775L88.3156 67.0206L88.3156 67.0206L87.3172 67.0775ZM83.1021 72.2008L82.8047 71.246L83.1021 72.2008ZM-0.0724045 8.26274L9.97486 10.5655L10.4217 8.616L0.374387 6.31329L-0.0724045 8.26274ZM5.99662 15.844C5.3738 15.1076 4.16896 13.4404 3.10285 11.6642C2.57172 10.7794 2.08728 9.8876 1.73034 9.08738C1.36211 8.26186 1.1731 7.62785 1.14921 7.22833L-0.847226 7.3477C-0.800938 8.12189 -0.486015 9.02818 -0.0961953 9.90211C0.304904 10.8013 0.832601 11.7682 1.38804 12.6935C2.49508 14.5379 3.7611 16.2979 4.46952 17.1355L5.99662 15.844ZM14.3121 22.2906C13.9428 22.1436 13.3199 21.781 12.5216 21.24C11.7437 20.7129 10.859 20.0577 9.98601 19.3725C8.21328 17.9811 6.58916 16.5447 5.99662 15.844L4.46952 17.1355C5.20823 18.009 6.98099 19.5563 8.75117 20.9457C9.64962 21.6509 10.5729 22.3354 11.3996 22.8956C12.2058 23.442 12.984 23.9145 13.5724 24.1488L14.3121 22.2906ZM19.6307 21.3074C19.1055 22.0371 18.2446 22.4648 17.22 22.6127C16.1915 22.7612 15.1083 22.6075 14.3121 22.2906L13.5724 24.1488C14.6915 24.5943 16.1282 24.7911 17.5058 24.5922C18.8873 24.3927 20.3188 23.775 21.254 22.4756L19.6307 21.3074ZM20.4819 17.3302C20.684 18.0827 20.7563 18.618 20.6675 19.1611C20.5784 19.7065 20.3081 20.3661 19.6307 21.3074L21.254 22.4756C22.0369 21.3878 22.485 20.44 22.6413 19.4837C22.798 18.5252 22.6427 17.6647 22.4134 16.8113L20.4819 17.3302ZM24.4009 14.6987C23.7791 15.3339 23.3324 15.6305 22.9327 15.7946C22.5243 15.9622 22.0841 16.0267 21.382 16.0729L21.5133 18.0686C22.2529 18.0199 22.967 17.9425 23.6922 17.6447C24.4261 17.3434 25.0925 16.8513 25.83 16.0978L24.4009 14.6987ZM24.057 8.92616C24.9041 9.73779 25.2724 10.8966 25.2623 12.0578C25.2519 13.25 24.8464 14.2436 24.4009 14.6987L25.83 16.0978C26.7438 15.1644 27.2488 13.6089 27.2622 12.0752C27.2758 10.5104 26.7812 8.76642 25.4406 7.48202L24.057 8.92616ZM15.1168 3.22674C18.8595 4.57396 21.9346 6.89269 24.057 8.92616L25.4406 7.48202C23.1876 5.32343 19.8799 2.81564 15.7942 1.34494L15.1168 3.22674ZM5.009 1.77755C8.30233 1.15794 11.2485 1.83432 15.1168 3.22674L15.7942 1.34494C11.8341 -0.0805339 8.47088 -0.908857 4.63921 -0.187969L5.009 1.77755ZM11.0516 9.06936L5.67744 0.273419L3.97077 1.31616L9.34493 10.1121L11.0516 9.06936ZM15.5811 43.8492L5.53379 41.5465L5.087 43.496L15.1343 45.7987L15.5811 43.8492ZM9.13018 36.5494L14.5043 45.3453L16.211 44.3026L10.8368 35.5066L9.13018 36.5494ZM20.9536 36.5782C16.9935 35.1527 13.6303 34.3244 9.79861 35.0453L10.1684 37.0108C13.4617 36.3912 16.4079 37.0675 20.2762 38.46L20.9536 36.5782ZM30.6 42.7153C28.347 40.5567 25.0393 38.0489 20.9536 36.5782L20.2762 38.46C24.0189 39.8072 27.094 42.1259 29.2164 44.1594L30.6 42.7153ZM30.9894 51.3311C31.9032 50.3976 32.4082 48.8422 32.4216 47.3084C32.4352 45.7436 31.9406 43.9997 30.6 42.7153L29.2164 44.1594C30.0635 44.971 30.4318 46.1299 30.4217 47.291C30.4113 48.4832 30.0058 49.4768 29.5603 49.932L30.9894 51.3311ZM26.6727 53.3018C27.4123 53.2532 28.1264 53.1757 28.8516 52.878C29.5855 52.5767 30.2519 52.0845 30.9894 51.331L29.5603 49.932C28.9385 50.5671 28.4918 50.8637 28.0921 51.0278C27.6837 51.1955 27.2435 51.2599 26.5414 51.3062L26.6727 53.3018ZM26.4134 57.7089C27.1963 56.621 27.6444 55.6732 27.8007 54.7169C27.9574 53.7584 27.8021 52.898 27.5728 52.0445L25.6413 52.5635C25.8434 53.3159 25.9157 53.8512 25.8269 54.3943C25.7378 54.9397 25.4675 55.5993 24.7901 56.5406L26.4134 57.7089ZM18.7318 59.382C19.8509 59.8275 21.2876 60.0243 22.6652 59.8254C24.0467 59.6259 25.4782 59.0083 26.4134 57.7089L24.7901 56.5406C24.2649 57.2703 23.404 57.698 22.3794 57.8459C21.3509 57.9944 20.2677 57.8408 19.4715 57.5238L18.7318 59.382ZM9.62892 52.3688C10.3676 53.2422 12.1404 54.7896 13.9106 56.179C14.809 56.8841 15.7323 57.5687 16.559 58.1289C17.3652 58.6753 18.1434 59.1478 18.7318 59.382L19.4715 57.5238C19.1022 57.3768 18.4793 57.0142 17.681 56.4732C16.9031 55.9461 16.0184 55.2909 15.1454 54.6057C13.3727 53.2143 11.7486 51.7779 11.156 51.0773L9.62892 52.3688ZM4.31217 42.5809C4.35846 43.3551 4.67339 44.2614 5.0632 45.1353C5.4643 46.0346 5.992 47.0014 6.54744 47.9268C7.65448 49.7711 8.9205 51.5311 9.62892 52.3688L11.156 51.0773C10.5332 50.3408 9.32836 48.6736 8.26225 46.8975C7.73112 46.0126 7.24668 45.1208 6.88974 44.3206C6.52151 43.4951 6.3325 42.8611 6.30861 42.4616L4.31217 42.5809ZM37.2451 33.2829L47.5449 33.6886L47.6236 31.6902L37.3238 31.2844L37.2451 33.2829ZM44.611 39.6116C43.8627 39.003 42.3705 37.5873 40.9944 36.0388C40.3089 35.2674 39.6679 34.4805 39.1692 33.7601C38.6547 33.0168 38.3518 32.4287 38.2544 32.0405L36.3145 32.5268C36.5031 33.2791 36.9801 34.1116 37.5248 34.8984C38.0852 35.708 38.7825 36.5606 39.4994 37.3673C40.9283 38.9753 42.4979 40.4709 43.3489 41.1632L44.611 39.6116ZM53.9747 44.41C53.5846 44.3337 52.9055 44.0926 52.0209 43.7085C51.159 43.3342 50.1685 42.8538 49.1838 42.3418C47.1844 41.3021 45.3228 40.1907 44.611 39.6116L43.3489 41.1632C44.2364 41.885 46.2646 43.078 48.2611 44.1162C49.2744 44.6432 50.3083 45.1452 51.2243 45.543C52.1176 45.9309 52.9697 46.2514 53.5913 46.3729L53.9747 44.41ZM59.02 42.4605C58.6387 43.2748 57.8717 43.8542 56.8921 44.189C55.9088 44.525 54.8158 44.5743 53.9747 44.41L53.5913 46.3729C54.7735 46.6038 56.2218 46.5316 57.5389 46.0815C58.8597 45.6301 60.1524 44.7585 60.8312 43.3086L59.02 42.4605ZM59.1213 38.3946C59.4591 39.0967 59.629 39.6094 59.6422 40.1596C59.6554 40.712 59.5117 41.4102 59.02 42.4605L60.8312 43.3086C61.3996 42.0948 61.6648 41.0804 61.6416 40.1118C61.6184 39.1408 61.3067 38.3239 60.9236 37.5276L59.1213 38.3946ZM62.4863 35.084C61.9927 35.8231 61.6085 36.1972 61.246 36.4323C60.8756 36.6726 60.455 36.8174 59.7735 36.9926L60.2715 38.9296C60.9893 38.745 61.6768 38.5369 62.3344 38.1102C63 37.6785 63.5639 37.0716 64.1495 36.1948L62.4863 35.084ZM61.0813 29.4745C62.0638 30.1155 62.64 31.1863 62.8447 32.3293C63.0549 33.5029 62.8401 34.5543 62.4863 35.084L64.1495 36.1948C64.875 35.1085 65.0838 33.4865 64.8134 31.9767C64.5375 30.4364 63.729 28.8139 62.1741 27.7995L61.0813 29.4745ZM51.2416 25.5259C55.1689 26.158 58.6196 27.8684 61.0813 29.4745L62.1741 27.7995C59.561 26.0945 55.8467 24.2414 51.5595 23.5513L51.2416 25.5259ZM41.0401 25.9701C44.1622 24.7524 47.1826 24.8725 51.2416 25.5259L51.5595 23.5513C47.4041 22.8824 43.9458 22.6901 40.3134 24.1068L41.0401 25.9701ZM48.3265 32.0193L41.419 24.3684L39.9345 25.7086L46.842 33.3595L48.3265 32.0193ZM85.3635 34.791L94.6204 30.2567L93.7406 28.4606L84.4837 32.9949L85.3635 34.791ZM94.8513 36.8625C93.9038 36.6822 91.9182 36.145 89.9719 35.4357C89.0022 35.0824 88.0645 34.6943 87.2834 34.2972C86.4777 33.8874 85.9318 33.5137 85.6618 33.2183L84.1855 34.5676C84.7087 35.1401 85.5239 35.6461 86.3768 36.0799C87.2545 36.5262 88.2731 36.9454 89.2871 37.3149C91.3082 38.0513 93.3998 38.6222 94.4775 38.8272L94.8513 36.8625ZM105.371 36.6382C104.991 36.7564 104.279 36.8667 103.318 36.9488C102.382 37.0287 101.282 37.0764 100.172 37.0934C97.9189 37.1279 95.7527 37.034 94.8513 36.8625L94.4775 38.8272C95.6013 39.041 97.9528 39.1277 100.203 39.0932C101.345 39.0757 102.493 39.0265 103.488 38.9415C104.459 38.8587 105.361 38.7361 105.965 38.5478L105.371 36.6382ZM108.885 32.5267C108.936 33.4243 108.536 34.2984 107.833 35.0583C107.127 35.821 106.189 36.3834 105.371 36.6382L105.965 38.5478C107.115 38.1896 108.356 37.4383 109.301 36.4166C110.249 35.3921 110.973 34.0111 110.881 32.4128L108.885 32.5267ZM107.043 28.9004C107.674 29.3578 108.067 29.7284 108.34 30.2063C108.614 30.6862 108.819 31.3688 108.885 32.5267L110.881 32.4128C110.805 31.0747 110.557 30.0561 110.076 29.2146C109.595 28.3712 108.933 27.8003 108.217 27.2814L107.043 28.9004ZM108.432 24.3889C108.349 25.2737 108.188 25.7854 107.981 26.1645C107.769 26.5518 107.468 26.879 106.951 27.3568L108.309 28.825C108.853 28.3216 109.359 27.812 109.736 27.1242C110.116 26.4281 110.324 25.6263 110.423 24.5765L108.432 24.3889ZM104.532 20.1195C105.701 20.2171 106.716 20.8858 107.439 21.7944C108.182 22.7274 108.492 23.7547 108.432 24.3889L110.423 24.5766C110.546 23.2761 109.959 21.7495 109.004 20.5492C108.03 19.3247 106.548 18.2808 104.698 18.1265L104.532 20.1195ZM93.9972 21.3175C97.7535 20.0088 101.602 19.8752 104.532 20.1195L104.698 18.1265C101.589 17.8671 97.4397 18.0002 93.3391 19.4289L93.9972 21.3175ZM85.2304 26.5532C87.3996 23.9989 90.1148 22.6702 93.9972 21.3175L93.3391 19.4289C89.3646 20.8137 86.2298 22.2868 83.706 25.2586L85.2304 26.5532ZM94.5155 28.4164L84.8032 24.9637L84.1332 26.8482L93.8455 30.3008L94.5155 28.4164ZM116.744 52.3624L106.436 52.3013L106.424 54.3012L116.732 54.3624L116.744 52.3624ZM108.859 46.6413L116.018 54.0569L117.457 52.6678L110.298 45.2521L108.859 46.6413ZM120.405 44.0965C116.23 43.5669 112.767 43.4903 109.184 45.0277L109.973 46.8657C113.052 45.5443 116.075 45.5633 120.153 46.0806L120.405 44.0965ZM131.156 47.9873C128.487 46.3707 124.713 44.6428 120.405 44.0965L120.153 46.0806C124.1 46.5811 127.606 48.1751 130.12 49.6979L131.156 47.9873ZM133.411 56.3119C134.1 55.202 134.254 53.5739 133.933 52.074C133.606 50.5437 132.744 48.9492 131.156 47.9873L130.12 49.6979C131.123 50.3058 131.735 51.3567 131.978 52.4922C132.227 53.6581 132.047 54.7161 131.711 55.2573L133.411 56.3119ZM129.626 59.1748C130.338 58.9664 131.018 58.7353 131.661 58.2869C132.312 57.8332 132.855 57.2078 133.411 56.3119L131.711 55.2573C131.243 56.0125 130.871 56.3993 130.517 56.6464C130.155 56.8989 129.739 57.0576 129.064 57.2556L129.626 59.1748ZM130.332 63.5327C130.86 62.3005 131.091 61.2779 131.035 60.3105C130.98 59.3409 130.641 58.5349 130.231 57.7518L128.459 58.6786C128.82 59.369 129.007 59.8758 129.039 60.4252C129.07 60.9769 128.95 61.6795 128.494 62.7456L130.332 63.5327ZM123.199 66.8373C124.388 67.0286 125.833 66.9081 127.135 66.4141C128.44 65.9188 129.702 65.0044 130.332 63.5327L128.494 62.7456C128.14 63.5722 127.393 64.1769 126.425 64.5443C125.453 64.913 124.363 64.9988 123.516 64.8627L123.199 66.8373ZM112.788 61.973C113.699 62.6648 115.766 63.7893 117.796 64.7602C118.827 65.2529 119.877 65.7201 120.805 66.087C121.711 66.4449 122.574 66.7367 123.199 66.8373L123.516 64.8627C123.124 64.7996 122.437 64.5813 121.54 64.2269C120.666 63.8817 119.66 63.4347 118.659 62.9559C116.626 61.9836 114.728 60.935 113.998 60.3801L112.788 61.973ZM105.469 53.5767C105.682 54.3223 106.187 55.1383 106.758 55.9065C107.345 56.6969 108.07 57.5257 108.814 58.308C110.296 59.8673 111.914 61.3096 112.788 61.973L113.997 60.3801C113.229 59.7969 111.691 58.4318 110.264 56.9302C109.553 56.1821 108.886 55.4172 108.363 54.7138C107.824 53.9882 107.502 53.4105 107.391 53.0258L105.469 53.5767ZM145.194 49.611L154.153 54.7074L155.142 52.969L146.182 47.8725L145.194 49.611ZM148.824 58.618C148.44 57.7335 147.766 55.7901 147.256 53.7823C147.002 52.782 146.794 51.7886 146.683 50.9195C146.568 50.0229 146.569 49.3613 146.661 48.9718L144.715 48.5117C144.536 49.2665 144.577 50.225 144.699 51.1742C144.824 52.1508 145.052 53.2285 145.317 54.2746C145.847 56.3595 146.553 58.4094 146.99 59.4154L148.824 58.618ZM154.933 67.1847C154.622 66.9376 154.13 66.4111 153.521 65.6633C152.927 64.9346 152.269 64.0526 151.63 63.1451C150.332 61.3025 149.19 59.4595 148.824 58.618L146.99 59.4154C147.446 60.4645 148.699 62.4565 149.994 64.2965C150.652 65.2304 151.339 66.1517 151.97 66.9261C152.585 67.6813 153.194 68.3578 153.69 68.7514L154.933 67.1847ZM160.31 67.7735C159.597 68.3212 158.649 68.4831 157.625 68.3299C156.598 68.1762 155.604 67.7173 154.933 67.1847L153.69 68.7514C154.634 69.5001 155.953 70.102 157.33 70.3079C158.71 70.5144 160.259 70.3348 161.528 69.3594L160.31 67.7735ZM162.269 64.2095C162.246 64.9883 162.162 65.5217 161.92 66.0163C161.678 66.513 161.229 67.0669 160.31 67.7735L161.528 69.3594C162.591 68.5429 163.293 67.7641 163.718 66.8933C164.144 66.0204 164.243 65.1516 164.269 64.2683L162.269 64.2095ZM166.78 62.817C166.002 63.2463 165.488 63.4019 165.058 63.444C164.619 63.4871 164.179 63.4222 163.493 63.2644L163.045 65.2134C163.767 65.3796 164.473 65.5109 165.253 65.4345C166.043 65.3571 166.823 65.0775 167.746 64.5681L166.78 62.817ZM168.112 57.1896C168.689 58.2107 168.709 59.4265 168.365 60.5356C168.012 61.6744 167.337 62.5093 166.78 62.817L167.746 64.5681C168.89 63.9371 169.821 62.5928 170.275 61.1278C170.738 59.6331 170.766 57.8205 169.852 56.2047L168.112 57.1896ZM161.19 49.1587C164.386 51.5259 166.664 54.6314 168.112 57.1896L169.852 56.2047C168.316 53.4891 165.869 50.1356 162.38 47.5514L161.19 49.1587ZM151.926 44.8623C155.259 45.2165 157.886 46.7121 161.19 49.1587L162.38 47.5514C158.997 45.0467 156.015 43.2856 152.138 42.8735L151.926 44.8623ZM155.615 53.5844L152.999 43.6141L151.065 44.1216L153.68 54.092L155.615 53.5844ZM139.205 90.1279L130.371 84.8171L129.341 86.5312L138.175 91.842L139.205 90.1279ZM135.342 81.1849L137.717 91.2153L139.663 90.7545L137.288 80.7241L135.342 81.1849ZM146.571 84.8862C143.25 82.3008 140.311 80.4684 136.445 79.9629L136.186 81.946C139.509 82.3805 142.099 83.9389 145.343 86.4644L146.571 84.8862ZM153.833 93.717C152.363 90.9652 149.998 87.5537 146.571 84.8862L145.343 86.4644C148.482 88.9079 150.684 92.0674 152.069 94.6597L153.833 93.717ZM151.526 102.027C152.685 101.424 153.648 100.103 154.137 98.6488C154.637 97.1657 154.708 95.3544 153.833 93.717L152.069 94.6597C152.622 95.6944 152.612 96.9103 152.242 98.0108C151.862 99.1408 151.167 99.9592 150.602 100.253L151.526 102.027ZM146.811 102.559C147.529 102.743 148.232 102.891 149.013 102.833C149.805 102.775 150.591 102.514 151.526 102.027L150.602 100.253C149.814 100.664 149.297 100.807 148.866 100.839C148.426 100.871 147.988 100.796 147.306 100.621L146.811 102.559ZM145.195 106.667C146.277 105.877 146.997 105.115 147.443 104.255C147.89 103.392 148.01 102.526 148.057 101.644L146.06 101.537C146.018 102.315 145.92 102.846 145.667 103.335C145.413 103.825 144.951 104.368 144.015 105.053L145.195 106.667ZM137.374 105.871C138.299 106.642 139.603 107.275 140.974 107.514C142.35 107.754 143.902 107.612 145.195 106.667L144.015 105.053C143.289 105.583 142.338 105.722 141.318 105.544C140.294 105.366 139.312 104.883 138.654 104.334L137.374 105.871ZM130.901 96.3761C131.331 97.4359 132.535 99.4574 133.786 101.328C134.421 102.278 135.086 103.215 135.698 104.004C136.294 104.774 136.887 105.465 137.374 105.871L138.654 104.334C138.349 104.08 137.869 103.542 137.279 102.779C136.703 102.037 136.066 101.139 135.449 100.216C134.196 98.3431 133.099 96.4731 132.753 95.6231L130.901 96.3761ZM128.889 85.4207C128.692 86.1709 128.71 87.1302 128.809 88.082C128.91 89.0614 129.112 90.1443 129.352 91.1964C129.831 93.2935 130.488 95.3598 130.901 96.3761L132.753 95.6231C132.39 94.7295 131.763 92.7705 131.302 90.751C131.072 89.7449 130.888 88.7467 130.798 87.8752C130.704 86.9761 130.722 86.3148 130.823 85.9276L128.889 85.4207ZM161.704 98.471L171.929 99.771L172.181 97.7869L161.956 96.487L161.704 98.471ZM168.491 105.416C167.799 104.745 166.435 103.205 165.199 101.543C164.583 100.714 164.013 99.8748 163.579 99.1137C163.131 98.3286 162.88 97.7163 162.817 97.3211L160.842 97.6369C160.965 98.4028 161.368 99.2736 161.842 100.105C162.33 100.96 162.95 101.87 163.594 102.736C164.878 104.462 166.311 106.089 167.099 106.852L168.491 105.416ZM177.402 111.011C177.02 110.901 176.365 110.602 175.517 110.142C174.691 109.694 173.746 109.13 172.809 108.534C170.908 107.324 169.15 106.055 168.491 105.416L167.099 106.852C167.92 107.649 169.837 109.013 171.736 110.221C172.699 110.834 173.686 111.424 174.564 111.9C175.42 112.365 176.241 112.758 176.849 112.933L177.402 111.011ZM182.598 109.508C182.147 110.286 181.333 110.796 180.328 111.044C179.319 111.294 178.226 111.248 177.402 111.011L176.849 112.933C178.007 113.266 179.456 113.32 180.807 112.986C182.163 112.651 183.526 111.895 184.328 110.51L182.598 109.508ZM183.052 105.466C183.328 106.195 183.453 106.72 183.418 107.269C183.383 107.821 183.179 108.504 182.598 109.508L184.328 110.51C185 109.35 185.353 108.363 185.414 107.396C185.475 106.426 185.236 105.585 184.923 104.759L183.052 105.466ZM186.693 102.46C186.136 103.154 185.721 103.493 185.34 103.696C184.95 103.903 184.518 104.011 183.824 104.126L184.152 106.099C184.883 105.977 185.586 105.83 186.278 105.462C186.979 105.09 187.593 104.534 188.253 103.712L186.693 102.46ZM185.781 96.75C186.704 97.474 187.185 98.5909 187.289 99.7473C187.396 100.935 187.091 101.964 186.693 102.46L188.253 103.712C189.07 102.693 189.419 101.095 189.281 99.5673C189.14 98.0088 188.476 96.3222 187.015 95.1763L185.781 96.75ZM176.322 91.9606C180.179 92.9319 183.468 94.9359 185.781 96.75L187.015 95.1763C184.56 93.2506 181.021 91.0815 176.81 90.0212L176.322 91.9606ZM166.12 91.516C169.336 90.5744 172.335 90.9568 176.322 91.9606L176.81 90.0212C172.729 88.9935 169.3 88.5011 165.558 89.5966L166.12 91.516ZM172.853 98.1759L166.637 89.9533L165.041 91.1594L171.257 99.382L172.853 98.1759ZM209.914 103.353L214.882 94.3212L213.13 93.3573L208.162 102.389L209.914 103.353ZM218.868 99.5938C217.989 99.9909 216.056 100.693 214.055 101.231C213.059 101.5 212.068 101.721 211.201 101.845C210.306 101.973 209.645 101.981 209.254 101.894L208.822 103.847C209.579 104.015 210.537 103.96 211.484 103.825C212.459 103.686 213.533 103.443 214.575 103.162C216.652 102.603 218.692 101.868 219.692 101.416L218.868 99.5938ZM227.347 93.3634C227.104 93.6783 226.585 94.178 225.846 94.7974C225.126 95.4011 224.253 96.0723 223.355 96.7241C221.531 98.0476 219.704 99.2159 218.868 99.5938L219.692 101.416C220.734 100.945 222.708 99.6645 224.529 98.3428C225.454 97.672 226.365 96.9717 227.13 96.3302C227.877 95.7046 228.545 95.0857 228.931 94.584L227.347 93.3634ZM227.859 87.979C228.417 88.684 228.592 89.6291 228.453 90.6551C228.314 91.6849 227.87 92.6845 227.347 93.3634L228.931 94.584C229.666 93.6298 230.249 92.3021 230.436 90.9227C230.622 89.5394 230.421 87.9935 229.427 86.738L227.859 87.979ZM224.267 86.0704C225.046 86.0822 225.581 86.1594 226.079 86.3936C226.579 86.6288 227.139 87.0695 227.859 87.979L229.427 86.738C228.596 85.6869 227.807 84.9962 226.93 84.5838C226.051 84.1704 225.181 84.084 224.298 84.0706L224.267 86.0704ZM222.81 81.5803C223.251 82.3523 223.414 82.8632 223.462 83.2926C223.511 83.7313 223.453 84.1723 223.305 84.8602L225.26 85.2808C225.416 84.5562 225.537 83.8482 225.449 83.0692C225.361 82.2808 225.07 81.5051 224.548 80.5893L222.81 81.5803ZM217.165 80.329C218.177 79.7368 219.393 79.7001 220.507 80.0281C221.65 80.3648 222.495 81.027 222.81 81.5803L224.548 80.5893C223.9 79.4546 222.543 78.5427 221.072 78.1095C219.57 77.6675 217.758 77.6653 216.155 78.6026L217.165 80.329ZM209.233 87.3649C211.555 84.1347 214.627 81.8128 217.165 80.329L216.155 78.6026C213.462 80.1777 210.143 82.6715 207.609 86.1978L209.233 87.3649ZM205.07 96.6886C205.376 93.3515 206.834 90.7035 209.233 87.3649L207.609 86.1978C205.153 89.6156 203.435 92.623 203.078 96.5056L205.07 96.6886ZM213.738 92.8757L203.806 95.6335L204.341 97.5606L214.273 94.8028L213.738 92.8757ZM254.076 58.3581L259.315 49.4809L257.592 48.4644L252.354 57.3416L254.076 58.3581ZM263.14 54.8716C262.249 55.242 260.295 55.885 258.28 56.3628C257.275 56.6009 256.279 56.7923 255.408 56.89C254.51 56.9907 253.848 56.9788 253.46 56.8805L252.969 58.8192C253.721 59.0097 254.68 58.9842 255.631 58.8775C256.61 58.7678 257.691 58.5578 258.741 58.3089C260.834 57.8128 262.895 57.1396 263.908 56.7183L263.14 54.8716ZM271.803 48.9006C271.551 49.2079 271.017 49.6917 270.259 50.2885C269.521 50.8701 268.629 51.5147 267.711 52.139C265.848 53.4067 263.987 54.5193 263.14 54.8716L263.908 56.7183C264.964 56.279 266.976 55.0584 268.836 53.7925C269.781 53.15 270.713 52.4775 271.497 51.8595C272.262 51.2567 272.948 50.6583 273.35 50.1685L271.803 48.9006ZM272.478 43.534C273.014 44.2557 273.161 45.2056 272.991 46.2269C272.821 47.2521 272.346 48.2378 271.803 48.9006L273.35 50.1685C274.113 49.237 274.736 47.9275 274.964 46.5544C275.193 45.1774 275.038 43.626 274.083 42.3411L272.478 43.534ZM268.945 41.5177C269.724 41.5531 270.256 41.6465 270.746 41.8956C271.239 42.1458 271.786 42.6032 272.478 43.534L274.083 42.3411C273.283 41.2653 272.516 40.5511 271.652 40.1124C270.786 39.6726 269.919 39.5599 269.036 39.5198L268.945 41.5177ZM267.625 36.9856C268.042 37.7706 268.189 38.2862 268.225 38.7169C268.261 39.1569 268.189 39.5958 268.02 40.279L269.962 40.7585C270.139 40.039 270.282 39.335 270.218 38.5536C270.153 37.763 269.886 36.9788 269.392 36.0476L267.625 36.9856ZM262.02 35.5642C263.05 35.0028 264.266 35.003 265.369 35.3644C266.502 35.7356 267.326 36.4231 267.625 36.9856L269.392 36.0476C268.779 34.8939 267.45 33.9413 265.992 33.4638C264.505 32.9767 262.693 32.9196 261.063 33.808L262.02 35.5642ZM253.879 42.357C256.297 39.1985 259.439 36.9706 262.02 35.5642L261.063 33.808C258.323 35.3009 254.931 37.6932 252.291 41.1412L253.879 42.357ZM249.435 51.5505C249.843 48.2242 251.38 45.6215 253.879 42.357L252.291 41.1412C249.733 44.4832 247.924 47.4373 247.45 51.3073L249.435 51.5505ZM258.215 48.0015L248.205 50.4577L248.681 52.4001L258.692 49.9439L258.215 48.0015ZM295.863 60.9298L304.448 55.2248L303.342 53.559L294.757 59.264L295.863 60.9298ZM305.541 61.7438C304.578 61.6888 302.539 61.4157 300.516 60.9668C299.509 60.7433 298.529 60.481 297.702 60.1893C296.85 59.8884 296.26 59.5892 295.954 59.3316L294.666 60.8622C295.26 61.3614 296.134 61.7566 297.036 62.0752C297.965 62.403 299.03 62.6855 300.083 62.9193C302.183 63.3854 304.331 63.6781 305.427 63.7405L305.541 61.7438ZM315.94 60.147C315.579 60.3138 314.888 60.5162 313.946 60.7231C313.028 60.9247 311.944 61.1157 310.846 61.2775C308.616 61.6062 306.457 61.796 305.541 61.7438L305.427 63.7405C306.569 63.8057 308.911 63.5843 311.138 63.2562C312.268 63.0896 313.4 62.8908 314.375 62.6766C315.326 62.4676 316.205 62.2282 316.779 61.9625L315.94 60.147ZM318.887 55.6116C319.055 56.4948 318.773 57.4137 318.175 58.2589C317.575 59.1073 316.718 59.7874 315.94 60.147L316.779 61.9625C317.873 61.4571 319.004 60.5502 319.808 59.4138C320.614 58.2742 321.151 56.8105 320.852 55.2378L318.887 55.6116ZM316.587 52.257C317.272 52.6281 317.71 52.9441 318.043 53.3823C318.378 53.8222 318.67 54.4722 318.887 55.6116L320.852 55.2378C320.601 53.9211 320.222 52.9437 319.636 52.1722C319.048 51.3989 318.317 50.9194 317.54 50.4985L316.587 52.257ZM317.375 47.6027C317.408 48.4908 317.316 49.019 317.16 49.422C317 49.8337 316.744 50.1974 316.295 50.7387L317.833 52.0168C318.307 51.4467 318.742 50.8753 319.025 50.1442C319.311 49.4044 319.413 48.5822 319.374 47.5286L317.375 47.6027ZM312.95 43.8796C314.122 43.8235 315.216 44.3538 316.052 45.1602C316.91 45.9882 317.351 46.9662 317.375 47.6026L319.374 47.5286C319.325 46.2232 318.544 44.7863 317.441 43.7212C316.315 42.6344 314.709 41.7931 312.855 41.8819L312.95 43.8796ZM302.663 46.4437C306.216 44.6554 310.014 44.02 312.95 43.8796L312.855 41.8819C309.738 42.031 305.642 42.705 301.763 44.6572L302.663 46.4437ZM294.655 52.78C296.472 49.9642 298.99 48.2921 302.663 46.4437L301.763 44.6572C298.004 46.5495 295.088 48.4196 292.975 51.6957L294.655 52.78ZM304.104 53.414L294.024 51.2599L293.606 53.2158L303.686 55.3698L304.104 53.414ZM253.071 88.1452L249.369 97.7652L251.236 98.4835L254.938 88.8635L253.071 88.1452ZM244.932 93.4976L254.4 89.4229L253.609 87.5858L244.141 91.6605L244.932 93.4976ZM246.634 81.7974C244.663 85.5158 243.366 88.7278 243.538 92.6229L245.536 92.5351C245.389 89.1873 246.475 86.3665 248.401 82.7343L246.634 81.7974ZM254.075 73.117C251.619 75.0416 248.669 77.961 246.634 81.7974L248.401 82.7343C250.265 79.2201 252.996 76.5042 255.309 74.6911L254.075 73.117ZM262.659 73.9513C261.865 72.9145 260.396 72.1944 258.88 71.964C257.333 71.729 255.537 71.9718 254.075 73.117L255.309 74.6911C256.232 73.9675 257.432 73.7669 258.58 73.9413C259.758 74.1204 260.685 74.6625 261.072 75.168L262.659 73.9513ZM263.999 78.5035C264.056 77.7645 264.08 77.0466 263.888 76.2866C263.694 75.5174 263.301 74.7881 262.659 73.9513L261.072 75.168C261.613 75.8734 261.843 76.3576 261.949 76.7765C262.057 77.2046 262.059 77.6494 262.005 78.351L263.999 78.5035ZM268.325 79.3842C267.359 78.4552 266.484 77.8774 265.56 77.5872C264.633 77.2965 263.759 77.3284 262.882 77.4345L263.122 79.42C263.896 79.3264 264.436 79.3307 264.961 79.4955C265.488 79.661 266.103 80.0219 266.939 80.8258L268.325 79.3842ZM268.894 87.2253C269.493 86.1805 269.892 84.7862 269.89 83.3943C269.888 81.9985 269.479 80.4939 268.325 79.3842L266.939 80.8258C267.587 81.449 267.888 82.3617 267.89 83.397C267.891 84.4361 267.586 85.4867 267.159 86.23L268.894 87.2253ZM260.663 95.2435C261.632 94.636 263.414 93.1001 265.041 91.5445C265.866 90.7549 266.674 89.9378 267.346 89.1988C268.001 88.4781 268.579 87.7746 268.894 87.2253L267.159 86.23C266.961 86.5748 266.514 87.1401 265.866 87.8537C265.234 88.5491 264.46 89.3321 263.658 90.0993C262.03 91.6572 260.378 93.0616 259.6 93.549L260.663 95.2435ZM250.221 99.121C250.993 99.1848 251.935 99.0013 252.856 98.7392C253.802 98.4694 254.834 98.0839 255.829 97.6651C257.811 96.8303 259.733 95.8262 260.663 95.2436L259.6 93.549C258.783 94.0613 256.962 95.0179 255.053 95.8218C254.102 96.2223 253.15 96.5756 252.308 96.8157C251.438 97.0633 250.784 97.1607 250.385 97.1278L250.221 99.121ZM192.201 132.208L184.548 139.113L185.888 140.598L193.541 133.693L192.201 132.208ZM182.521 133.299L192.808 133.948L192.934 131.952L182.647 131.303L182.521 133.299ZM189.332 123.635C185.891 126.059 183.282 128.337 181.673 131.889L183.494 132.714C184.878 129.662 187.123 127.638 190.484 125.27L189.332 123.635ZM199.894 119.259C196.834 119.865 192.881 121.134 189.332 123.635L190.484 125.27C193.735 122.979 197.399 121.792 200.283 121.221L199.894 119.259ZM207.173 123.886C206.933 122.602 205.949 121.296 204.701 120.404C203.428 119.495 201.716 118.899 199.894 119.259L200.283 121.221C201.433 120.994 202.594 121.357 203.539 122.032C204.509 122.725 205.09 123.627 205.207 124.253L207.173 123.886ZM206.308 128.552C206.693 127.919 207.039 127.29 207.212 126.525C207.387 125.751 207.366 124.923 207.173 123.886L205.207 124.253C205.37 125.127 205.356 125.663 205.261 126.085C205.164 126.515 204.964 126.913 204.599 127.514L206.308 128.552ZM209.768 131.295C209.327 130.029 208.808 129.118 208.115 128.441C207.42 127.763 206.626 127.396 205.796 127.094L205.112 128.973C205.844 129.239 206.324 129.488 206.717 129.872C207.113 130.258 207.498 130.858 207.879 131.953L209.768 131.295ZM206.728 138.545C207.735 137.884 208.721 136.821 209.349 135.579C209.979 134.333 210.295 132.806 209.768 131.295L207.879 131.953C208.175 132.802 208.031 133.752 207.564 134.676C207.096 135.604 206.348 136.402 205.631 136.872L206.728 138.545ZM195.76 141.972C196.899 141.869 199.184 141.306 201.338 140.654C202.431 140.323 203.522 139.96 204.455 139.605C205.365 139.258 206.199 138.892 206.728 138.545L205.631 136.872C205.299 137.09 204.644 137.392 203.743 137.735C202.865 138.07 201.821 138.418 200.759 138.74C198.602 139.392 196.493 139.898 195.579 139.981L195.76 141.972ZM184.694 140.707C185.354 141.113 186.277 141.376 187.216 141.558C188.183 141.746 189.277 141.869 190.354 141.946C192.5 142.098 194.668 142.072 195.76 141.972L195.579 139.981C194.619 140.068 192.562 140.097 190.496 139.951C189.466 139.877 188.458 139.762 187.598 139.595C186.71 139.423 186.083 139.213 185.742 139.004L184.694 140.707ZM71.1748 63.0684L61.9179 67.6027L62.7977 69.3988L72.0546 64.8645L71.1748 63.0684ZM61.5674 61.456L71.2797 64.9087L71.9496 63.0242L62.2373 59.5715L61.5674 61.456ZM70.7733 54.0367C66.7988 55.4215 63.6639 56.8946 61.1401 59.8664L62.6646 61.161C64.8338 58.6067 67.549 57.278 71.4313 55.9253L70.7733 54.0367ZM82.132 52.7343C79.0227 52.4749 74.8739 52.608 70.7733 54.0367L71.4313 55.9253C75.1876 54.6166 79.0366 54.483 81.9658 54.7274L82.132 52.7343ZM87.8574 59.1844C87.98 57.8839 87.3934 56.3573 86.4385 55.157C85.4642 53.9325 83.9821 52.8886 82.132 52.7343L81.9658 54.7274C83.1349 54.8249 84.1505 55.4936 84.8734 56.4022C85.6157 57.3352 85.926 58.3625 85.8662 58.9967L87.8574 59.1844ZM85.7434 63.4328C86.2875 62.9294 86.7936 62.4198 87.1698 61.732C87.5504 61.0359 87.7584 60.2341 87.8574 59.1844L85.8662 58.9967C85.7828 59.8816 85.6224 60.3932 85.415 60.7723C85.2032 61.1596 84.9018 61.4868 84.3852 61.9646L85.7434 63.4328ZM88.3156 67.0206C88.2393 65.6825 87.991 64.6639 87.5106 63.8224C87.029 62.979 86.3668 62.4081 85.6515 61.8892L84.4771 63.5082C85.1078 63.9656 85.5009 64.3362 85.7737 64.8141C86.0477 65.294 86.2528 65.9766 86.3189 67.1345L88.3156 67.0206ZM83.3994 73.1556C84.5495 72.7974 85.7898 72.0461 86.7351 71.0244C87.6831 69.9999 88.4068 68.619 88.3156 67.0206L86.3189 67.1345C86.37 68.0321 85.9703 68.9062 85.2671 69.6661C84.5614 70.4288 83.6229 70.9912 82.8047 71.246L83.3994 73.1556ZM71.9116 73.435C73.0354 73.6488 75.3869 73.7355 77.637 73.701C78.779 73.6835 79.9273 73.6343 80.9223 73.5493C81.8927 73.4665 82.7948 73.3439 83.3994 73.1556L82.8047 71.246C82.4252 71.3642 81.713 71.4746 80.7521 71.5566C79.8158 71.6365 78.716 71.6842 77.6063 71.7012C75.353 71.7357 73.1869 71.6418 72.2855 71.4703L71.9116 73.435ZM61.6197 69.1754C62.1429 69.7479 62.958 70.2539 63.811 70.6877C64.6887 71.134 65.7072 71.5532 66.7213 71.9227C68.7424 72.6591 70.8339 73.23 71.9116 73.435L72.2855 71.4703C71.338 71.29 69.3524 70.7528 67.406 70.0436C66.4363 69.6902 65.4986 69.3022 64.7176 68.905C63.9119 68.4952 63.3659 68.1215 63.0959 67.8261L61.6197 69.1754Z" fill="#FFC898" mask="url(#path-1-inside-1_213_15114)"/>
</svg>
